<svg width="350" height="100" viewBox="0 0 350 100" fill="none" xmlns="http://www.w3.org/2000/svg">
<g opacity="0.85">
<rect width="350" height="100" rx="20" fill="white"/>
<g clip-path="url(#clip0_1_17)">
<path opacity="0.75" d="M294.27 33.58C294.717 33.58 295.107 33.6733 295.44 33.86C295.78 34.0467 296.04 34.31 296.22 34.65C296.407 34.9833 296.5 35.37 296.5 35.81C296.5 36.25 296.4 36.6433 296.2 36.99C296 37.33 295.72 37.5967 295.36 37.79C295.007 37.9767 294.597 38.07 294.13 38.07C293.717 38.07 293.313 37.9967 292.92 37.85C292.527 37.7033 292.193 37.5033 291.92 37.25C291.813 37.15 291.76 37.0367 291.76 36.91C291.76 36.81 291.787 36.7267 291.84 36.66C291.893 36.5933 291.957 36.56 292.03 36.56C292.123 36.56 292.217 36.5967 292.31 36.67C292.603 36.91 292.897 37.09 293.19 37.21C293.483 37.3233 293.79 37.38 294.11 37.38C294.603 37.38 294.99 37.24 295.27 36.96C295.55 36.68 295.69 36.3 295.69 35.82C295.69 35.3533 295.55 34.9767 295.27 34.69C294.99 34.4033 294.613 34.26 294.14 34.26C293.533 34.26 293.04 34.4933 292.66 34.96C292.567 35.06 292.453 35.11 292.32 35.11C292.227 35.11 292.147 35.0833 292.08 35.03C292.02 34.97 291.99 34.89 291.99 34.79V31.34C291.99 31.2267 292.023 31.1333 292.09 31.06C292.163 30.9867 292.263 30.95 292.39 30.95H295.91C296.03 30.95 296.123 30.98 296.19 31.04C296.263 31.1 296.3 31.1833 296.3 31.29C296.3 31.3967 296.263 31.48 296.19 31.54C296.123 31.6 296.03 31.63 295.91 31.63H292.8V34.14C292.987 33.96 293.203 33.8233 293.45 33.73C293.703 33.63 293.977 33.58 294.27 33.58ZM298.146 34.15C297.986 34.15 297.853 34.1 297.746 34C297.639 33.8933 297.586 33.7567 297.586 33.59C297.586 33.4233 297.639 33.29 297.746 33.19C297.853 33.0833 297.986 33.03 298.146 33.03C298.299 33.03 298.426 33.0833 298.526 33.19C298.633 33.29 298.686 33.4233 298.686 33.59C298.686 33.7567 298.633 33.8933 298.526 34C298.426 34.1 298.299 34.15 298.146 34.15ZM298.146 38.05C297.986 38.05 297.853 38 297.746 37.9C297.639 37.7933 297.586 37.6567 297.586 37.49C297.586 37.3233 297.639 37.1867 297.746 37.08C297.853 36.9733 297.986 36.92 298.146 36.92C298.299 36.92 298.426 36.9733 298.526 37.08C298.633 37.1867 298.686 37.3233 298.686 37.49C298.686 37.6567 298.633 37.7933 298.526 37.9C298.426 38 298.299 38.05 298.146 38.05ZM304.361 37.31C304.481 37.31 304.575 37.34 304.641 37.4C304.708 37.46 304.741 37.5433 304.741 37.65C304.741 37.8833 304.615 38 304.361 38H300.441C300.328 38 300.235 37.9667 300.161 37.9C300.088 37.8267 300.051 37.74 300.051 37.64C300.051 37.5133 300.098 37.4033 300.191 37.31L302.601 34.66C302.935 34.2867 303.175 33.9533 303.321 33.66C303.475 33.36 303.551 33.06 303.551 32.76C303.551 32.3733 303.438 32.0767 303.211 31.87C302.991 31.6633 302.678 31.56 302.271 31.56C301.951 31.56 301.645 31.62 301.351 31.74C301.058 31.8533 300.765 32.03 300.471 32.27C300.371 32.35 300.278 32.39 300.191 32.39C300.118 32.39 300.055 32.3567 300.001 32.29C299.948 32.2167 299.921 32.13 299.921 32.03C299.921 31.89 299.975 31.7767 300.081 31.69C300.355 31.4367 300.688 31.2367 301.081 31.09C301.475 30.9433 301.878 30.87 302.291 30.87C302.925 30.87 303.428 31.0367 303.801 31.37C304.181 31.7033 304.371 32.1533 304.371 32.72C304.371 33.1267 304.278 33.5167 304.091 33.89C303.911 34.2633 303.611 34.68 303.191 35.14L301.191 37.31H304.361ZM310.307 30.95C310.427 30.95 310.517 30.9833 310.577 31.05C310.644 31.11 310.677 31.19 310.677 31.29C310.677 31.3833 310.647 31.4867 310.587 31.6L307.267 37.85C307.187 37.9967 307.071 38.07 306.917 38.07C306.811 38.07 306.714 38.0333 306.627 37.96C306.547 37.8867 306.507 37.7967 306.507 37.69C306.507 37.6167 306.531 37.5433 306.577 37.47L309.697 31.64H306.247C306.127 31.64 306.034 31.61 305.967 31.55C305.907 31.49 305.877 31.4067 305.877 31.3C305.877 31.1867 305.907 31.1 305.967 31.04C306.034 30.98 306.127 30.95 306.247 30.95H310.307ZM320.792 37.53C320.818 37.5833 320.832 37.64 320.832 37.7C320.832 37.8 320.792 37.8833 320.712 37.95C320.638 38.0167 320.548 38.05 320.442 38.05C320.275 38.05 320.158 37.97 320.092 37.81L319.382 36.19H315.612L314.892 37.81C314.825 37.97 314.708 38.05 314.542 38.05C314.435 38.05 314.342 38.0167 314.262 37.95C314.182 37.8767 314.142 37.79 314.142 37.69C314.142 37.6367 314.155 37.5833 314.182 37.53L317.042 31.17C317.082 31.0767 317.142 31.0067 317.222 30.96C317.302 30.9133 317.388 30.89 317.482 30.89C317.582 30.89 317.672 30.9167 317.752 30.97C317.832 31.0167 317.892 31.0833 317.932 31.17L320.792 37.53ZM315.912 35.51H319.082L317.492 31.92L315.912 35.51ZM328.247 30.9C328.374 30.9 328.471 30.94 328.537 31.02C328.611 31.0933 328.647 31.1933 328.647 31.32V37.65C328.647 37.77 328.614 37.8667 328.547 37.94C328.481 38.0133 328.387 38.05 328.267 38.05C328.147 38.05 328.057 38.0133 327.997 37.94C327.937 37.8667 327.907 37.77 327.907 37.65V32.54L325.737 36.7C325.644 36.8933 325.507 36.99 325.327 36.99C325.154 36.99 325.017 36.8933 324.917 36.7L322.737 32.59V37.65C322.737 37.77 322.704 37.8667 322.637 37.94C322.577 38.0133 322.487 38.05 322.367 38.05C322.247 38.05 322.154 38.0133 322.087 37.94C322.021 37.8667 321.987 37.77 321.987 37.65V31.32C321.987 31.1933 322.024 31.0933 322.097 31.02C322.171 30.94 322.271 30.9 322.397 30.9C322.564 30.9 322.697 30.9967 322.797 31.19L325.337 36.06L327.847 31.19C327.901 31.0833 327.957 31.01 328.017 30.97C328.084 30.9233 328.161 30.9 328.247 30.9Z" fill="#234CAD"/>
<g clip-path="url(#clip1_1_17)">
<path d="M111.856 57.78C111.888 57.676 111.944 57.6 112.024 57.552C112.104 57.496 112.192 57.468 112.288 57.468C112.416 57.468 112.524 57.508 112.612 57.588C112.708 57.66 112.756 57.76 112.756 57.888C112.756 57.944 112.744 58.008 112.72 58.08L110.008 65.724C109.968 65.836 109.9 65.924 109.804 65.988C109.708 66.044 109.6 66.072 109.48 66.072C109.368 66.072 109.264 66.044 109.168 65.988C109.072 65.924 109.004 65.836 108.964 65.724L106.612 59.076L104.236 65.724C104.196 65.836 104.128 65.924 104.032 65.988C103.936 66.044 103.832 66.072 103.72 66.072C103.608 66.072 103.504 66.044 103.408 65.988C103.312 65.924 103.244 65.836 103.204 65.724L100.48 58.08C100.456 58.016 100.444 57.956 100.444 57.9C100.444 57.772 100.492 57.668 100.588 57.588C100.692 57.508 100.808 57.468 100.936 57.468C101.032 57.468 101.12 57.496 101.2 57.552C101.288 57.6 101.348 57.676 101.38 57.78L103.744 64.596L106.144 57.852C106.184 57.732 106.248 57.644 106.336 57.588C106.424 57.524 106.52 57.492 106.624 57.492C106.728 57.492 106.824 57.524 106.912 57.588C107 57.652 107.064 57.744 107.104 57.864L109.468 64.62L111.856 57.78ZM115.863 66.084C115.311 66.084 114.823 65.96 114.399 65.712C113.983 65.464 113.659 65.112 113.427 64.656C113.203 64.192 113.091 63.656 113.091 63.048C113.091 62.44 113.203 61.908 113.427 61.452C113.659 60.988 113.983 60.632 114.399 60.384C114.823 60.136 115.311 60.012 115.863 60.012C116.415 60.012 116.903 60.136 117.327 60.384C117.751 60.632 118.075 60.988 118.299 61.452C118.531 61.908 118.647 62.44 118.647 63.048C118.647 63.656 118.531 64.192 118.299 64.656C118.075 65.112 117.751 65.464 117.327 65.712C116.903 65.96 116.415 66.084 115.863 66.084ZM115.863 65.28C116.439 65.28 116.879 65.092 117.183 64.716C117.495 64.332 117.651 63.776 117.651 63.048C117.651 62.336 117.495 61.788 117.183 61.404C116.871 61.012 116.431 60.816 115.863 60.816C115.295 60.816 114.855 61.012 114.543 61.404C114.231 61.788 114.075 62.336 114.075 63.048C114.075 63.768 114.227 64.32 114.531 64.704C114.843 65.088 115.287 65.28 115.863 65.28ZM124.535 60.036C124.687 60.036 124.803 60.08 124.883 60.168C124.971 60.256 125.015 60.372 125.015 60.516V65.592C125.015 65.728 124.971 65.84 124.883 65.928C124.803 66.016 124.687 66.06 124.535 66.06C124.391 66.06 124.275 66.02 124.187 65.94C124.107 65.852 124.067 65.74 124.067 65.604V65.004C123.883 65.356 123.623 65.624 123.287 65.808C122.959 65.992 122.587 66.084 122.171 66.084C121.475 66.084 120.951 65.892 120.599 65.508C120.247 65.116 120.071 64.54 120.071 63.78V60.516C120.071 60.372 120.115 60.256 120.203 60.168C120.291 60.08 120.411 60.036 120.563 60.036C120.715 60.036 120.831 60.08 120.911 60.168C120.999 60.256 121.043 60.372 121.043 60.516V63.756C121.043 64.276 121.147 64.66 121.355 64.908C121.563 65.148 121.891 65.268 122.339 65.268C122.851 65.268 123.263 65.104 123.575 64.776C123.887 64.44 124.043 64 124.043 63.456V60.516C124.043 60.372 124.087 60.256 124.175 60.168C124.263 60.08 124.383 60.036 124.535 60.036ZM127.314 66.06C127.17 66.06 127.05 66.02 126.954 65.94C126.866 65.852 126.822 65.732 126.822 65.58V57.96C126.822 57.808 126.866 57.692 126.954 57.612C127.05 57.524 127.17 57.48 127.314 57.48C127.45 57.48 127.562 57.524 127.65 57.612C127.746 57.692 127.794 57.808 127.794 57.96V65.58C127.794 65.732 127.746 65.852 127.65 65.94C127.562 66.02 127.45 66.06 127.314 66.06ZM134.303 57.48C134.455 57.48 134.575 57.524 134.663 57.612C134.751 57.7 134.795 57.812 134.795 57.948V65.58C134.795 65.724 134.751 65.84 134.663 65.928C134.575 66.016 134.455 66.06 134.303 66.06C134.151 66.06 134.031 66.016 133.943 65.928C133.863 65.84 133.823 65.724 133.823 65.58V64.932C133.647 65.3 133.387 65.584 133.043 65.784C132.707 65.984 132.311 66.084 131.855 66.084C131.343 66.084 130.891 65.956 130.499 65.7C130.107 65.444 129.803 65.088 129.587 64.632C129.371 64.168 129.263 63.632 129.263 63.024C129.263 62.424 129.371 61.896 129.587 61.44C129.803 60.984 130.107 60.632 130.499 60.384C130.891 60.136 131.343 60.012 131.855 60.012C132.311 60.012 132.707 60.112 133.043 60.312C133.387 60.512 133.647 60.796 133.823 61.164V57.948C133.823 57.804 133.863 57.692 133.943 57.612C134.031 57.524 134.151 57.48 134.303 57.48ZM132.047 65.28C132.615 65.28 133.051 65.088 133.355 64.704C133.667 64.312 133.823 63.76 133.823 63.048C133.823 62.336 133.667 61.788 133.355 61.404C133.051 61.02 132.615 60.828 132.047 60.828C131.479 60.828 131.035 61.02 130.715 61.404C130.403 61.788 130.247 62.328 130.247 63.024C130.247 63.736 130.403 64.292 130.715 64.692C131.035 65.084 131.479 65.28 132.047 65.28ZM143.901 60.336C143.989 60.144 144.129 60.048 144.321 60.048C144.441 60.048 144.549 60.088 144.645 60.168C144.741 60.248 144.789 60.348 144.789 60.468C144.789 60.54 144.773 60.604 144.741 60.66L141.369 67.932C141.329 68.02 141.269 68.088 141.189 68.136C141.117 68.184 141.041 68.208 140.961 68.208C140.841 68.208 140.733 68.168 140.637 68.088C140.549 68.016 140.505 67.92 140.505 67.8C140.505 67.736 140.521 67.672 140.553 67.608L141.393 65.796L139.017 60.66C138.985 60.604 138.969 60.544 138.969 60.48C138.969 60.36 139.021 60.256 139.125 60.168C139.237 60.08 139.357 60.036 139.485 60.036C139.565 60.036 139.641 60.06 139.713 60.108C139.793 60.156 139.853 60.224 139.893 60.312L141.897 64.812L143.901 60.336ZM148.207 66.084C147.655 66.084 147.167 65.96 146.743 65.712C146.327 65.464 146.003 65.112 145.771 64.656C145.547 64.192 145.435 63.656 145.435 63.048C145.435 62.44 145.547 61.908 145.771 61.452C146.003 60.988 146.327 60.632 146.743 60.384C147.167 60.136 147.655 60.012 148.207 60.012C148.759 60.012 149.247 60.136 149.671 60.384C150.095 60.632 150.419 60.988 150.643 61.452C150.875 61.908 150.991 62.44 150.991 63.048C150.991 63.656 150.875 64.192 150.643 64.656C150.419 65.112 150.095 65.464 149.671 65.712C149.247 65.96 148.759 66.084 148.207 66.084ZM148.207 65.28C148.783 65.28 149.223 65.092 149.527 64.716C149.839 64.332 149.995 63.776 149.995 63.048C149.995 62.336 149.839 61.788 149.527 61.404C149.215 61.012 148.775 60.816 148.207 60.816C147.639 60.816 147.199 61.012 146.887 61.404C146.575 61.788 146.419 62.336 146.419 63.048C146.419 63.768 146.571 64.32 146.875 64.704C147.187 65.088 147.631 65.28 148.207 65.28ZM156.879 60.036C157.031 60.036 157.147 60.08 157.227 60.168C157.315 60.256 157.359 60.372 157.359 60.516V65.592C157.359 65.728 157.315 65.84 157.227 65.928C157.147 66.016 157.031 66.06 156.879 66.06C156.735 66.06 156.619 66.02 156.531 65.94C156.451 65.852 156.411 65.74 156.411 65.604V65.004C156.227 65.356 155.967 65.624 155.631 65.808C155.303 65.992 154.931 66.084 154.515 66.084C153.819 66.084 153.295 65.892 152.943 65.508C152.591 65.116 152.415 64.54 152.415 63.78V60.516C152.415 60.372 152.459 60.256 152.547 60.168C152.635 60.08 152.755 60.036 152.907 60.036C153.059 60.036 153.175 60.08 153.255 60.168C153.343 60.256 153.387 60.372 153.387 60.516V63.756C153.387 64.276 153.491 64.66 153.699 64.908C153.907 65.148 154.235 65.268 154.683 65.268C155.195 65.268 155.607 65.104 155.919 64.776C156.231 64.44 156.387 64 156.387 63.456V60.516C156.387 60.372 156.431 60.256 156.519 60.168C156.607 60.08 156.727 60.036 156.879 60.036ZM162.751 66.06C162.607 66.06 162.487 66.02 162.391 65.94C162.303 65.852 162.259 65.732 162.259 65.58V57.96C162.259 57.808 162.303 57.692 162.391 57.612C162.487 57.524 162.607 57.48 162.751 57.48C162.887 57.48 162.999 57.524 163.087 57.612C163.183 57.692 163.231 57.808 163.231 57.96V65.58C163.231 65.732 163.183 65.852 163.087 65.94C162.999 66.02 162.887 66.06 162.751 66.06ZM165.54 66.06C165.396 66.06 165.276 66.02 165.18 65.94C165.092 65.852 165.048 65.732 165.048 65.58V60.516C165.048 60.364 165.092 60.248 165.18 60.168C165.276 60.08 165.396 60.036 165.54 60.036C165.684 60.036 165.8 60.08 165.888 60.168C165.976 60.248 166.02 60.364 166.02 60.516V65.58C166.02 65.74 165.976 65.86 165.888 65.94C165.8 66.02 165.684 66.06 165.54 66.06ZM165.54 58.776C165.348 58.776 165.192 58.72 165.072 58.608C164.952 58.496 164.892 58.348 164.892 58.164C164.892 57.988 164.952 57.844 165.072 57.732C165.192 57.62 165.348 57.564 165.54 57.564C165.732 57.564 165.888 57.62 166.008 57.732C166.128 57.844 166.188 57.988 166.188 58.164C166.188 58.348 166.128 58.496 166.008 58.608C165.888 58.72 165.732 58.776 165.54 58.776ZM172.506 65.232C172.634 65.352 172.698 65.48 172.698 65.616C172.698 65.736 172.654 65.84 172.566 65.928C172.486 66.016 172.386 66.06 172.266 66.06C172.162 66.06 172.054 66.012 171.942 65.916L168.81 63.216V65.58C168.81 65.732 168.762 65.852 168.666 65.94C168.578 66.02 168.466 66.06 168.33 66.06C168.186 66.06 168.066 66.02 167.97 65.94C167.882 65.852 167.838 65.732 167.838 65.58V57.96C167.838 57.808 167.882 57.692 167.97 57.612C168.066 57.524 168.186 57.48 168.33 57.48C168.466 57.48 168.578 57.524 168.666 57.612C168.762 57.692 168.81 57.808 168.81 57.96V62.832L171.678 60.204C171.774 60.108 171.882 60.06 172.002 60.06C172.122 60.06 172.226 60.104 172.314 60.192C172.402 60.28 172.446 60.384 172.446 60.504C172.446 60.64 172.39 60.76 172.278 60.864L169.914 62.976L172.506 65.232ZM178.256 64.644C178.344 64.644 178.42 64.68 178.484 64.752C178.548 64.824 178.58 64.916 178.58 65.028C178.58 65.228 178.44 65.412 178.16 65.58C177.872 65.748 177.568 65.876 177.248 65.964C176.928 66.044 176.616 66.084 176.312 66.084C175.408 66.084 174.692 65.816 174.164 65.28C173.644 64.744 173.384 64.004 173.384 63.06C173.384 62.46 173.5 61.932 173.732 61.476C173.964 61.012 174.288 60.652 174.704 60.396C175.128 60.14 175.608 60.012 176.144 60.012C176.904 60.012 177.508 60.26 177.956 60.756C178.404 61.252 178.628 61.924 178.628 62.772C178.628 62.932 178.596 63.048 178.532 63.12C178.468 63.192 178.364 63.228 178.22 63.228H174.356C174.428 64.604 175.08 65.292 176.312 65.292C176.624 65.292 176.892 65.252 177.116 65.172C177.34 65.084 177.58 64.968 177.836 64.824C178.044 64.704 178.184 64.644 178.256 64.644ZM176.156 60.768C175.644 60.768 175.232 60.928 174.92 61.248C174.616 61.568 174.436 62.02 174.38 62.604H177.776C177.76 62.012 177.612 61.56 177.332 61.248C177.052 60.928 176.66 60.768 176.156 60.768ZM185.854 65.292C186.134 65.316 186.274 65.444 186.274 65.676C186.274 65.812 186.222 65.916 186.118 65.988C186.022 66.052 185.874 66.076 185.674 66.06L185.35 66.036C184.71 65.988 184.238 65.796 183.934 65.46C183.63 65.124 183.478 64.616 183.478 63.936V60.924H182.674C182.538 60.924 182.43 60.892 182.35 60.828C182.278 60.756 182.242 60.664 182.242 60.552C182.242 60.432 182.278 60.336 182.35 60.264C182.43 60.192 182.538 60.156 182.674 60.156H183.478V58.8C183.478 58.648 183.522 58.532 183.61 58.452C183.698 58.364 183.818 58.32 183.97 58.32C184.114 58.32 184.23 58.364 184.318 58.452C184.406 58.532 184.45 58.648 184.45 58.8V60.156H185.782C185.91 60.156 186.01 60.192 186.082 60.264C186.162 60.336 186.202 60.432 186.202 60.552C186.202 60.664 186.162 60.756 186.082 60.828C186.01 60.892 185.91 60.924 185.782 60.924H184.45V63.984C184.45 64.424 184.538 64.744 184.714 64.944C184.898 65.136 185.17 65.244 185.53 65.268L185.854 65.292ZM189.656 66.084C189.104 66.084 188.616 65.96 188.192 65.712C187.776 65.464 187.452 65.112 187.22 64.656C186.996 64.192 186.884 63.656 186.884 63.048C186.884 62.44 186.996 61.908 187.22 61.452C187.452 60.988 187.776 60.632 188.192 60.384C188.616 60.136 189.104 60.012 189.656 60.012C190.208 60.012 190.696 60.136 191.12 60.384C191.544 60.632 191.868 60.988 192.092 61.452C192.324 61.908 192.44 62.44 192.44 63.048C192.44 63.656 192.324 64.192 192.092 64.656C191.868 65.112 191.544 65.464 191.12 65.712C190.696 65.96 190.208 66.084 189.656 66.084ZM189.656 65.28C190.232 65.28 190.672 65.092 190.976 64.716C191.288 64.332 191.444 63.776 191.444 63.048C191.444 62.336 191.288 61.788 190.976 61.404C190.664 61.012 190.224 60.816 189.656 60.816C189.088 60.816 188.648 61.012 188.336 61.404C188.024 61.788 187.868 62.336 187.868 63.048C187.868 63.768 188.02 64.32 188.324 64.704C188.636 65.088 189.08 65.28 189.656 65.28ZM199.934 60.012C200.622 60.012 201.142 60.208 201.494 60.6C201.846 60.984 202.022 61.56 202.022 62.328V65.58C202.022 65.732 201.978 65.852 201.89 65.94C201.802 66.02 201.686 66.06 201.542 66.06C201.39 66.06 201.27 66.02 201.182 65.94C201.094 65.852 201.05 65.732 201.05 65.58V62.352C201.05 61.832 200.942 61.448 200.726 61.2C200.518 60.952 200.182 60.828 199.718 60.828C199.182 60.828 198.754 60.992 198.434 61.32C198.114 61.648 197.954 62.092 197.954 62.652V65.58C197.954 65.732 197.91 65.852 197.822 65.94C197.742 66.02 197.626 66.06 197.474 66.06C197.322 66.06 197.202 66.02 197.114 65.94C197.026 65.852 196.982 65.732 196.982 65.58V57.948C196.982 57.812 197.026 57.7 197.114 57.612C197.21 57.524 197.33 57.48 197.474 57.48C197.626 57.48 197.742 57.524 197.822 57.612C197.91 57.692 197.954 57.804 197.954 57.948V61.092C198.146 60.74 198.414 60.472 198.758 60.288C199.102 60.104 199.494 60.012 199.934 60.012ZM206.19 60.012C207.654 60.012 208.386 60.78 208.386 62.316V65.58C208.386 65.724 208.342 65.84 208.254 65.928C208.174 66.016 208.062 66.06 207.918 66.06C207.774 66.06 207.658 66.016 207.57 65.928C207.482 65.84 207.438 65.724 207.438 65.58V65.004C207.286 65.348 207.054 65.616 206.742 65.808C206.43 65.992 206.07 66.084 205.662 66.084C205.286 66.084 204.938 66.008 204.618 65.856C204.306 65.704 204.058 65.492 203.874 65.22C203.69 64.948 203.598 64.648 203.598 64.32C203.598 63.88 203.71 63.54 203.934 63.3C204.158 63.052 204.526 62.876 205.038 62.772C205.55 62.66 206.262 62.604 207.174 62.604H207.438V62.208C207.438 61.728 207.338 61.376 207.138 61.152C206.946 60.928 206.63 60.816 206.19 60.816C205.646 60.816 205.094 60.964 204.534 61.26C204.318 61.396 204.166 61.464 204.078 61.464C203.982 61.464 203.902 61.428 203.838 61.356C203.774 61.284 203.742 61.192 203.742 61.08C203.742 60.968 203.774 60.872 203.838 60.792C203.91 60.704 204.022 60.616 204.174 60.528C204.454 60.368 204.77 60.244 205.122 60.156C205.482 60.06 205.838 60.012 206.19 60.012ZM205.794 65.316C206.274 65.316 206.666 65.156 206.97 64.836C207.282 64.508 207.438 64.088 207.438 63.576V63.228H207.222C206.518 63.228 205.982 63.26 205.614 63.324C205.246 63.38 204.982 63.48 204.822 63.624C204.67 63.76 204.594 63.964 204.594 64.236C204.594 64.548 204.706 64.808 204.93 65.016C205.162 65.216 205.45 65.316 205.794 65.316ZM214.378 60.336C214.466 60.144 214.606 60.048 214.798 60.048C214.918 60.048 215.026 60.088 215.122 60.168C215.218 60.248 215.266 60.348 215.266 60.468C215.266 60.54 215.25 60.604 215.218 60.66L212.878 65.7C212.83 65.804 212.758 65.888 212.662 65.952C212.566 66.008 212.462 66.036 212.35 66.036C212.246 66.036 212.146 66.008 212.05 65.952C211.954 65.888 211.878 65.804 211.822 65.7L209.494 60.66C209.462 60.604 209.446 60.544 209.446 60.48C209.446 60.36 209.498 60.256 209.602 60.168C209.714 60.08 209.834 60.036 209.962 60.036C210.042 60.036 210.118 60.06 210.19 60.108C210.27 60.156 210.33 60.224 210.37 60.312L212.374 64.812L214.378 60.336ZM220.783 64.644C220.871 64.644 220.947 64.68 221.011 64.752C221.075 64.824 221.107 64.916 221.107 65.028C221.107 65.228 220.967 65.412 220.687 65.58C220.399 65.748 220.095 65.876 219.775 65.964C219.455 66.044 219.143 66.084 218.839 66.084C217.935 66.084 217.219 65.816 216.691 65.28C216.171 64.744 215.911 64.004 215.911 63.06C215.911 62.46 216.027 61.932 216.259 61.476C216.491 61.012 216.815 60.652 217.231 60.396C217.655 60.14 218.135 60.012 218.671 60.012C219.431 60.012 220.035 60.26 220.483 60.756C220.931 61.252 221.155 61.924 221.155 62.772C221.155 62.932 221.123 63.048 221.059 63.12C220.995 63.192 220.891 63.228 220.747 63.228H216.883C216.955 64.604 217.607 65.292 218.839 65.292C219.151 65.292 219.419 65.252 219.643 65.172C219.867 65.084 220.107 64.968 220.363 64.824C220.571 64.704 220.711 64.644 220.783 64.644ZM218.683 60.768C218.171 60.768 217.759 60.928 217.447 61.248C217.143 61.568 216.963 62.02 216.907 62.604H220.303C220.287 62.012 220.139 61.56 219.859 61.248C219.579 60.928 219.187 60.768 218.683 60.768ZM228.069 60.012C229.533 60.012 230.265 60.78 230.265 62.316V65.58C230.265 65.724 230.221 65.84 230.133 65.928C230.053 66.016 229.941 66.06 229.797 66.06C229.653 66.06 229.537 66.016 229.449 65.928C229.361 65.84 229.317 65.724 229.317 65.58V65.004C229.165 65.348 228.933 65.616 228.621 65.808C228.309 65.992 227.949 66.084 227.541 66.084C227.165 66.084 226.817 66.008 226.497 65.856C226.185 65.704 225.937 65.492 225.753 65.22C225.569 64.948 225.477 64.648 225.477 64.32C225.477 63.88 225.589 63.54 225.813 63.3C226.037 63.052 226.405 62.876 226.917 62.772C227.429 62.66 228.141 62.604 229.053 62.604H229.317V62.208C229.317 61.728 229.217 61.376 229.017 61.152C228.825 60.928 228.509 60.816 228.069 60.816C227.525 60.816 226.973 60.964 226.413 61.26C226.197 61.396 226.045 61.464 225.957 61.464C225.861 61.464 225.781 61.428 225.717 61.356C225.653 61.284 225.621 61.192 225.621 61.08C225.621 60.968 225.653 60.872 225.717 60.792C225.789 60.704 225.901 60.616 226.053 60.528C226.333 60.368 226.649 60.244 227.001 60.156C227.361 60.06 227.717 60.012 228.069 60.012ZM227.673 65.316C228.153 65.316 228.545 65.156 228.849 64.836C229.161 64.508 229.317 64.088 229.317 63.576V63.228H229.101C228.397 63.228 227.861 63.26 227.493 63.324C227.125 63.38 226.861 63.48 226.701 63.624C226.549 63.76 226.473 63.964 226.473 64.236C226.473 64.548 226.585 64.808 226.809 65.016C227.041 65.216 227.329 65.316 227.673 65.316ZM241.642 60.012C242.938 60.012 243.586 60.784 243.586 62.328V65.58C243.586 65.732 243.542 65.852 243.454 65.94C243.366 66.02 243.25 66.06 243.106 66.06C242.962 66.06 242.842 66.02 242.746 65.94C242.658 65.852 242.614 65.732 242.614 65.58V62.352C242.614 61.816 242.518 61.428 242.326 61.188C242.134 60.948 241.834 60.828 241.426 60.828C240.938 60.828 240.554 60.992 240.274 61.32C239.994 61.648 239.854 62.092 239.854 62.652V65.58C239.854 65.732 239.806 65.852 239.71 65.94C239.622 66.02 239.506 66.06 239.362 66.06C239.218 66.06 239.102 66.02 239.014 65.94C238.926 65.852 238.882 65.732 238.882 65.58V62.352C238.882 61.816 238.786 61.428 238.594 61.188C238.402 60.948 238.098 60.828 237.682 60.828C237.202 60.828 236.818 60.992 236.53 61.32C236.25 61.648 236.11 62.092 236.11 62.652V65.58C236.11 65.732 236.066 65.852 235.978 65.94C235.89 66.02 235.774 66.06 235.63 66.06C235.486 66.06 235.366 66.02 235.27 65.94C235.182 65.852 235.138 65.732 235.138 65.58V60.516C235.138 60.372 235.182 60.256 235.27 60.168C235.366 60.08 235.486 60.036 235.63 60.036C235.766 60.036 235.878 60.08 235.966 60.168C236.054 60.248 236.098 60.36 236.098 60.504V61.08C236.274 60.736 236.518 60.472 236.83 60.288C237.142 60.104 237.502 60.012 237.91 60.012C238.822 60.012 239.418 60.396 239.698 61.164C239.866 60.812 240.122 60.532 240.466 60.324C240.81 60.116 241.202 60.012 241.642 60.012ZM249.881 64.644C249.969 64.644 250.045 64.68 250.109 64.752C250.173 64.824 250.205 64.916 250.205 65.028C250.205 65.228 250.065 65.412 249.785 65.58C249.497 65.748 249.193 65.876 248.873 65.964C248.553 66.044 248.241 66.084 247.937 66.084C247.033 66.084 246.317 65.816 245.789 65.28C245.269 64.744 245.009 64.004 245.009 63.06C245.009 62.46 245.125 61.932 245.357 61.476C245.589 61.012 245.913 60.652 246.329 60.396C246.753 60.14 247.233 60.012 247.769 60.012C248.529 60.012 249.133 60.26 249.581 60.756C250.029 61.252 250.253 61.924 250.253 62.772C250.253 62.932 250.221 63.048 250.157 63.12C250.093 63.192 249.989 63.228 249.845 63.228H245.981C246.053 64.604 246.705 65.292 247.937 65.292C248.249 65.292 248.517 65.252 248.741 65.172C248.965 65.084 249.205 64.968 249.461 64.824C249.669 64.704 249.809 64.644 249.881 64.644ZM247.781 60.768C247.269 60.768 246.857 60.928 246.545 61.248C246.241 61.568 246.061 62.02 246.005 62.604H249.401C249.385 62.012 249.237 61.56 248.957 61.248C248.677 60.928 248.285 60.768 247.781 60.768ZM256.209 64.644C256.297 64.644 256.373 64.68 256.437 64.752C256.501 64.824 256.533 64.916 256.533 65.028C256.533 65.228 256.393 65.412 256.113 65.58C255.825 65.748 255.521 65.876 255.201 65.964C254.881 66.044 254.569 66.084 254.265 66.084C253.361 66.084 252.645 65.816 252.117 65.28C251.597 64.744 251.337 64.004 251.337 63.06C251.337 62.46 251.453 61.932 251.685 61.476C251.917 61.012 252.241 60.652 252.657 60.396C253.081 60.14 253.561 60.012 254.097 60.012C254.857 60.012 255.461 60.26 255.909 60.756C256.357 61.252 256.581 61.924 256.581 62.772C256.581 62.932 256.549 63.048 256.485 63.12C256.421 63.192 256.317 63.228 256.173 63.228H252.309C252.381 64.604 253.033 65.292 254.265 65.292C254.577 65.292 254.845 65.252 255.069 65.172C255.293 65.084 255.533 64.968 255.789 64.824C255.997 64.704 256.137 64.644 256.209 64.644ZM254.109 60.768C253.597 60.768 253.185 60.928 252.873 61.248C252.569 61.568 252.389 62.02 252.333 62.604H255.729C255.713 62.012 255.565 61.56 255.285 61.248C255.005 60.928 254.613 60.768 254.109 60.768ZM260.678 65.292C260.958 65.316 261.098 65.444 261.098 65.676C261.098 65.812 261.046 65.916 260.942 65.988C260.846 66.052 260.698 66.076 260.498 66.06L260.174 66.036C259.534 65.988 259.062 65.796 258.758 65.46C258.454 65.124 258.302 64.616 258.302 63.936V60.924H257.498C257.362 60.924 257.254 60.892 257.174 60.828C257.102 60.756 257.066 60.664 257.066 60.552C257.066 60.432 257.102 60.336 257.174 60.264C257.254 60.192 257.362 60.156 257.498 60.156H258.302V58.8C258.302 58.648 258.346 58.532 258.434 58.452C258.522 58.364 258.642 58.32 258.794 58.32C258.938 58.32 259.054 58.364 259.142 58.452C259.23 58.532 259.274 58.648 259.274 58.8V60.156H260.606C260.734 60.156 260.834 60.192 260.906 60.264C260.986 60.336 261.026 60.432 261.026 60.552C261.026 60.664 260.986 60.756 260.906 60.828C260.834 60.892 260.734 60.924 260.606 60.924H259.274V63.984C259.274 64.424 259.362 64.744 259.538 64.944C259.722 65.136 259.994 65.244 260.354 65.268L260.678 65.292ZM262.548 66.06C262.404 66.06 262.284 66.02 262.188 65.94C262.1 65.852 262.056 65.732 262.056 65.58V60.516C262.056 60.364 262.1 60.248 262.188 60.168C262.284 60.08 262.404 60.036 262.548 60.036C262.692 60.036 262.808 60.08 262.896 60.168C262.984 60.248 263.028 60.364 263.028 60.516V65.58C263.028 65.74 262.984 65.86 262.896 65.94C262.808 66.02 262.692 66.06 262.548 66.06ZM262.548 58.776C262.356 58.776 262.2 58.72 262.08 58.608C261.96 58.496 261.9 58.348 261.9 58.164C261.9 57.988 261.96 57.844 262.08 57.732C262.2 57.62 262.356 57.564 262.548 57.564C262.74 57.564 262.896 57.62 263.016 57.732C263.136 57.844 263.196 57.988 263.196 58.164C263.196 58.348 263.136 58.496 263.016 58.608C262.896 58.72 262.74 58.776 262.548 58.776ZM267.785 60.012C269.185 60.012 269.885 60.784 269.885 62.328V65.58C269.885 65.732 269.841 65.852 269.753 65.94C269.673 66.02 269.557 66.06 269.405 66.06C269.253 66.06 269.133 66.02 269.045 65.94C268.957 65.852 268.913 65.732 268.913 65.58V62.388C268.913 61.844 268.805 61.448 268.589 61.2C268.381 60.952 268.045 60.828 267.581 60.828C267.045 60.828 266.617 60.992 266.297 61.32C265.977 61.648 265.817 62.092 265.817 62.652V65.58C265.817 65.732 265.773 65.852 265.685 65.94C265.605 66.02 265.489 66.06 265.337 66.06C265.185 66.06 265.065 66.02 264.977 65.94C264.889 65.852 264.845 65.732 264.845 65.58V60.516C264.845 60.372 264.889 60.256 264.977 60.168C265.065 60.08 265.185 60.036 265.337 60.036C265.481 60.036 265.593 60.08 265.673 60.168C265.761 60.256 265.805 60.368 265.805 60.504V61.116C265.997 60.756 266.265 60.484 266.609 60.3C266.953 60.108 267.345 60.012 267.785 60.012ZM272.146 66.06C271.954 66.06 271.794 66 271.666 65.88C271.538 65.752 271.474 65.588 271.474 65.388C271.474 65.188 271.538 65.024 271.666 64.896C271.794 64.768 271.954 64.704 272.146 64.704C272.33 64.704 272.482 64.768 272.602 64.896C272.73 65.024 272.794 65.188 272.794 65.388C272.794 65.588 272.73 65.752 272.602 65.88C272.482 66 272.33 66.06 272.146 66.06ZM274.894 66.06C274.702 66.06 274.542 66 274.414 65.88C274.286 65.752 274.222 65.588 274.222 65.388C274.222 65.188 274.286 65.024 274.414 64.896C274.542 64.768 274.702 64.704 274.894 64.704C275.078 64.704 275.23 64.768 275.35 64.896C275.478 65.024 275.542 65.188 275.542 65.388C275.542 65.588 275.478 65.752 275.35 65.88C275.23 66 275.078 66.06 274.894 66.06ZM277.642 66.06C277.45 66.06 277.29 66 277.162 65.88C277.034 65.752 276.97 65.588 276.97 65.388C276.97 65.188 277.034 65.024 277.162 64.896C277.29 64.768 277.45 64.704 277.642 64.704C277.826 64.704 277.978 64.768 278.098 64.896C278.226 65.024 278.29 65.188 278.29 65.388C278.29 65.588 278.226 65.752 278.098 65.88C277.978 66 277.826 66.06 277.642 66.06Z" fill="#234CAD"/>
<path d="M102.208 44C101.899 44 101.653 43.9147 101.472 43.744C101.301 43.5733 101.216 43.3333 101.216 43.024V33.696C101.216 33.3867 101.301 33.1467 101.472 32.976C101.653 32.8053 101.899 32.72 102.208 32.72H105.376C107.221 32.72 108.651 33.216 109.664 34.208C110.688 35.1893 111.2 36.5707 111.2 38.352C111.2 40.144 110.688 41.536 109.664 42.528C108.651 43.5093 107.221 44 105.376 44H102.208ZM105.248 42.32C107.84 42.32 109.136 40.9973 109.136 38.352C109.136 35.7173 107.84 34.4 105.248 34.4H103.28V42.32H105.248ZM116.495 35.984C117.583 35.984 118.388 36.256 118.911 36.8C119.444 37.3333 119.711 38.1493 119.711 39.248V43.152C119.711 43.44 119.625 43.6693 119.455 43.84C119.284 44 119.049 44.08 118.751 44.08C118.473 44.08 118.244 43.9947 118.063 43.824C117.892 43.6533 117.807 43.4293 117.807 43.152V42.8C117.625 43.216 117.337 43.5413 116.943 43.776C116.559 44.0107 116.111 44.128 115.599 44.128C115.076 44.128 114.601 44.0213 114.174 43.808C113.748 43.5947 113.412 43.3013 113.167 42.928C112.921 42.5547 112.799 42.1387 112.799 41.68C112.799 41.104 112.943 40.6507 113.231 40.32C113.529 39.9893 114.009 39.7493 114.671 39.6C115.332 39.4507 116.244 39.376 117.407 39.376H117.807V39.008C117.807 38.4853 117.695 38.1067 117.471 37.872C117.247 37.6267 116.884 37.504 116.383 37.504C116.073 37.504 115.759 37.552 115.439 37.648C115.119 37.7333 114.74 37.8613 114.303 38.032C114.025 38.1707 113.823 38.24 113.695 38.24C113.503 38.24 113.343 38.1707 113.215 38.032C113.097 37.8933 113.039 37.712 113.039 37.488C113.039 37.3067 113.081 37.152 113.167 37.024C113.263 36.8853 113.417 36.7573 113.631 36.64C114.004 36.4373 114.447 36.2773 114.959 36.16C115.481 36.0427 115.993 35.984 116.495 35.984ZM115.999 42.688C116.532 42.688 116.964 42.512 117.295 42.16C117.636 41.7973 117.807 41.3333 117.807 40.768V40.432H117.519C116.804 40.432 116.249 40.464 115.855 40.528C115.46 40.592 115.177 40.704 115.007 40.864C114.836 41.024 114.751 41.2427 114.751 41.52C114.751 41.8613 114.868 42.144 115.103 42.368C115.348 42.5813 115.647 42.688 115.999 42.688ZM126.287 35.984C127.226 35.984 127.924 36.2507 128.383 36.784C128.842 37.3173 129.071 38.1227 129.071 39.2V43.136C129.071 43.4347 128.98 43.6693 128.799 43.84C128.628 44.0107 128.388 44.096 128.079 44.096C127.77 44.096 127.524 44.0107 127.343 43.84C127.162 43.6693 127.071 43.4347 127.071 43.136V39.312C127.071 38.704 126.954 38.2613 126.719 37.984C126.495 37.7067 126.138 37.568 125.647 37.568C125.071 37.568 124.607 37.7493 124.255 38.112C123.914 38.4747 123.743 38.96 123.743 39.568V43.136C123.743 43.4347 123.652 43.6693 123.471 43.84C123.29 44.0107 123.044 44.096 122.735 44.096C122.426 44.096 122.18 44.0107 121.999 43.84C121.828 43.6693 121.743 43.4347 121.743 43.136V36.944C121.743 36.6667 121.834 36.4427 122.015 36.272C122.196 36.1013 122.442 36.016 122.751 36.016C123.028 36.016 123.252 36.1013 123.423 36.272C123.604 36.432 123.695 36.6453 123.695 36.912V37.344C123.962 36.9067 124.319 36.5707 124.767 36.336C125.215 36.1013 125.722 35.984 126.287 35.984ZM132.095 44.096C131.807 44.096 131.567 44.016 131.375 43.856C131.193 43.6853 131.103 43.4453 131.103 43.136V36.96C131.103 36.6507 131.193 36.416 131.375 36.256C131.567 36.096 131.807 36.016 132.095 36.016C132.383 36.016 132.623 36.096 132.815 36.256C133.007 36.416 133.103 36.6507 133.103 36.96V43.136C133.103 43.4453 133.007 43.6853 132.815 43.856C132.623 44.016 132.383 44.096 132.095 44.096ZM132.095 34.592C131.732 34.592 131.444 34.496 131.231 34.304C131.017 34.1013 130.911 33.84 130.911 33.52C130.911 33.2 131.017 32.944 131.231 32.752C131.444 32.56 131.732 32.464 132.095 32.464C132.447 32.464 132.729 32.56 132.943 32.752C133.167 32.944 133.279 33.2 133.279 33.52C133.279 33.84 133.172 34.1013 132.959 34.304C132.745 34.496 132.457 34.592 132.095 34.592ZM141.357 41.856C141.538 41.856 141.682 41.9253 141.789 42.064C141.906 42.2027 141.965 42.3893 141.965 42.624C141.965 42.9547 141.768 43.232 141.373 43.456C141.01 43.6587 140.6 43.824 140.141 43.952C139.682 44.0693 139.245 44.128 138.829 44.128C137.57 44.128 136.573 43.7653 135.837 43.04C135.101 42.3147 134.733 41.3227 134.733 40.064C134.733 39.264 134.893 38.5547 135.213 37.936C135.533 37.3173 135.981 36.8373 136.557 36.496C137.144 36.1547 137.805 35.984 138.541 35.984C139.245 35.984 139.858 36.1387 140.381 36.448C140.904 36.7573 141.309 37.1947 141.597 37.76C141.885 38.3253 142.029 38.992 142.029 39.76C142.029 40.2187 141.826 40.448 141.421 40.448H136.701C136.765 41.184 136.973 41.728 137.325 42.08C137.677 42.4213 138.189 42.592 138.861 42.592C139.202 42.592 139.501 42.5493 139.757 42.464C140.024 42.3787 140.322 42.2613 140.653 42.112C140.973 41.9413 141.208 41.856 141.357 41.856ZM138.589 37.392C138.045 37.392 137.608 37.5627 137.277 37.904C136.957 38.2453 136.765 38.736 136.701 39.376H140.317C140.296 38.7253 140.136 38.2347 139.837 37.904C139.538 37.5627 139.122 37.392 138.589 37.392ZM144.657 44.096C144.369 44.096 144.129 44.016 143.937 43.856C143.756 43.6853 143.665 43.4453 143.665 43.136V33.584C143.665 33.2747 143.756 33.04 143.937 32.88C144.129 32.72 144.369 32.64 144.657 32.64C144.945 32.64 145.185 32.72 145.377 32.88C145.569 33.04 145.665 33.2747 145.665 33.584V43.136C145.665 43.4453 145.569 43.6853 145.377 43.856C145.185 44.016 144.945 44.096 144.657 44.096ZM153.223 44C152.914 44 152.674 43.9147 152.503 43.744C152.333 43.5733 152.247 43.3387 152.247 43.04V33.664C152.247 33.3547 152.338 33.1093 152.519 32.928C152.711 32.736 152.962 32.64 153.271 32.64C153.591 32.64 153.842 32.736 154.023 32.928C154.215 33.1093 154.311 33.3547 154.311 33.664V42.304H158.807C159.447 42.304 159.767 42.5867 159.767 43.152C159.767 43.7173 159.447 44 158.807 44H153.223ZM166.966 36.016C167.275 36.016 167.521 36.1013 167.702 36.272C167.883 36.4427 167.974 36.672 167.974 36.96V43.168C167.974 43.4453 167.878 43.6693 167.686 43.84C167.505 44.0107 167.265 44.096 166.966 44.096C166.678 44.096 166.449 44.016 166.278 43.856C166.107 43.696 166.022 43.4773 166.022 43.2V42.8C165.777 43.2267 165.446 43.5573 165.03 43.792C164.614 44.016 164.145 44.128 163.622 44.128C161.702 44.128 160.742 43.0507 160.742 40.896V36.96C160.742 36.672 160.833 36.4427 161.014 36.272C161.195 36.1013 161.435 36.016 161.734 36.016C162.043 36.016 162.289 36.1013 162.47 36.272C162.651 36.4427 162.742 36.672 162.742 36.96V40.912C162.742 41.4667 162.854 41.8773 163.078 42.144C163.302 42.4107 163.654 42.544 164.134 42.544C164.689 42.544 165.131 42.3627 165.462 42C165.803 41.6267 165.974 41.136 165.974 40.528V36.96C165.974 36.672 166.065 36.4427 166.246 36.272C166.427 36.1013 166.667 36.016 166.966 36.016ZM177.016 42.448C177.229 42.6507 177.336 42.88 177.336 43.136C177.336 43.3813 177.245 43.6 177.064 43.792C176.893 43.984 176.69 44.08 176.456 44.08C176.221 44.08 176.002 43.984 175.8 43.792L172.056 40.4V43.136C172.056 43.4453 171.96 43.68 171.768 43.84C171.576 44 171.336 44.08 171.048 44.08C170.76 44.08 170.52 44 170.328 43.84C170.146 43.68 170.056 43.4453 170.056 43.136V33.584C170.056 33.2747 170.146 33.04 170.328 32.88C170.52 32.72 170.76 32.64 171.048 32.64C171.336 32.64 171.576 32.72 171.768 32.88C171.96 33.04 172.056 33.2747 172.056 33.584V39.6L175.48 36.32C175.672 36.128 175.89 36.032 176.136 36.032C176.381 36.032 176.594 36.1227 176.776 36.304C176.957 36.4853 177.048 36.6987 177.048 36.944C177.048 37.1893 176.946 37.4133 176.744 37.616L174.232 39.952L177.016 42.448ZM184.716 41.856C184.898 41.856 185.042 41.9253 185.148 42.064C185.266 42.2027 185.324 42.3893 185.324 42.624C185.324 42.9547 185.127 43.232 184.732 43.456C184.37 43.6587 183.959 43.824 183.5 43.952C183.042 44.0693 182.604 44.128 182.188 44.128C180.93 44.128 179.932 43.7653 179.196 43.04C178.46 42.3147 178.092 41.3227 178.092 40.064C178.092 39.264 178.252 38.5547 178.572 37.936C178.892 37.3173 179.34 36.8373 179.916 36.496C180.503 36.1547 181.164 35.984 181.9 35.984C182.604 35.984 183.218 36.1387 183.74 36.448C184.263 36.7573 184.668 37.1947 184.956 37.76C185.244 38.3253 185.388 38.992 185.388 39.76C185.388 40.2187 185.186 40.448 184.78 40.448H180.06C180.124 41.184 180.332 41.728 180.684 42.08C181.036 42.4213 181.548 42.592 182.22 42.592C182.562 42.592 182.86 42.5493 183.116 42.464C183.383 42.3787 183.682 42.2613 184.012 42.112C184.332 41.9413 184.567 41.856 184.716 41.856ZM181.948 37.392C181.404 37.392 180.967 37.5627 180.636 37.904C180.316 38.2453 180.124 38.736 180.06 39.376H183.676C183.655 38.7253 183.495 38.2347 183.196 37.904C182.898 37.5627 182.482 37.392 181.948 37.392Z" fill="#234CAD"/>
</g>
</g>
<g clip-path="url(#clip2_1_17)">
<circle cx="50" cy="50" r="30" fill="#F2F6FF"/>
<path d="M40.484 56C40.136 56 39.86 55.904 39.656 55.712C39.464 55.52 39.368 55.25 39.368 54.902V44.408C39.368 44.06 39.464 43.79 39.656 43.598C39.86 43.406 40.136 43.31 40.484 43.31H44.048C46.124 43.31 47.732 43.868 48.872 44.984C50.024 46.088 50.6 47.642 50.6 49.646C50.6 51.662 50.024 53.228 48.872 54.344C47.732 55.448 46.124 56 44.048 56H40.484ZM43.904 54.11C46.82 54.11 48.278 52.622 48.278 49.646C48.278 46.682 46.82 45.2 43.904 45.2H41.69V54.11H43.904ZM54.0363 56C53.6883 56 53.4183 55.904 53.2263 55.712C53.0343 55.52 52.9383 55.256 52.9383 54.92V44.372C52.9383 44.024 53.0403 43.748 53.2443 43.544C53.4603 43.328 53.7423 43.22 54.0903 43.22C54.4503 43.22 54.7323 43.328 54.9363 43.544C55.1523 43.748 55.2603 44.024 55.2603 44.372V54.092H60.3183C61.0383 54.092 61.3983 54.41 61.3983 55.046C61.3983 55.682 61.0383 56 60.3183 56H54.0363Z" fill="#234CAD"/>
</g>
<g clip-path="url(#clip3_1_17)">
<circle cx="72" cy="28" r="7" fill="#234CAD" stroke="white" stroke-width="2"/>
<path d="M73.006 29.376C73.246 29.376 73.366 29.478 73.366 29.682C73.366 29.894 73.246 30 73.006 30H70.978C70.734 30 70.612 29.894 70.612 29.682C70.612 29.478 70.734 29.376 70.978 29.376H71.602V26.64L71.026 26.994C70.97 27.026 70.92 27.042 70.876 27.042C70.792 27.042 70.72 27.006 70.66 26.934C70.604 26.862 70.576 26.782 70.576 26.694C70.576 26.578 70.628 26.488 70.732 26.424L71.662 25.848C71.782 25.776 71.896 25.74 72.004 25.74C72.116 25.74 72.206 25.774 72.274 25.842C72.342 25.91 72.376 26.004 72.376 26.124V29.376H73.006Z" fill="#F7FAFC"/>
</g>
</g>
<defs>
<clipPath id="clip0_1_17">
<rect width="230" height="45" fill="white" transform="translate(100 28)"/>
</clipPath>
<clipPath id="clip1_1_17">
<rect width="180" height="45" fill="white" transform="translate(100 28)"/>
</clipPath>
<clipPath id="clip2_1_17">
<rect width="60" height="60" fill="white" transform="translate(20 20)"/>
</clipPath>
<clipPath id="clip3_1_17">
<rect width="16" height="16" fill="white" transform="translate(64 20)"/>
</clipPath>
</defs>
</svg>
