<svg width="438" height="125" viewBox="0 0 438 125" fill="none" xmlns="http://www.w3.org/2000/svg">
<rect width="438" height="125" rx="25" fill="white"/>
<g clip-path="url(#clip0_0_1)">
<path opacity="0.75" d="M372.904 45.172C373.048 45.172 373.16 45.208 373.24 45.28C373.32 45.352 373.36 45.452 373.36 45.58C373.36 45.716 373.32 45.82 373.24 45.892C373.168 45.964 373.056 46 372.904 46H368.932C368.78 46 368.664 45.964 368.584 45.892C368.512 45.82 368.476 45.716 368.476 45.58C368.476 45.452 368.516 45.352 368.596 45.28C368.676 45.208 368.788 45.172 368.932 45.172H370.42V38.74L369.112 39.592C369.048 39.632 368.984 39.652 368.92 39.652C368.808 39.652 368.708 39.6 368.62 39.496C368.54 39.392 368.5 39.28 368.5 39.16C368.5 38.992 368.564 38.872 368.692 38.8L370.516 37.612C370.652 37.524 370.792 37.48 370.936 37.48C371.072 37.48 371.184 37.524 371.272 37.612C371.36 37.7 371.404 37.824 371.404 37.984V45.172H372.904ZM375.575 41.38C375.383 41.38 375.223 41.32 375.095 41.2C374.967 41.072 374.903 40.908 374.903 40.708C374.903 40.508 374.967 40.348 375.095 40.228C375.223 40.1 375.383 40.036 375.575 40.036C375.759 40.036 375.911 40.1 376.031 40.228C376.159 40.348 376.223 40.508 376.223 40.708C376.223 40.908 376.159 41.072 376.031 41.2C375.911 41.32 375.759 41.38 375.575 41.38ZM375.575 46.06C375.383 46.06 375.223 46 375.095 45.88C374.967 45.752 374.903 45.588 374.903 45.388C374.903 45.188 374.967 45.024 375.095 44.896C375.223 44.768 375.383 44.704 375.575 44.704C375.759 44.704 375.911 44.768 376.031 44.896C376.159 45.024 376.223 45.188 376.223 45.388C376.223 45.588 376.159 45.752 376.031 45.88C375.911 46 375.759 46.06 375.575 46.06ZM380.538 46.096C379.57 46.096 378.834 45.728 378.33 44.992C377.826 44.256 377.574 43.184 377.574 41.776C377.574 40.36 377.826 39.284 378.33 38.548C378.834 37.812 379.57 37.444 380.538 37.444C381.506 37.444 382.242 37.812 382.746 38.548C383.25 39.276 383.502 40.348 383.502 41.764C383.502 43.18 383.25 44.256 382.746 44.992C382.242 45.728 381.506 46.096 380.538 46.096ZM380.538 45.268C381.21 45.268 381.706 44.984 382.026 44.416C382.346 43.848 382.506 42.964 382.506 41.764C382.506 40.556 382.346 39.672 382.026 39.112C381.714 38.552 381.218 38.272 380.538 38.272C379.866 38.272 379.37 38.556 379.05 39.124C378.73 39.684 378.57 40.564 378.57 41.764C378.57 42.964 378.73 43.848 379.05 44.416C379.37 44.984 379.866 45.268 380.538 45.268ZM388.861 41.656C389.373 41.8 389.761 42.048 390.025 42.4C390.297 42.752 390.433 43.188 390.433 43.708C390.433 44.444 390.185 45.024 389.689 45.448C389.193 45.872 388.517 46.084 387.661 46.084C387.141 46.084 386.641 45.996 386.161 45.82C385.689 45.644 385.289 45.404 384.961 45.1C384.833 44.98 384.769 44.844 384.769 44.692C384.769 44.572 384.801 44.472 384.865 44.392C384.929 44.312 385.005 44.272 385.093 44.272C385.205 44.272 385.317 44.316 385.429 44.404C385.797 44.7 386.157 44.916 386.509 45.052C386.861 45.188 387.241 45.256 387.649 45.256C388.241 45.256 388.689 45.12 388.993 44.848C389.305 44.576 389.461 44.184 389.461 43.672C389.461 42.64 388.813 42.124 387.517 42.124H386.881C386.753 42.124 386.649 42.084 386.569 42.004C386.497 41.916 386.461 41.816 386.461 41.704C386.461 41.592 386.497 41.496 386.569 41.416C386.649 41.336 386.753 41.296 386.881 41.296H387.325C387.949 41.296 388.429 41.16 388.765 40.888C389.101 40.608 389.269 40.208 389.269 39.688C389.269 39.232 389.133 38.884 388.861 38.644C388.589 38.396 388.205 38.272 387.709 38.272C387.333 38.272 386.969 38.344 386.617 38.488C386.265 38.624 385.913 38.836 385.561 39.124C385.449 39.212 385.337 39.256 385.225 39.256C385.137 39.256 385.061 39.216 384.997 39.136C384.933 39.056 384.901 38.956 384.901 38.836C384.901 38.684 384.965 38.548 385.093 38.428C385.421 38.124 385.817 37.884 386.281 37.708C386.753 37.532 387.237 37.444 387.733 37.444C388.501 37.444 389.113 37.64 389.569 38.032C390.025 38.424 390.249 38.952 390.241 39.616C390.233 40.096 390.105 40.516 389.857 40.876C389.617 41.236 389.285 41.496 388.861 41.656ZM395.958 46.06C395.806 46.06 395.686 46.016 395.598 45.928C395.51 45.832 395.466 45.708 395.466 45.556V38.02C395.466 37.876 395.51 37.76 395.598 37.672C395.694 37.584 395.818 37.54 395.97 37.54H398.814C399.702 37.54 400.39 37.756 400.878 38.188C401.374 38.62 401.622 39.232 401.622 40.024C401.622 40.816 401.374 41.432 400.878 41.872C400.382 42.312 399.694 42.532 398.814 42.532H396.45V45.556C396.45 45.708 396.406 45.832 396.318 45.928C396.23 46.016 396.11 46.06 395.958 46.06ZM398.718 41.716C400.006 41.716 400.65 41.152 400.65 40.024C400.65 38.912 400.006 38.356 398.718 38.356H396.45V41.716H398.718ZM410.712 37.48C410.864 37.48 410.98 37.528 411.06 37.624C411.148 37.712 411.192 37.832 411.192 37.984V45.58C411.192 45.724 411.152 45.84 411.072 45.928C410.992 46.016 410.88 46.06 410.736 46.06C410.592 46.06 410.484 46.016 410.412 45.928C410.34 45.84 410.304 45.724 410.304 45.58V39.448L407.7 44.44C407.588 44.672 407.424 44.788 407.208 44.788C407 44.788 406.836 44.672 406.716 44.44L404.1 39.508V45.58C404.1 45.724 404.06 45.84 403.98 45.928C403.908 46.016 403.8 46.06 403.656 46.06C403.512 46.06 403.4 46.016 403.32 45.928C403.24 45.84 403.2 45.724 403.2 45.58V37.984C403.2 37.832 403.244 37.712 403.332 37.624C403.42 37.528 403.54 37.48 403.692 37.48C403.892 37.48 404.052 37.596 404.172 37.828L407.22 43.672L410.232 37.828C410.296 37.7 410.364 37.612 410.436 37.564C410.516 37.508 410.608 37.48 410.712 37.48Z" fill="#234CAD"/>
<g clip-path="url(#clip1_0_1)">
<path d="M126.92 82.075C126.73 82.075 126.58 82.02 126.47 81.91C126.36 81.79 126.305 81.635 126.305 81.445V71.98C126.305 71.79 126.36 71.64 126.47 71.53C126.58 71.41 126.73 71.35 126.92 71.35C127.11 71.35 127.26 71.41 127.37 71.53C127.48 71.64 127.535 71.79 127.535 71.98V81.445C127.535 81.635 127.48 81.79 127.37 81.91C127.26 82.02 127.11 82.075 126.92 82.075ZM137.52 74.515C138.38 74.515 139.03 74.76 139.47 75.25C139.91 75.73 140.13 76.45 140.13 77.41V81.475C140.13 81.665 140.075 81.815 139.965 81.925C139.855 82.025 139.71 82.075 139.53 82.075C139.34 82.075 139.19 82.025 139.08 81.925C138.97 81.815 138.915 81.665 138.915 81.475V77.44C138.915 76.79 138.78 76.31 138.51 76C138.25 75.69 137.83 75.535 137.25 75.535C136.58 75.535 136.045 75.74 135.645 76.15C135.245 76.56 135.045 77.115 135.045 77.815V81.475C135.045 81.665 134.99 81.815 134.88 81.925C134.78 82.025 134.635 82.075 134.445 82.075C134.255 82.075 134.105 82.025 133.995 81.925C133.885 81.815 133.83 81.665 133.83 81.475V71.935C133.83 71.765 133.885 71.625 133.995 71.515C134.115 71.405 134.265 71.35 134.445 71.35C134.635 71.35 134.78 71.405 134.88 71.515C134.99 71.615 135.045 71.755 135.045 71.935V75.865C135.285 75.425 135.62 75.09 136.05 74.86C136.48 74.63 136.97 74.515 137.52 74.515ZM145.34 74.515C147.17 74.515 148.085 75.475 148.085 77.395V81.475C148.085 81.655 148.03 81.8 147.92 81.91C147.82 82.02 147.68 82.075 147.5 82.075C147.32 82.075 147.175 82.02 147.065 81.91C146.955 81.8 146.9 81.655 146.9 81.475V80.755C146.71 81.185 146.42 81.52 146.03 81.76C145.64 81.99 145.19 82.105 144.68 82.105C144.21 82.105 143.775 82.01 143.375 81.82C142.985 81.63 142.675 81.365 142.445 81.025C142.215 80.685 142.1 80.31 142.1 79.9C142.1 79.35 142.24 78.925 142.52 78.625C142.8 78.315 143.26 78.095 143.9 77.965C144.54 77.825 145.43 77.755 146.57 77.755H146.9V77.26C146.9 76.66 146.775 76.22 146.525 75.94C146.285 75.66 145.89 75.52 145.34 75.52C144.66 75.52 143.97 75.705 143.27 76.075C143 76.245 142.81 76.33 142.7 76.33C142.58 76.33 142.48 76.285 142.4 76.195C142.32 76.105 142.28 75.99 142.28 75.85C142.28 75.71 142.32 75.59 142.4 75.49C142.49 75.38 142.63 75.27 142.82 75.16C143.17 74.96 143.565 74.805 144.005 74.695C144.455 74.575 144.9 74.515 145.34 74.515ZM144.845 81.145C145.445 81.145 145.935 80.945 146.315 80.545C146.705 80.135 146.9 79.61 146.9 78.97V78.535H146.63C145.75 78.535 145.08 78.575 144.62 78.655C144.16 78.725 143.83 78.85 143.63 79.03C143.44 79.2 143.345 79.455 143.345 79.795C143.345 80.185 143.485 80.51 143.765 80.77C144.055 81.02 144.415 81.145 144.845 81.145ZM155.575 74.92C155.685 74.68 155.86 74.56 156.1 74.56C156.25 74.56 156.385 74.61 156.505 74.71C156.625 74.81 156.685 74.935 156.685 75.085C156.685 75.175 156.665 75.255 156.625 75.325L153.7 81.625C153.64 81.755 153.55 81.86 153.43 81.94C153.31 82.01 153.18 82.045 153.04 82.045C152.91 82.045 152.785 82.01 152.665 81.94C152.545 81.86 152.45 81.755 152.38 81.625L149.47 75.325C149.43 75.255 149.41 75.18 149.41 75.1C149.41 74.95 149.475 74.82 149.605 74.71C149.745 74.6 149.895 74.545 150.055 74.545C150.155 74.545 150.25 74.575 150.34 74.635C150.44 74.695 150.515 74.78 150.565 74.89L153.07 80.515L155.575 74.92ZM163.582 80.305C163.692 80.305 163.787 80.35 163.867 80.44C163.947 80.53 163.987 80.645 163.987 80.785C163.987 81.035 163.812 81.265 163.462 81.475C163.102 81.685 162.722 81.845 162.322 81.955C161.922 82.055 161.532 82.105 161.152 82.105C160.022 82.105 159.127 81.77 158.467 81.1C157.817 80.43 157.492 79.505 157.492 78.325C157.492 77.575 157.637 76.915 157.927 76.345C158.217 75.765 158.622 75.315 159.142 74.995C159.672 74.675 160.272 74.515 160.942 74.515C161.892 74.515 162.647 74.825 163.207 75.445C163.767 76.065 164.047 76.905 164.047 77.965C164.047 78.165 164.007 78.31 163.927 78.4C163.847 78.49 163.717 78.535 163.537 78.535H158.707C158.797 80.255 159.612 81.115 161.152 81.115C161.542 81.115 161.877 81.065 162.157 80.965C162.437 80.855 162.737 80.71 163.057 80.53C163.317 80.38 163.492 80.305 163.582 80.305ZM160.957 75.46C160.317 75.46 159.802 75.66 159.412 76.06C159.032 76.46 158.807 77.025 158.737 77.755H162.982C162.962 77.015 162.777 76.45 162.427 76.06C162.077 75.66 161.587 75.46 160.957 75.46ZM172.164 82.105C171.704 82.105 171.264 82.05 170.844 81.94C170.434 81.83 170.069 81.675 169.749 81.475C169.569 81.355 169.439 81.245 169.359 81.145C169.289 81.035 169.254 80.905 169.254 80.755C169.254 80.625 169.289 80.52 169.359 80.44C169.439 80.35 169.539 80.305 169.659 80.305C169.779 80.305 169.954 80.38 170.184 80.53C170.484 80.71 170.779 80.855 171.069 80.965C171.369 81.065 171.739 81.115 172.179 81.115C172.719 81.115 173.139 81.02 173.439 80.83C173.739 80.64 173.889 80.365 173.889 80.005C173.889 79.785 173.834 79.61 173.724 79.48C173.614 79.34 173.424 79.22 173.154 79.12C172.884 79.01 172.489 78.9 171.969 78.79C171.089 78.6 170.459 78.345 170.079 78.025C169.699 77.705 169.509 77.27 169.509 76.72C169.509 76.29 169.629 75.91 169.869 75.58C170.109 75.25 170.439 74.99 170.859 74.8C171.289 74.61 171.774 74.515 172.314 74.515C172.704 74.515 173.079 74.57 173.439 74.68C173.809 74.78 174.134 74.925 174.414 75.115C174.754 75.355 174.924 75.605 174.924 75.865C174.924 75.995 174.884 76.105 174.804 76.195C174.724 76.285 174.629 76.33 174.519 76.33C174.399 76.33 174.219 76.245 173.979 76.075C173.699 75.895 173.434 75.755 173.184 75.655C172.934 75.555 172.624 75.505 172.254 75.505C171.784 75.505 171.404 75.61 171.114 75.82C170.834 76.03 170.694 76.31 170.694 76.66C170.694 76.88 170.744 77.06 170.844 77.2C170.954 77.33 171.129 77.45 171.369 77.56C171.619 77.66 171.974 77.76 172.434 77.86C173.114 78.01 173.639 78.175 174.009 78.355C174.389 78.535 174.659 78.755 174.819 79.015C174.979 79.275 175.059 79.605 175.059 80.005C175.059 80.635 174.794 81.145 174.264 81.535C173.734 81.915 173.034 82.105 172.164 82.105ZM182.566 80.305C182.676 80.305 182.771 80.35 182.851 80.44C182.931 80.53 182.971 80.645 182.971 80.785C182.971 81.035 182.796 81.265 182.446 81.475C182.086 81.685 181.706 81.845 181.306 81.955C180.906 82.055 180.516 82.105 180.136 82.105C179.006 82.105 178.111 81.77 177.451 81.1C176.801 80.43 176.476 79.505 176.476 78.325C176.476 77.575 176.621 76.915 176.911 76.345C177.201 75.765 177.606 75.315 178.126 74.995C178.656 74.675 179.256 74.515 179.926 74.515C180.876 74.515 181.631 74.825 182.191 75.445C182.751 76.065 183.031 76.905 183.031 77.965C183.031 78.165 182.991 78.31 182.911 78.4C182.831 78.49 182.701 78.535 182.521 78.535H177.691C177.781 80.255 178.596 81.115 180.136 81.115C180.526 81.115 180.861 81.065 181.141 80.965C181.421 80.855 181.721 80.71 182.041 80.53C182.301 80.38 182.476 80.305 182.566 80.305ZM179.941 75.46C179.301 75.46 178.786 75.66 178.396 76.06C178.016 76.46 177.791 77.025 177.721 77.755H181.966C181.946 77.015 181.761 76.45 181.411 76.06C181.061 75.66 180.571 75.46 179.941 75.46ZM190.476 80.305C190.586 80.305 190.681 80.35 190.761 80.44C190.841 80.53 190.881 80.645 190.881 80.785C190.881 81.035 190.706 81.265 190.356 81.475C189.996 81.685 189.616 81.845 189.216 81.955C188.816 82.055 188.426 82.105 188.046 82.105C186.916 82.105 186.021 81.77 185.361 81.1C184.711 80.43 184.386 79.505 184.386 78.325C184.386 77.575 184.531 76.915 184.821 76.345C185.111 75.765 185.516 75.315 186.036 74.995C186.566 74.675 187.166 74.515 187.836 74.515C188.786 74.515 189.541 74.825 190.101 75.445C190.661 76.065 190.941 76.905 190.941 77.965C190.941 78.165 190.901 78.31 190.821 78.4C190.741 78.49 190.611 78.535 190.431 78.535H185.601C185.691 80.255 186.506 81.115 188.046 81.115C188.436 81.115 188.771 81.065 189.051 80.965C189.331 80.855 189.631 80.71 189.951 80.53C190.211 80.38 190.386 80.305 190.476 80.305ZM187.851 75.46C187.211 75.46 186.696 75.66 186.306 76.06C185.926 76.46 185.701 77.025 185.631 77.755H189.876C189.856 77.015 189.671 76.45 189.321 76.06C188.971 75.66 188.481 75.46 187.851 75.46ZM196.406 74.515C198.156 74.515 199.031 75.48 199.031 77.41V81.475C199.031 81.665 198.976 81.815 198.866 81.925C198.766 82.025 198.621 82.075 198.431 82.075C198.241 82.075 198.091 82.025 197.981 81.925C197.871 81.815 197.816 81.665 197.816 81.475V77.485C197.816 76.805 197.681 76.31 197.411 76C197.151 75.69 196.731 75.535 196.151 75.535C195.481 75.535 194.946 75.74 194.546 76.15C194.146 76.56 193.946 77.115 193.946 77.815V81.475C193.946 81.665 193.891 81.815 193.781 81.925C193.681 82.025 193.536 82.075 193.346 82.075C193.156 82.075 193.006 82.025 192.896 81.925C192.786 81.815 192.731 81.665 192.731 81.475V75.145C192.731 74.965 192.786 74.82 192.896 74.71C193.006 74.6 193.156 74.545 193.346 74.545C193.526 74.545 193.666 74.6 193.766 74.71C193.876 74.82 193.931 74.96 193.931 75.13V75.895C194.171 75.445 194.506 75.105 194.936 74.875C195.366 74.635 195.856 74.515 196.406 74.515ZM208.499 81.115C208.849 81.145 209.024 81.305 209.024 81.595C209.024 81.765 208.959 81.895 208.829 81.985C208.709 82.065 208.524 82.095 208.274 82.075L207.869 82.045C207.069 81.985 206.479 81.745 206.099 81.325C205.719 80.905 205.529 80.27 205.529 79.42V75.655H204.524C204.354 75.655 204.219 75.615 204.119 75.535C204.029 75.445 203.984 75.33 203.984 75.19C203.984 75.04 204.029 74.92 204.119 74.83C204.219 74.74 204.354 74.695 204.524 74.695H205.529V73C205.529 72.81 205.584 72.665 205.694 72.565C205.804 72.455 205.954 72.4 206.144 72.4C206.324 72.4 206.469 72.455 206.579 72.565C206.689 72.665 206.744 72.81 206.744 73V74.695H208.409C208.569 74.695 208.694 74.74 208.784 74.83C208.884 74.92 208.934 75.04 208.934 75.19C208.934 75.33 208.884 75.445 208.784 75.535C208.694 75.615 208.569 75.655 208.409 75.655H206.744V79.48C206.744 80.03 206.854 80.43 207.074 80.68C207.304 80.92 207.644 81.055 208.094 81.085L208.499 81.115ZM213.912 74.515C214.772 74.515 215.422 74.76 215.862 75.25C216.302 75.73 216.522 76.45 216.522 77.41V81.475C216.522 81.665 216.467 81.815 216.357 81.925C216.247 82.025 216.102 82.075 215.922 82.075C215.732 82.075 215.582 82.025 215.472 81.925C215.362 81.815 215.307 81.665 215.307 81.475V77.44C215.307 76.79 215.172 76.31 214.902 76C214.642 75.69 214.222 75.535 213.642 75.535C212.972 75.535 212.437 75.74 212.037 76.15C211.637 76.56 211.437 77.115 211.437 77.815V81.475C211.437 81.665 211.382 81.815 211.272 81.925C211.172 82.025 211.027 82.075 210.837 82.075C210.647 82.075 210.497 82.025 210.387 81.925C210.277 81.815 210.222 81.665 210.222 81.475V71.935C210.222 71.765 210.277 71.625 210.387 71.515C210.507 71.405 210.657 71.35 210.837 71.35C211.027 71.35 211.172 71.405 211.272 71.515C211.382 71.615 211.437 71.755 211.437 71.935V75.865C211.677 75.425 212.012 75.09 212.442 74.86C212.872 74.63 213.362 74.515 213.912 74.515ZM221.732 74.515C223.562 74.515 224.477 75.475 224.477 77.395V81.475C224.477 81.655 224.422 81.8 224.312 81.91C224.212 82.02 224.072 82.075 223.892 82.075C223.712 82.075 223.567 82.02 223.457 81.91C223.347 81.8 223.292 81.655 223.292 81.475V80.755C223.102 81.185 222.812 81.52 222.422 81.76C222.032 81.99 221.582 82.105 221.072 82.105C220.602 82.105 220.167 82.01 219.767 81.82C219.377 81.63 219.067 81.365 218.837 81.025C218.607 80.685 218.492 80.31 218.492 79.9C218.492 79.35 218.632 78.925 218.912 78.625C219.192 78.315 219.652 78.095 220.292 77.965C220.932 77.825 221.822 77.755 222.962 77.755H223.292V77.26C223.292 76.66 223.167 76.22 222.917 75.94C222.677 75.66 222.282 75.52 221.732 75.52C221.052 75.52 220.362 75.705 219.662 76.075C219.392 76.245 219.202 76.33 219.092 76.33C218.972 76.33 218.872 76.285 218.792 76.195C218.712 76.105 218.672 75.99 218.672 75.85C218.672 75.71 218.712 75.59 218.792 75.49C218.882 75.38 219.022 75.27 219.212 75.16C219.562 74.96 219.957 74.805 220.397 74.695C220.847 74.575 221.292 74.515 221.732 74.515ZM221.237 81.145C221.837 81.145 222.327 80.945 222.707 80.545C223.097 80.135 223.292 79.61 223.292 78.97V78.535H223.022C222.142 78.535 221.472 78.575 221.012 78.655C220.552 78.725 220.222 78.85 220.022 79.03C219.832 79.2 219.737 79.455 219.737 79.795C219.737 80.185 219.877 80.51 220.157 80.77C220.447 81.02 220.807 81.145 221.237 81.145ZM230.076 81.115C230.426 81.145 230.601 81.305 230.601 81.595C230.601 81.765 230.536 81.895 230.406 81.985C230.286 82.065 230.101 82.095 229.851 82.075L229.446 82.045C228.646 81.985 228.056 81.745 227.676 81.325C227.296 80.905 227.106 80.27 227.106 79.42V75.655H226.101C225.931 75.655 225.796 75.615 225.696 75.535C225.606 75.445 225.561 75.33 225.561 75.19C225.561 75.04 225.606 74.92 225.696 74.83C225.796 74.74 225.931 74.695 226.101 74.695H227.106V73C227.106 72.81 227.161 72.665 227.271 72.565C227.381 72.455 227.531 72.4 227.721 72.4C227.901 72.4 228.046 72.455 228.156 72.565C228.266 72.665 228.321 72.81 228.321 73V74.695H229.986C230.146 74.695 230.271 74.74 230.361 74.83C230.461 74.92 230.511 75.04 230.511 75.19C230.511 75.33 230.461 75.445 230.361 75.535C230.271 75.615 230.146 75.655 229.986 75.655H228.321V79.48C228.321 80.03 228.431 80.43 228.651 80.68C228.881 80.92 229.221 81.055 229.671 81.085L230.076 81.115ZM240.931 74.92C241.041 74.68 241.216 74.56 241.456 74.56C241.606 74.56 241.741 74.61 241.861 74.71C241.981 74.81 242.041 74.935 242.041 75.085C242.041 75.175 242.021 75.255 241.981 75.325L237.766 84.415C237.716 84.525 237.641 84.61 237.541 84.67C237.451 84.73 237.356 84.76 237.256 84.76C237.106 84.76 236.971 84.71 236.851 84.61C236.741 84.52 236.686 84.4 236.686 84.25C236.686 84.17 236.706 84.09 236.746 84.01L237.796 81.745L234.826 75.325C234.786 75.255 234.766 75.18 234.766 75.1C234.766 74.95 234.831 74.82 234.961 74.71C235.101 74.6 235.251 74.545 235.411 74.545C235.511 74.545 235.606 74.575 235.696 74.635C235.796 74.695 235.871 74.78 235.921 74.89L238.426 80.515L240.931 74.92ZM246.313 82.105C245.623 82.105 245.013 81.95 244.483 81.64C243.963 81.33 243.558 80.89 243.268 80.32C242.988 79.74 242.848 79.07 242.848 78.31C242.848 77.55 242.988 76.885 243.268 76.315C243.558 75.735 243.963 75.29 244.483 74.98C245.013 74.67 245.623 74.515 246.313 74.515C247.003 74.515 247.613 74.67 248.143 74.98C248.673 75.29 249.078 75.735 249.358 76.315C249.648 76.885 249.793 77.55 249.793 78.31C249.793 79.07 249.648 79.74 249.358 80.32C249.078 80.89 248.673 81.33 248.143 81.64C247.613 81.95 247.003 82.105 246.313 82.105ZM246.313 81.1C247.033 81.1 247.583 80.865 247.963 80.395C248.353 79.915 248.548 79.22 248.548 78.31C248.548 77.42 248.353 76.735 247.963 76.255C247.573 75.765 247.023 75.52 246.313 75.52C245.603 75.52 245.053 75.765 244.663 76.255C244.273 76.735 244.078 77.42 244.078 78.31C244.078 79.21 244.268 79.9 244.648 80.38C245.038 80.86 245.593 81.1 246.313 81.1ZM257.154 74.545C257.344 74.545 257.489 74.6 257.589 74.71C257.699 74.82 257.754 74.965 257.754 75.145V81.49C257.754 81.66 257.699 81.8 257.589 81.91C257.489 82.02 257.344 82.075 257.154 82.075C256.974 82.075 256.829 82.025 256.719 81.925C256.619 81.815 256.569 81.675 256.569 81.505V80.755C256.339 81.195 256.014 81.53 255.594 81.76C255.184 81.99 254.719 82.105 254.199 82.105C253.329 82.105 252.674 81.865 252.234 81.385C251.794 80.895 251.574 80.175 251.574 79.225V75.145C251.574 74.965 251.629 74.82 251.739 74.71C251.849 74.6 251.999 74.545 252.189 74.545C252.379 74.545 252.524 74.6 252.624 74.71C252.734 74.82 252.789 74.965 252.789 75.145V79.195C252.789 79.845 252.919 80.325 253.179 80.635C253.439 80.935 253.849 81.085 254.409 81.085C255.049 81.085 255.564 80.88 255.954 80.47C256.344 80.05 256.539 79.5 256.539 78.82V75.145C256.539 74.965 256.594 74.82 256.704 74.71C256.814 74.6 256.964 74.545 257.154 74.545ZM266.864 74.515C268.694 74.515 269.609 75.475 269.609 77.395V81.475C269.609 81.655 269.554 81.8 269.444 81.91C269.344 82.02 269.204 82.075 269.024 82.075C268.844 82.075 268.699 82.02 268.589 81.91C268.479 81.8 268.424 81.655 268.424 81.475V80.755C268.234 81.185 267.944 81.52 267.554 81.76C267.164 81.99 266.714 82.105 266.204 82.105C265.734 82.105 265.299 82.01 264.899 81.82C264.509 81.63 264.199 81.365 263.969 81.025C263.739 80.685 263.624 80.31 263.624 79.9C263.624 79.35 263.764 78.925 264.044 78.625C264.324 78.315 264.784 78.095 265.424 77.965C266.064 77.825 266.954 77.755 268.094 77.755H268.424V77.26C268.424 76.66 268.299 76.22 268.049 75.94C267.809 75.66 267.414 75.52 266.864 75.52C266.184 75.52 265.494 75.705 264.794 76.075C264.524 76.245 264.334 76.33 264.224 76.33C264.104 76.33 264.004 76.285 263.924 76.195C263.844 76.105 263.804 75.99 263.804 75.85C263.804 75.71 263.844 75.59 263.924 75.49C264.014 75.38 264.154 75.27 264.344 75.16C264.694 74.96 265.089 74.805 265.529 74.695C265.979 74.575 266.424 74.515 266.864 74.515ZM266.369 81.145C266.969 81.145 267.459 80.945 267.839 80.545C268.229 80.135 268.424 79.61 268.424 78.97V78.535H268.154C267.274 78.535 266.604 78.575 266.144 78.655C265.684 78.725 265.354 78.85 265.154 79.03C264.964 79.2 264.869 79.455 264.869 79.795C264.869 80.185 265.009 80.51 265.289 80.77C265.579 81.02 265.939 81.145 266.369 81.145ZM275.448 74.545C275.868 74.515 276.078 74.685 276.078 75.055C276.078 75.215 276.033 75.345 275.943 75.445C275.853 75.535 275.698 75.59 275.478 75.61L275.028 75.655C274.358 75.715 273.858 75.955 273.528 76.375C273.208 76.785 273.048 77.27 273.048 77.83V81.475C273.048 81.675 272.993 81.825 272.883 81.925C272.773 82.025 272.628 82.075 272.448 82.075C272.268 82.075 272.118 82.025 271.998 81.925C271.888 81.815 271.833 81.665 271.833 81.475V75.145C271.833 74.955 271.893 74.81 272.013 74.71C272.133 74.6 272.278 74.545 272.448 74.545C272.608 74.545 272.743 74.6 272.853 74.71C272.963 74.81 273.018 74.95 273.018 75.13V75.97C273.228 75.53 273.523 75.195 273.903 74.965C274.293 74.735 274.738 74.6 275.238 74.56L275.448 74.545ZM282.63 80.305C282.74 80.305 282.835 80.35 282.915 80.44C282.995 80.53 283.035 80.645 283.035 80.785C283.035 81.035 282.86 81.265 282.51 81.475C282.15 81.685 281.77 81.845 281.37 81.955C280.97 82.055 280.58 82.105 280.2 82.105C279.07 82.105 278.175 81.77 277.515 81.1C276.865 80.43 276.54 79.505 276.54 78.325C276.54 77.575 276.685 76.915 276.975 76.345C277.265 75.765 277.67 75.315 278.19 74.995C278.72 74.675 279.32 74.515 279.99 74.515C280.94 74.515 281.695 74.825 282.255 75.445C282.815 76.065 283.095 76.905 283.095 77.965C283.095 78.165 283.055 78.31 282.975 78.4C282.895 78.49 282.765 78.535 282.585 78.535H277.755C277.845 80.255 278.66 81.115 280.2 81.115C280.59 81.115 280.925 81.065 281.205 80.965C281.485 80.855 281.785 80.71 282.105 80.53C282.365 80.38 282.54 80.305 282.63 80.305ZM280.005 75.46C279.365 75.46 278.85 75.66 278.46 76.06C278.08 76.46 277.855 77.025 277.785 77.755H282.03C282.01 77.015 281.825 76.45 281.475 76.06C281.125 75.66 280.635 75.46 280.005 75.46ZM291.737 74.515C293.567 74.515 294.482 75.475 294.482 77.395V81.475C294.482 81.655 294.427 81.8 294.317 81.91C294.217 82.02 294.077 82.075 293.897 82.075C293.717 82.075 293.572 82.02 293.462 81.91C293.352 81.8 293.297 81.655 293.297 81.475V80.755C293.107 81.185 292.817 81.52 292.427 81.76C292.037 81.99 291.587 82.105 291.077 82.105C290.607 82.105 290.172 82.01 289.772 81.82C289.382 81.63 289.072 81.365 288.842 81.025C288.612 80.685 288.497 80.31 288.497 79.9C288.497 79.35 288.637 78.925 288.917 78.625C289.197 78.315 289.657 78.095 290.297 77.965C290.937 77.825 291.827 77.755 292.967 77.755H293.297V77.26C293.297 76.66 293.172 76.22 292.922 75.94C292.682 75.66 292.287 75.52 291.737 75.52C291.057 75.52 290.367 75.705 289.667 76.075C289.397 76.245 289.207 76.33 289.097 76.33C288.977 76.33 288.877 76.285 288.797 76.195C288.717 76.105 288.677 75.99 288.677 75.85C288.677 75.71 288.717 75.59 288.797 75.49C288.887 75.38 289.027 75.27 289.217 75.16C289.567 74.96 289.962 74.805 290.402 74.695C290.852 74.575 291.297 74.515 291.737 74.515ZM291.242 81.145C291.842 81.145 292.332 80.945 292.712 80.545C293.102 80.135 293.297 79.61 293.297 78.97V78.535H293.027C292.147 78.535 291.477 78.575 291.017 78.655C290.557 78.725 290.227 78.85 290.027 79.03C289.837 79.2 289.742 79.455 289.742 79.795C289.742 80.185 289.882 80.51 290.162 80.77C290.452 81.02 290.812 81.145 291.242 81.145ZM301.971 74.92C302.081 74.68 302.256 74.56 302.496 74.56C302.646 74.56 302.781 74.61 302.901 74.71C303.021 74.81 303.081 74.935 303.081 75.085C303.081 75.175 303.061 75.255 303.021 75.325L300.096 81.625C300.036 81.755 299.946 81.86 299.826 81.94C299.706 82.01 299.576 82.045 299.436 82.045C299.306 82.045 299.181 82.01 299.061 81.94C298.941 81.86 298.846 81.755 298.776 81.625L295.866 75.325C295.826 75.255 295.806 75.18 295.806 75.1C295.806 74.95 295.871 74.82 296.001 74.71C296.141 74.6 296.291 74.545 296.451 74.545C296.551 74.545 296.646 74.575 296.736 74.635C296.836 74.695 296.911 74.78 296.961 74.89L299.466 80.515L301.971 74.92ZM307.264 74.515C309.094 74.515 310.009 75.475 310.009 77.395V81.475C310.009 81.655 309.954 81.8 309.844 81.91C309.744 82.02 309.604 82.075 309.424 82.075C309.244 82.075 309.099 82.02 308.989 81.91C308.879 81.8 308.824 81.655 308.824 81.475V80.755C308.634 81.185 308.344 81.52 307.954 81.76C307.564 81.99 307.114 82.105 306.604 82.105C306.134 82.105 305.699 82.01 305.299 81.82C304.909 81.63 304.599 81.365 304.369 81.025C304.139 80.685 304.024 80.31 304.024 79.9C304.024 79.35 304.164 78.925 304.444 78.625C304.724 78.315 305.184 78.095 305.824 77.965C306.464 77.825 307.354 77.755 308.494 77.755H308.824V77.26C308.824 76.66 308.699 76.22 308.449 75.94C308.209 75.66 307.814 75.52 307.264 75.52C306.584 75.52 305.894 75.705 305.194 76.075C304.924 76.245 304.734 76.33 304.624 76.33C304.504 76.33 304.404 76.285 304.324 76.195C304.244 76.105 304.204 75.99 304.204 75.85C304.204 75.71 304.244 75.59 304.324 75.49C304.414 75.38 304.554 75.27 304.744 75.16C305.094 74.96 305.489 74.805 305.929 74.695C306.379 74.575 306.824 74.515 307.264 74.515ZM306.769 81.145C307.369 81.145 307.859 80.945 308.239 80.545C308.629 80.135 308.824 79.61 308.824 78.97V78.535H308.554C307.674 78.535 307.004 78.575 306.544 78.655C306.084 78.725 305.754 78.85 305.554 79.03C305.364 79.2 305.269 79.455 305.269 79.795C305.269 80.185 305.409 80.51 305.689 80.77C305.979 81.02 306.339 81.145 306.769 81.145ZM312.848 82.075C312.668 82.075 312.518 82.025 312.398 81.925C312.288 81.815 312.233 81.665 312.233 81.475V75.145C312.233 74.955 312.288 74.81 312.398 74.71C312.518 74.6 312.668 74.545 312.848 74.545C313.028 74.545 313.173 74.6 313.283 74.71C313.393 74.81 313.448 74.955 313.448 75.145V81.475C313.448 81.675 313.393 81.825 313.283 81.925C313.173 82.025 313.028 82.075 312.848 82.075ZM312.848 72.97C312.608 72.97 312.413 72.9 312.263 72.76C312.113 72.62 312.038 72.435 312.038 72.205C312.038 71.985 312.113 71.805 312.263 71.665C312.413 71.525 312.608 71.455 312.848 71.455C313.088 71.455 313.283 71.525 313.433 71.665C313.583 71.805 313.658 71.985 313.658 72.205C313.658 72.435 313.583 72.62 313.433 72.76C313.283 72.9 313.088 72.97 312.848 72.97ZM316.335 82.075C316.155 82.075 316.005 82.025 315.885 81.925C315.775 81.815 315.72 81.665 315.72 81.475V71.95C315.72 71.76 315.775 71.615 315.885 71.515C316.005 71.405 316.155 71.35 316.335 71.35C316.505 71.35 316.645 71.405 316.755 71.515C316.875 71.615 316.935 71.76 316.935 71.95V81.475C316.935 81.665 316.875 81.815 316.755 81.925C316.645 82.025 316.505 82.075 316.335 82.075ZM322.191 74.515C324.021 74.515 324.936 75.475 324.936 77.395V81.475C324.936 81.655 324.881 81.8 324.771 81.91C324.671 82.02 324.531 82.075 324.351 82.075C324.171 82.075 324.026 82.02 323.916 81.91C323.806 81.8 323.751 81.655 323.751 81.475V80.755C323.561 81.185 323.271 81.52 322.881 81.76C322.491 81.99 322.041 82.105 321.531 82.105C321.061 82.105 320.626 82.01 320.226 81.82C319.836 81.63 319.526 81.365 319.296 81.025C319.066 80.685 318.951 80.31 318.951 79.9C318.951 79.35 319.091 78.925 319.371 78.625C319.651 78.315 320.111 78.095 320.751 77.965C321.391 77.825 322.281 77.755 323.421 77.755H323.751V77.26C323.751 76.66 323.626 76.22 323.376 75.94C323.136 75.66 322.741 75.52 322.191 75.52C321.511 75.52 320.821 75.705 320.121 76.075C319.851 76.245 319.661 76.33 319.551 76.33C319.431 76.33 319.331 76.285 319.251 76.195C319.171 76.105 319.131 75.99 319.131 75.85C319.131 75.71 319.171 75.59 319.251 75.49C319.341 75.38 319.481 75.27 319.671 75.16C320.021 74.96 320.416 74.805 320.856 74.695C321.306 74.575 321.751 74.515 322.191 74.515ZM321.696 81.145C322.296 81.145 322.786 80.945 323.166 80.545C323.556 80.135 323.751 79.61 323.751 78.97V78.535H323.481C322.601 78.535 321.931 78.575 321.471 78.655C321.011 78.725 320.681 78.85 320.481 79.03C320.291 79.2 320.196 79.455 320.196 79.795C320.196 80.185 320.336 80.51 320.616 80.77C320.906 81.02 321.266 81.145 321.696 81.145ZM330.835 74.515C331.475 74.515 332.04 74.67 332.53 74.98C333.02 75.29 333.4 75.73 333.67 76.3C333.94 76.87 334.075 77.53 334.075 78.28C334.075 79.04 333.94 79.71 333.67 80.29C333.4 80.86 333.02 81.305 332.53 81.625C332.04 81.945 331.475 82.105 330.835 82.105C330.265 82.105 329.765 81.98 329.335 81.73C328.915 81.48 328.595 81.125 328.375 80.665V81.475C328.375 81.655 328.32 81.8 328.21 81.91C328.11 82.02 327.965 82.075 327.775 82.075C327.585 82.075 327.435 82.02 327.325 81.91C327.215 81.8 327.16 81.655 327.16 81.475V71.935C327.16 71.765 327.215 71.625 327.325 71.515C327.435 71.405 327.585 71.35 327.775 71.35C327.965 71.35 328.11 71.405 328.21 71.515C328.32 71.615 328.375 71.755 328.375 71.935V75.955C328.595 75.495 328.915 75.14 329.335 74.89C329.765 74.64 330.265 74.515 330.835 74.515ZM330.595 81.1C331.305 81.1 331.855 80.855 332.245 80.365C332.635 79.865 332.83 79.17 332.83 78.28C332.83 77.41 332.635 76.735 332.245 76.255C331.855 75.775 331.305 75.535 330.595 75.535C329.885 75.535 329.335 75.775 328.945 76.255C328.565 76.735 328.375 77.42 328.375 78.31C328.375 79.2 328.565 79.89 328.945 80.38C329.335 80.86 329.885 81.1 330.595 81.1ZM336.506 82.075C336.326 82.075 336.176 82.025 336.056 81.925C335.946 81.815 335.891 81.665 335.891 81.475V71.95C335.891 71.76 335.946 71.615 336.056 71.515C336.176 71.405 336.326 71.35 336.506 71.35C336.676 71.35 336.816 71.405 336.926 71.515C337.046 71.615 337.106 71.76 337.106 71.95V81.475C337.106 81.665 337.046 81.815 336.926 81.925C336.816 82.025 336.676 82.075 336.506 82.075ZM339.977 82.075C339.737 82.075 339.537 82 339.377 81.85C339.217 81.69 339.137 81.485 339.137 81.235C339.137 80.985 339.217 80.78 339.377 80.62C339.537 80.46 339.737 80.38 339.977 80.38C340.207 80.38 340.397 80.46 340.547 80.62C340.707 80.78 340.787 80.985 340.787 81.235C340.787 81.485 340.707 81.69 340.547 81.85C340.397 82 340.207 82.075 339.977 82.075ZM343.412 82.075C343.172 82.075 342.972 82 342.812 81.85C342.652 81.69 342.572 81.485 342.572 81.235C342.572 80.985 342.652 80.78 342.812 80.62C342.972 80.46 343.172 80.38 343.412 80.38C343.642 80.38 343.832 80.46 343.982 80.62C344.142 80.78 344.222 80.985 344.222 81.235C344.222 81.485 344.142 81.69 343.982 81.85C343.832 82 343.642 82.075 343.412 82.075ZM346.847 82.075C346.607 82.075 346.407 82 346.247 81.85C346.087 81.69 346.007 81.485 346.007 81.235C346.007 80.985 346.087 80.78 346.247 80.62C346.407 80.46 346.607 80.38 346.847 80.38C347.077 80.38 347.267 80.46 347.417 80.62C347.577 80.78 347.657 80.985 347.657 81.235C347.657 81.485 347.577 81.69 347.417 81.85C347.267 82 347.077 82.075 346.847 82.075Z" fill="#234CAD"/>
<path d="M139.3 52.46C139.38 52.6333 139.42 52.8067 139.42 52.98C139.42 53.2867 139.293 53.5467 139.04 53.76C138.8 53.9733 138.52 54.08 138.2 54.08C137.987 54.08 137.787 54.0267 137.6 53.92C137.413 53.8 137.267 53.62 137.16 53.38L135.96 50.7H128.92L127.72 53.38C127.613 53.62 127.467 53.8 127.28 53.92C127.093 54.0267 126.887 54.08 126.66 54.08C126.353 54.08 126.073 53.9733 125.82 53.76C125.567 53.5467 125.44 53.2867 125.44 52.98C125.44 52.8067 125.48 52.6333 125.56 52.46L131.08 40.6C131.2 40.3333 131.38 40.1333 131.62 40C131.873 39.8533 132.14 39.78 132.42 39.78C132.7 39.78 132.96 39.8533 133.2 40C133.453 40.1333 133.64 40.3333 133.76 40.6L139.3 52.46ZM129.8 48.7H135.08L132.44 42.76L129.8 48.7ZM146.824 43.98C147.997 43.98 148.87 44.3133 149.444 44.98C150.017 45.6467 150.304 46.6533 150.304 48V52.92C150.304 53.2933 150.19 53.5867 149.964 53.8C149.75 54.0133 149.45 54.12 149.064 54.12C148.677 54.12 148.37 54.0133 148.144 53.8C147.917 53.5867 147.804 53.2933 147.804 52.92V48.14C147.804 47.38 147.657 46.8267 147.364 46.48C147.084 46.1333 146.637 45.96 146.024 45.96C145.304 45.96 144.724 46.1867 144.284 46.64C143.857 47.0933 143.644 47.7 143.644 48.46V52.92C143.644 53.2933 143.53 53.5867 143.304 53.8C143.077 54.0133 142.77 54.12 142.384 54.12C141.997 54.12 141.69 54.0133 141.464 53.8C141.25 53.5867 141.144 53.2933 141.144 52.92V45.18C141.144 44.8333 141.257 44.5533 141.484 44.34C141.71 44.1267 142.017 44.02 142.404 44.02C142.75 44.02 143.03 44.1267 143.244 44.34C143.47 44.54 143.584 44.8067 143.584 45.14V45.68C143.917 45.1333 144.364 44.7133 144.924 44.42C145.484 44.1267 146.117 43.98 146.824 43.98ZM161.003 39.8C161.376 39.8 161.683 39.9067 161.923 40.12C162.163 40.3333 162.283 40.6133 162.283 40.96V52.92C162.283 53.28 162.17 53.5667 161.943 53.78C161.716 53.9933 161.416 54.1 161.043 54.1C160.67 54.1 160.37 53.9933 160.143 53.78C159.916 53.5667 159.803 53.28 159.803 52.92V52.42C159.51 52.9667 159.083 53.3933 158.523 53.7C157.976 54.0067 157.35 54.16 156.643 54.16C155.803 54.16 155.05 53.9467 154.383 53.52C153.73 53.0933 153.216 52.4933 152.843 51.72C152.483 50.9333 152.303 50.0333 152.303 49.02C152.303 48.0067 152.483 47.12 152.843 46.36C153.216 45.6 153.73 45.0133 154.383 44.6C155.036 44.1867 155.79 43.98 156.643 43.98C157.35 43.98 157.976 44.1267 158.523 44.42C159.07 44.7133 159.49 45.1267 159.783 45.66V40.92C159.783 40.5867 159.89 40.32 160.103 40.12C160.33 39.9067 160.63 39.8 161.003 39.8ZM157.303 52.22C158.103 52.22 158.716 51.9467 159.143 51.4C159.583 50.8533 159.803 50.0733 159.803 49.06C159.803 48.0467 159.583 47.2733 159.143 46.74C158.716 46.1933 158.11 45.92 157.323 45.92C156.523 45.92 155.903 46.1867 155.463 46.72C155.023 47.2533 154.803 48.02 154.803 49.02C154.803 50.0333 155.023 50.82 155.463 51.38C155.903 51.94 156.516 52.22 157.303 52.22ZM170.315 44.02C170.661 43.9933 170.935 44.0667 171.135 44.24C171.335 44.4133 171.435 44.6733 171.435 45.02C171.435 45.38 171.348 45.6467 171.175 45.82C171.001 45.9933 170.688 46.1067 170.235 46.16L169.635 46.22C168.848 46.3 168.268 46.5667 167.895 47.02C167.535 47.4733 167.355 48.04 167.355 48.72V52.92C167.355 53.3067 167.235 53.6067 166.995 53.82C166.755 54.02 166.455 54.12 166.095 54.12C165.735 54.12 165.435 54.02 165.195 53.82C164.968 53.6067 164.855 53.3067 164.855 52.92V45.18C164.855 44.8067 164.968 44.52 165.195 44.32C165.435 44.12 165.728 44.02 166.075 44.02C166.421 44.02 166.701 44.12 166.915 44.32C167.128 44.5067 167.235 44.78 167.235 45.14V45.94C167.488 45.3533 167.861 44.9 168.355 44.58C168.861 44.26 169.421 44.08 170.035 44.04L170.315 44.02ZM180.056 51.32C180.282 51.32 180.462 51.4067 180.596 51.58C180.742 51.7533 180.816 51.9867 180.816 52.28C180.816 52.6933 180.569 53.04 180.076 53.32C179.622 53.5733 179.109 53.78 178.536 53.94C177.962 54.0867 177.416 54.16 176.896 54.16C175.322 54.16 174.076 53.7067 173.156 52.8C172.236 51.8933 171.776 50.6533 171.776 49.08C171.776 48.08 171.976 47.1933 172.376 46.42C172.776 45.6467 173.336 45.0467 174.056 44.62C174.789 44.1933 175.616 43.98 176.536 43.98C177.416 43.98 178.182 44.1733 178.836 44.56C179.489 44.9467 179.996 45.4933 180.356 46.2C180.716 46.9067 180.896 47.74 180.896 48.7C180.896 49.2733 180.642 49.56 180.136 49.56H174.236C174.316 50.48 174.576 51.16 175.016 51.6C175.456 52.0267 176.096 52.24 176.936 52.24C177.362 52.24 177.736 52.1867 178.056 52.08C178.389 51.9733 178.762 51.8267 179.176 51.64C179.576 51.4267 179.869 51.32 180.056 51.32ZM176.596 45.74C175.916 45.74 175.369 45.9533 174.956 46.38C174.556 46.8067 174.316 47.42 174.236 48.22H178.756C178.729 47.4067 178.529 46.7933 178.156 46.38C177.782 45.9533 177.262 45.74 176.596 45.74ZM196.004 44.76C196.098 44.52 196.231 44.34 196.404 44.22C196.591 44.1 196.791 44.04 197.004 44.04C197.311 44.04 197.584 44.1467 197.824 44.36C198.078 44.56 198.204 44.8133 198.204 45.12C198.204 45.2933 198.171 45.4467 198.104 45.58L194.804 53.32C194.698 53.5733 194.531 53.7667 194.304 53.9C194.091 54.0333 193.851 54.1 193.584 54.1C193.331 54.1 193.091 54.0333 192.864 53.9C192.651 53.7667 192.491 53.5733 192.384 53.32L190.004 47.6L187.704 53.32C187.598 53.5733 187.431 53.7667 187.204 53.9C186.991 54.0333 186.751 54.1 186.484 54.1C186.231 54.1 185.991 54.0333 185.764 53.9C185.538 53.7667 185.371 53.5733 185.264 53.32L181.984 45.58C181.918 45.4067 181.884 45.26 181.884 45.14C181.884 44.8333 182.018 44.5733 182.284 44.36C182.551 44.1333 182.844 44.02 183.164 44.02C183.391 44.02 183.598 44.08 183.784 44.2C183.971 44.32 184.111 44.5 184.204 44.74L186.564 50.84L188.984 44.8C189.091 44.5467 189.244 44.36 189.444 44.24C189.644 44.1067 189.864 44.04 190.104 44.04C190.344 44.04 190.564 44.1067 190.764 44.24C190.964 44.36 191.118 44.5467 191.224 44.8L193.664 50.86L196.004 44.76ZM205.303 54.12C204.276 54.16 203.763 53.8067 203.763 53.06C203.763 52.74 203.85 52.5 204.023 52.34C204.183 52.1667 204.443 52.0667 204.803 52.04L205.443 52C205.99 51.9733 206.403 51.8 206.683 51.48C206.963 51.16 207.103 50.6733 207.103 50.02V41.08C207.103 40.6933 207.216 40.3867 207.443 40.16C207.683 39.92 207.996 39.8 208.383 39.8C208.783 39.8 209.096 39.92 209.323 40.16C209.563 40.3867 209.683 40.6933 209.683 41.08V50.02C209.683 52.54 208.436 53.8933 205.943 54.08L205.303 54.12ZM216.971 54.16C215.971 54.16 215.091 53.9533 214.331 53.54C213.584 53.1267 213.004 52.5333 212.591 51.76C212.178 50.9867 211.971 50.0867 211.971 49.06C211.971 48.0333 212.178 47.14 212.591 46.38C213.004 45.6067 213.584 45.0133 214.331 44.6C215.091 44.1867 215.971 43.98 216.971 43.98C217.971 43.98 218.844 44.1867 219.591 44.6C220.351 45.0133 220.931 45.6067 221.331 46.38C221.744 47.14 221.951 48.0333 221.951 49.06C221.951 50.0867 221.744 50.9867 221.331 51.76C220.931 52.5333 220.351 53.1267 219.591 53.54C218.844 53.9533 217.971 54.16 216.971 54.16ZM216.951 52.22C217.764 52.22 218.384 51.9533 218.811 51.42C219.238 50.8867 219.451 50.1 219.451 49.06C219.451 48.0333 219.238 47.2533 218.811 46.72C218.384 46.1733 217.771 45.9 216.971 45.9C216.171 45.9 215.551 46.1733 215.111 46.72C214.684 47.2533 214.471 48.0333 214.471 49.06C214.471 50.1 214.684 50.8867 215.111 51.42C215.538 51.9533 216.151 52.22 216.951 52.22ZM229.735 43.98C232.028 43.98 233.175 45.32 233.175 48V52.92C233.175 53.2933 233.062 53.5867 232.835 53.8C232.622 54.0133 232.322 54.12 231.935 54.12C231.548 54.12 231.242 54.0133 231.015 53.8C230.788 53.5867 230.675 53.2933 230.675 52.92V48C230.675 47.2933 230.528 46.78 230.235 46.46C229.955 46.1267 229.508 45.96 228.895 45.96C228.175 45.96 227.595 46.1867 227.155 46.64C226.728 47.0933 226.515 47.7 226.515 48.46V52.92C226.515 53.2933 226.402 53.5867 226.175 53.8C225.948 54.0133 225.642 54.12 225.255 54.12C224.868 54.12 224.562 54.0133 224.335 53.8C224.122 53.5867 224.015 53.2933 224.015 52.92V40.96C224.015 40.6133 224.128 40.3333 224.355 40.12C224.595 39.9067 224.902 39.8 225.275 39.8C225.648 39.8 225.948 39.9 226.175 40.1C226.402 40.3 226.515 40.5733 226.515 40.92V45.58C226.848 45.06 227.288 44.6667 227.835 44.4C228.395 44.12 229.028 43.98 229.735 43.98ZM241.394 43.98C242.567 43.98 243.441 44.3133 244.014 44.98C244.587 45.6467 244.874 46.6533 244.874 48V52.92C244.874 53.2933 244.761 53.5867 244.534 53.8C244.321 54.0133 244.021 54.12 243.634 54.12C243.247 54.12 242.941 54.0133 242.714 53.8C242.487 53.5867 242.374 53.2933 242.374 52.92V48.14C242.374 47.38 242.227 46.8267 241.934 46.48C241.654 46.1333 241.207 45.96 240.594 45.96C239.874 45.96 239.294 46.1867 238.854 46.64C238.427 47.0933 238.214 47.7 238.214 48.46V52.92C238.214 53.2933 238.101 53.5867 237.874 53.8C237.647 54.0133 237.341 54.12 236.954 54.12C236.567 54.12 236.261 54.0133 236.034 53.8C235.821 53.5867 235.714 53.2933 235.714 52.92V45.18C235.714 44.8333 235.827 44.5533 236.054 44.34C236.281 44.1267 236.587 44.02 236.974 44.02C237.321 44.02 237.601 44.1267 237.814 44.34C238.041 44.54 238.154 44.8067 238.154 45.14V45.68C238.487 45.1333 238.934 44.7133 239.494 44.42C240.054 44.1267 240.687 43.98 241.394 43.98ZM250.953 54.16C249.5 54.16 248.327 53.8733 247.433 53.3C247.007 53.0467 246.793 52.6867 246.793 52.22C246.793 51.9533 246.867 51.74 247.013 51.58C247.16 51.4067 247.34 51.32 247.553 51.32C247.78 51.32 248.093 51.4267 248.493 51.64C248.92 51.84 249.307 51.9933 249.653 52.1C250.013 52.2067 250.467 52.26 251.013 52.26C251.573 52.26 252.007 52.1667 252.313 51.98C252.633 51.7933 252.793 51.5333 252.793 51.2C252.793 50.9733 252.727 50.7933 252.593 50.66C252.473 50.5267 252.247 50.4067 251.913 50.3C251.593 50.18 251.1 50.0467 250.433 49.9C249.247 49.66 248.393 49.32 247.873 48.88C247.367 48.44 247.113 47.8333 247.113 47.06C247.113 46.4733 247.287 45.9467 247.633 45.48C247.98 45 248.453 44.6333 249.053 44.38C249.667 44.1133 250.36 43.98 251.133 43.98C251.693 43.98 252.233 44.0533 252.753 44.2C253.273 44.3333 253.74 44.5333 254.153 44.8C254.58 45.0667 254.793 45.42 254.793 45.86C254.793 46.1267 254.72 46.3533 254.573 46.54C254.427 46.7133 254.247 46.8 254.033 46.8C253.887 46.8 253.74 46.7733 253.593 46.72C253.46 46.6533 253.287 46.56 253.073 46.44C252.687 46.24 252.353 46.0933 252.073 46C251.793 45.8933 251.447 45.84 251.033 45.84C250.54 45.84 250.147 45.94 249.853 46.14C249.573 46.34 249.433 46.6133 249.433 46.96C249.433 47.2933 249.58 47.5467 249.873 47.72C250.167 47.8933 250.733 48.0667 251.573 48.24C252.467 48.4267 253.167 48.64 253.673 48.88C254.18 49.12 254.54 49.42 254.753 49.78C254.98 50.14 255.093 50.6 255.093 51.16C255.093 52.0667 254.713 52.7933 253.953 53.34C253.207 53.8867 252.207 54.16 250.953 54.16ZM261.58 54.16C260.58 54.16 259.7 53.9533 258.94 53.54C258.194 53.1267 257.614 52.5333 257.2 51.76C256.787 50.9867 256.58 50.0867 256.58 49.06C256.58 48.0333 256.787 47.14 257.2 46.38C257.614 45.6067 258.194 45.0133 258.94 44.6C259.7 44.1867 260.58 43.98 261.58 43.98C262.58 43.98 263.454 44.1867 264.2 44.6C264.96 45.0133 265.54 45.6067 265.94 46.38C266.354 47.14 266.56 48.0333 266.56 49.06C266.56 50.0867 266.354 50.9867 265.94 51.76C265.54 52.5333 264.96 53.1267 264.2 53.54C263.454 53.9533 262.58 54.16 261.58 54.16ZM261.56 52.22C262.374 52.22 262.994 51.9533 263.42 51.42C263.847 50.8867 264.06 50.1 264.06 49.06C264.06 48.0333 263.847 47.2533 263.42 46.72C262.994 46.1733 262.38 45.9 261.58 45.9C260.78 45.9 260.16 46.1733 259.72 46.72C259.294 47.2533 259.08 48.0333 259.08 49.06C259.08 50.1 259.294 50.8867 259.72 51.42C260.147 51.9533 260.76 52.22 261.56 52.22ZM274.304 43.98C275.478 43.98 276.351 44.3133 276.924 44.98C277.498 45.6467 277.784 46.6533 277.784 48V52.92C277.784 53.2933 277.671 53.5867 277.444 53.8C277.231 54.0133 276.931 54.12 276.544 54.12C276.158 54.12 275.851 54.0133 275.624 53.8C275.398 53.5867 275.284 53.2933 275.284 52.92V48.14C275.284 47.38 275.138 46.8267 274.844 46.48C274.564 46.1333 274.118 45.96 273.504 45.96C272.784 45.96 272.204 46.1867 271.764 46.64C271.338 47.0933 271.124 47.7 271.124 48.46V52.92C271.124 53.2933 271.011 53.5867 270.784 53.8C270.558 54.0133 270.251 54.12 269.864 54.12C269.478 54.12 269.171 54.0133 268.944 53.8C268.731 53.5867 268.624 53.2933 268.624 52.92V45.18C268.624 44.8333 268.738 44.5533 268.964 44.34C269.191 44.1267 269.498 44.02 269.884 44.02C270.231 44.02 270.511 44.1267 270.724 44.34C270.951 44.54 271.064 44.8067 271.064 45.14V45.68C271.398 45.1333 271.844 44.7133 272.404 44.42C272.964 44.1267 273.598 43.98 274.304 43.98Z" fill="#234CAD"/>
</g>
</g>
<g clip-path="url(#clip2_0_1)">
<circle cx="62.5" cy="62.5" r="37.5" fill="#F2F6FF"/>
<path d="M65.73 68.306C65.818 68.4967 65.862 68.6873 65.862 68.878C65.862 69.2153 65.7227 69.5013 65.444 69.736C65.18 69.9707 64.872 70.088 64.52 70.088C64.2853 70.088 64.0653 70.0293 63.86 69.912C63.6547 69.78 63.4933 69.582 63.376 69.318L62.056 66.37H54.312L52.992 69.318C52.8747 69.582 52.7133 69.78 52.508 69.912C52.3027 70.0293 52.0753 70.088 51.826 70.088C51.4887 70.088 51.1807 69.9707 50.902 69.736C50.6233 69.5013 50.484 69.2153 50.484 68.878C50.484 68.6873 50.528 68.4967 50.616 68.306L56.688 55.26C56.82 54.9667 57.018 54.7467 57.282 54.6C57.5607 54.4387 57.854 54.358 58.162 54.358C58.47 54.358 58.756 54.4387 59.02 54.6C59.2987 54.7467 59.504 54.9667 59.636 55.26L65.73 68.306ZM55.28 64.17H61.088L58.184 57.636L55.28 64.17ZM68.1438 70.132C67.0145 70.176 66.4498 69.7873 66.4498 68.966C66.4498 68.614 66.5451 68.35 66.7358 68.174C66.9118 67.9833 67.1978 67.8733 67.5938 67.844L68.2978 67.8C68.8991 67.7707 69.3538 67.58 69.6618 67.228C69.9698 66.876 70.1238 66.3407 70.1238 65.622V55.788C70.1238 55.3627 70.2485 55.0253 70.4978 54.776C70.7618 54.512 71.1065 54.38 71.5318 54.38C71.9718 54.38 72.3165 54.512 72.5658 54.776C72.8298 55.0253 72.9618 55.3627 72.9618 55.788V65.622C72.9618 68.394 71.5905 69.8827 68.8478 70.088L68.1438 70.132Z" fill="#234CAD"/>
</g>
<g clip-path="url(#clip3_0_1)">
<circle cx="90" cy="35" r="8.75" fill="#234CAD" stroke="white" stroke-width="2.5"/>
<path d="M91.486 36.272C91.766 36.272 91.906 36.391 91.906 36.629C91.906 36.8763 91.766 37 91.486 37H88.826C88.7047 37 88.609 36.965 88.539 36.895C88.469 36.8203 88.434 36.7293 88.434 36.622C88.434 36.482 88.4877 36.356 88.595 36.244L90.191 34.529C90.387 34.3143 90.5293 34.1183 90.618 33.941C90.7113 33.759 90.758 33.5793 90.758 33.402C90.758 33.1827 90.695 33.0147 90.569 32.898C90.443 32.7813 90.2633 32.723 90.03 32.723C89.8387 32.723 89.652 32.7603 89.47 32.835C89.2927 32.905 89.113 33.003 88.931 33.129C88.8843 33.1617 88.8377 33.1897 88.791 33.213C88.7443 33.2317 88.6977 33.241 88.651 33.241C88.5717 33.241 88.5017 33.2037 88.441 33.129C88.385 33.0543 88.357 32.9657 88.357 32.863C88.357 32.793 88.3687 32.7323 88.392 32.681C88.42 32.6297 88.462 32.5807 88.518 32.534C88.7233 32.3707 88.9637 32.2423 89.239 32.149C89.5143 32.051 89.7897 32.002 90.065 32.002C90.5457 32.002 90.9283 32.1233 91.213 32.366C91.5023 32.6087 91.647 32.9353 91.647 33.346C91.647 33.6307 91.5863 33.899 91.465 34.151C91.3437 34.3983 91.1383 34.676 90.849 34.984L89.638 36.272H91.486Z" fill="#F7FAFC"/>
</g>
<defs>
<clipPath id="clip0_0_1">
<rect width="288" height="57" fill="white" transform="translate(125 34)"/>
</clipPath>
<clipPath id="clip1_0_1">
<rect width="224" height="57" fill="white" transform="translate(125 34)"/>
</clipPath>
<clipPath id="clip2_0_1">
<rect width="75" height="75" fill="white" transform="translate(25 25)"/>
</clipPath>
<clipPath id="clip3_0_1">
<rect width="20" height="20" fill="white" transform="translate(80 25)"/>
</clipPath>
</defs>
</svg>
