<svg width="262" height="75" viewBox="0 0 262 75" fill="none" xmlns="http://www.w3.org/2000/svg">
<g opacity="0.7">
<rect width="262" height="75" rx="15" fill="white"/>
<g clip-path="url(#clip0_1_33)">
<path opacity="0.75" d="M222.556 27.517C222.64 27.517 222.705 27.538 222.752 27.58C222.799 27.622 222.822 27.6803 222.822 27.755C222.822 27.9183 222.733 28 222.556 28H219.812C219.733 28 219.667 27.9767 219.616 27.93C219.565 27.8787 219.539 27.818 219.539 27.748C219.539 27.6593 219.572 27.5823 219.637 27.517L221.324 25.662C221.557 25.4007 221.725 25.1673 221.828 24.962C221.935 24.752 221.989 24.542 221.989 24.332C221.989 24.0613 221.91 23.8537 221.751 23.709C221.597 23.5643 221.378 23.492 221.093 23.492C220.869 23.492 220.654 23.534 220.449 23.618C220.244 23.6973 220.038 23.821 219.833 23.989C219.763 24.045 219.698 24.073 219.637 24.073C219.586 24.073 219.541 24.0497 219.504 24.003C219.467 23.9517 219.448 23.891 219.448 23.821C219.448 23.723 219.485 23.6437 219.56 23.583C219.751 23.4057 219.985 23.2657 220.26 23.163C220.535 23.0603 220.818 23.009 221.107 23.009C221.55 23.009 221.903 23.1257 222.164 23.359C222.43 23.5923 222.563 23.9073 222.563 24.304C222.563 24.5887 222.498 24.8617 222.367 25.123C222.241 25.3843 222.031 25.676 221.737 25.998L220.337 27.517H222.556ZM224.002 25.305C223.89 25.305 223.797 25.27 223.722 25.2C223.648 25.1253 223.61 25.0297 223.61 24.913C223.61 24.7963 223.648 24.703 223.722 24.633C223.797 24.5583 223.89 24.521 224.002 24.521C224.11 24.521 224.198 24.5583 224.268 24.633C224.343 24.703 224.38 24.7963 224.38 24.913C224.38 25.0297 224.343 25.1253 224.268 25.2C224.198 25.27 224.11 25.305 224.002 25.305ZM224.002 28.035C223.89 28.035 223.797 28 223.722 27.93C223.648 27.8553 223.61 27.7597 223.61 27.643C223.61 27.5263 223.648 27.4307 223.722 27.356C223.797 27.2813 223.89 27.244 224.002 27.244C224.11 27.244 224.198 27.2813 224.268 27.356C224.343 27.4307 224.38 27.5263 224.38 27.643C224.38 27.7597 224.343 27.8553 224.268 27.93C224.198 28 224.11 28.035 224.002 28.035ZM226.897 28.056C226.332 28.056 225.903 27.8413 225.609 27.412C225.315 26.9827 225.168 26.3573 225.168 25.536C225.168 24.71 225.315 24.0823 225.609 23.653C225.903 23.2237 226.332 23.009 226.897 23.009C227.462 23.009 227.891 23.2237 228.185 23.653C228.479 24.0777 228.626 24.703 228.626 25.529C228.626 26.355 228.479 26.9827 228.185 27.412C227.891 27.8413 227.462 28.056 226.897 28.056ZM226.897 27.573C227.289 27.573 227.578 27.4073 227.765 27.076C227.952 26.7447 228.045 26.229 228.045 25.529C228.045 24.8243 227.952 24.3087 227.765 23.982C227.583 23.6553 227.294 23.492 226.897 23.492C226.505 23.492 226.216 23.6577 226.029 23.989C225.842 24.3157 225.749 24.829 225.749 25.529C225.749 26.229 225.842 26.7447 226.029 27.076C226.216 27.4073 226.505 27.573 226.897 27.573ZM231.948 25.466C232.237 25.5547 232.461 25.7063 232.62 25.921C232.783 26.1357 232.865 26.3923 232.865 26.691C232.865 27.1157 232.711 27.4493 232.403 27.692C232.095 27.93 231.659 28.049 231.094 28.049C230.529 28.049 230.093 27.93 229.785 27.692C229.477 27.4493 229.323 27.1157 229.323 26.691C229.323 26.3877 229.405 26.1287 229.568 25.914C229.731 25.6993 229.958 25.55 230.247 25.466C230 25.3727 229.804 25.2257 229.659 25.025C229.514 24.8243 229.442 24.5887 229.442 24.318C229.442 23.9167 229.587 23.5993 229.876 23.366C230.17 23.128 230.576 23.009 231.094 23.009C231.612 23.009 232.016 23.128 232.305 23.366C232.599 23.5993 232.746 23.9167 232.746 24.318C232.746 24.5887 232.674 24.8267 232.529 25.032C232.384 25.2327 232.191 25.3773 231.948 25.466ZM230.009 24.36C230.009 24.6493 230.1 24.871 230.282 25.025C230.469 25.179 230.739 25.256 231.094 25.256C231.449 25.256 231.717 25.179 231.899 25.025C232.086 24.871 232.179 24.6493 232.179 24.36C232.179 24.0847 232.086 23.87 231.899 23.716C231.717 23.562 231.449 23.485 231.094 23.485C230.739 23.485 230.469 23.562 230.282 23.716C230.1 23.87 230.009 24.0847 230.009 24.36ZM231.094 27.573C231.897 27.573 232.298 27.2673 232.298 26.656C232.298 26.0447 231.897 25.739 231.094 25.739C230.291 25.739 229.89 26.0447 229.89 26.656C229.89 27.2673 230.291 27.573 231.094 27.573ZM239.854 27.671C239.873 27.7083 239.882 27.748 239.882 27.79C239.882 27.86 239.854 27.9183 239.798 27.965C239.747 28.0117 239.684 28.035 239.609 28.035C239.492 28.035 239.411 27.979 239.364 27.867L238.867 26.733H236.228L235.724 27.867C235.677 27.979 235.596 28.035 235.479 28.035C235.404 28.035 235.339 28.0117 235.283 27.965C235.227 27.9137 235.199 27.853 235.199 27.783C235.199 27.7457 235.208 27.7083 235.227 27.671L237.229 23.219C237.257 23.1537 237.299 23.1047 237.355 23.072C237.411 23.0393 237.472 23.023 237.537 23.023C237.607 23.023 237.67 23.0417 237.726 23.079C237.782 23.1117 237.824 23.1583 237.852 23.219L239.854 27.671ZM236.438 26.257H238.657L237.544 23.744L236.438 26.257ZM245.073 23.03C245.162 23.03 245.229 23.058 245.276 23.114C245.327 23.1653 245.353 23.2353 245.353 23.324V27.755C245.353 27.839 245.33 27.9067 245.283 27.958C245.236 28.0093 245.171 28.035 245.087 28.035C245.003 28.035 244.94 28.0093 244.898 27.958C244.856 27.9067 244.835 27.839 244.835 27.755V24.178L243.316 27.09C243.251 27.2253 243.155 27.293 243.029 27.293C242.908 27.293 242.812 27.2253 242.742 27.09L241.216 24.213V27.755C241.216 27.839 241.193 27.9067 241.146 27.958C241.104 28.0093 241.041 28.035 240.957 28.035C240.873 28.035 240.808 28.0093 240.761 27.958C240.714 27.9067 240.691 27.839 240.691 27.755V23.324C240.691 23.2353 240.717 23.1653 240.768 23.114C240.819 23.058 240.889 23.03 240.978 23.03C241.095 23.03 241.188 23.0977 241.258 23.233L243.036 26.642L244.793 23.233C244.83 23.1583 244.87 23.107 244.912 23.079C244.959 23.0463 245.012 23.03 245.073 23.03Z" fill="#234CAD"/>
<g clip-path="url(#clip1_1_33)">
<path d="M77.691 50.045C77.577 50.045 77.484 50.012 77.412 49.946C77.346 49.874 77.313 49.781 77.313 49.667V44.285H75.378C75.27 44.285 75.186 44.258 75.126 44.204C75.066 44.15 75.036 44.072 75.036 43.97C75.036 43.868 75.066 43.79 75.126 43.736C75.186 43.682 75.27 43.655 75.378 43.655H79.995C80.103 43.655 80.187 43.682 80.247 43.736C80.307 43.79 80.337 43.868 80.337 43.97C80.337 44.072 80.307 44.15 80.247 44.204C80.187 44.258 80.103 44.285 79.995 44.285H78.06V49.667C78.06 49.781 78.027 49.874 77.961 49.946C77.895 50.012 77.805 50.045 77.691 50.045ZM83.7777 45.509C84.2937 45.509 84.6837 45.656 84.9477 45.95C85.2117 46.238 85.3437 46.67 85.3437 47.246V49.685C85.3437 49.799 85.3107 49.889 85.2447 49.955C85.1787 50.015 85.0917 50.045 84.9837 50.045C84.8697 50.045 84.7797 50.015 84.7137 49.955C84.6477 49.889 84.6147 49.799 84.6147 49.685V47.264C84.6147 46.874 84.5337 46.586 84.3717 46.4C84.2157 46.214 83.9637 46.121 83.6157 46.121C83.2137 46.121 82.8927 46.244 82.6527 46.49C82.4127 46.736 82.2927 47.069 82.2927 47.489V49.685C82.2927 49.799 82.2597 49.889 82.1937 49.955C82.1337 50.015 82.0467 50.045 81.9327 50.045C81.8187 50.045 81.7287 50.015 81.6627 49.955C81.5967 49.889 81.5637 49.799 81.5637 49.685V43.961C81.5637 43.859 81.5967 43.775 81.6627 43.709C81.7347 43.643 81.8247 43.61 81.9327 43.61C82.0467 43.61 82.1337 43.643 82.1937 43.709C82.2597 43.769 82.2927 43.853 82.2927 43.961V46.319C82.4367 46.055 82.6377 45.854 82.8957 45.716C83.1537 45.578 83.4477 45.509 83.7777 45.509ZM87.0479 50.045C86.9399 50.045 86.8499 50.015 86.7779 49.955C86.7119 49.889 86.6789 49.799 86.6789 49.685V45.887C86.6789 45.773 86.7119 45.686 86.7779 45.626C86.8499 45.56 86.9399 45.527 87.0479 45.527C87.1559 45.527 87.2429 45.56 87.3089 45.626C87.3749 45.686 87.4079 45.773 87.4079 45.887V49.685C87.4079 49.805 87.3749 49.895 87.3089 49.955C87.2429 50.015 87.1559 50.045 87.0479 50.045ZM87.0479 44.582C86.9039 44.582 86.7869 44.54 86.6969 44.456C86.6069 44.372 86.5619 44.261 86.5619 44.123C86.5619 43.991 86.6069 43.883 86.6969 43.799C86.7869 43.715 86.9039 43.673 87.0479 43.673C87.1919 43.673 87.3089 43.715 87.3989 43.799C87.4889 43.883 87.5339 43.991 87.5339 44.123C87.5339 44.261 87.4889 44.372 87.3989 44.456C87.3089 44.54 87.1919 44.582 87.0479 44.582ZM90.2467 50.063C89.9707 50.063 89.7067 50.03 89.4547 49.964C89.2087 49.898 88.9897 49.805 88.7977 49.685C88.6897 49.613 88.6117 49.547 88.5637 49.487C88.5217 49.421 88.5007 49.343 88.5007 49.253C88.5007 49.175 88.5217 49.112 88.5637 49.064C88.6117 49.01 88.6717 48.983 88.7437 48.983C88.8157 48.983 88.9207 49.028 89.0587 49.118C89.2387 49.226 89.4157 49.313 89.5897 49.379C89.7697 49.439 89.9917 49.469 90.2557 49.469C90.5797 49.469 90.8317 49.412 91.0117 49.298C91.1917 49.184 91.2817 49.019 91.2817 48.803C91.2817 48.671 91.2487 48.566 91.1827 48.488C91.1167 48.404 91.0027 48.332 90.8407 48.272C90.6787 48.206 90.4417 48.14 90.1297 48.074C89.6017 47.96 89.2237 47.807 88.9957 47.615C88.7677 47.423 88.6537 47.162 88.6537 46.832C88.6537 46.574 88.7257 46.346 88.8697 46.148C89.0137 45.95 89.2117 45.794 89.4637 45.68C89.7217 45.566 90.0127 45.509 90.3367 45.509C90.5707 45.509 90.7957 45.542 91.0117 45.608C91.2337 45.668 91.4287 45.755 91.5967 45.869C91.8007 46.013 91.9027 46.163 91.9027 46.319C91.9027 46.397 91.8787 46.463 91.8307 46.517C91.7827 46.571 91.7257 46.598 91.6597 46.598C91.5877 46.598 91.4797 46.547 91.3357 46.445C91.1677 46.337 91.0087 46.253 90.8587 46.193C90.7087 46.133 90.5227 46.103 90.3007 46.103C90.0187 46.103 89.7907 46.166 89.6167 46.292C89.4487 46.418 89.3647 46.586 89.3647 46.796C89.3647 46.928 89.3947 47.036 89.4547 47.12C89.5207 47.198 89.6257 47.27 89.7697 47.336C89.9197 47.396 90.1327 47.456 90.4087 47.516C90.8167 47.606 91.1317 47.705 91.3537 47.813C91.5817 47.921 91.7437 48.053 91.8397 48.209C91.9357 48.365 91.9837 48.563 91.9837 48.803C91.9837 49.181 91.8247 49.487 91.5067 49.721C91.1887 49.949 90.7687 50.063 90.2467 50.063ZM101.409 45.761C101.469 45.617 101.568 45.545 101.706 45.545C101.796 45.545 101.877 45.575 101.949 45.635C102.021 45.695 102.057 45.77 102.057 45.86C102.057 45.902 102.048 45.947 102.03 45.995L100.536 49.775C100.5 49.853 100.446 49.916 100.374 49.964C100.308 50.006 100.233 50.027 100.149 50.027C100.071 50.027 99.9962 50.006 99.9242 49.964C99.8582 49.916 99.8072 49.853 99.7712 49.775L98.5292 46.616L97.2962 49.775C97.2662 49.853 97.2152 49.916 97.1432 49.964C97.0712 50.006 96.9932 50.027 96.9092 50.027C96.8312 50.027 96.7562 50.006 96.6842 49.964C96.6122 49.916 96.5582 49.853 96.5222 49.775L95.0282 46.004C95.0102 45.956 95.0012 45.914 95.0012 45.878C95.0012 45.782 95.0402 45.701 95.1182 45.635C95.2022 45.569 95.2922 45.536 95.3882 45.536C95.5322 45.536 95.6342 45.608 95.6942 45.752L96.9272 49.073L98.1962 45.779C98.2322 45.701 98.2802 45.641 98.3402 45.599C98.4062 45.557 98.4752 45.536 98.5472 45.536C98.6252 45.536 98.6942 45.557 98.7542 45.599C98.8202 45.641 98.8682 45.701 98.8982 45.779L100.167 49.064L101.409 45.761ZM104.703 45.509C105.801 45.509 106.35 46.085 106.35 47.237V49.685C106.35 49.793 106.317 49.88 106.251 49.946C106.191 50.012 106.107 50.045 105.999 50.045C105.891 50.045 105.804 50.012 105.738 49.946C105.672 49.88 105.639 49.793 105.639 49.685V49.253C105.525 49.511 105.351 49.712 105.117 49.856C104.883 49.994 104.613 50.063 104.307 50.063C104.025 50.063 103.764 50.006 103.524 49.892C103.29 49.778 103.104 49.619 102.966 49.415C102.828 49.211 102.759 48.986 102.759 48.74C102.759 48.41 102.843 48.155 103.011 47.975C103.179 47.789 103.455 47.657 103.839 47.579C104.223 47.495 104.757 47.453 105.441 47.453H105.639V47.156C105.639 46.796 105.564 46.532 105.414 46.364C105.27 46.196 105.033 46.112 104.703 46.112C104.295 46.112 103.881 46.223 103.461 46.445C103.299 46.547 103.185 46.598 103.119 46.598C103.047 46.598 102.987 46.571 102.939 46.517C102.891 46.463 102.867 46.394 102.867 46.31C102.867 46.226 102.891 46.154 102.939 46.094C102.993 46.028 103.077 45.962 103.191 45.896C103.401 45.776 103.638 45.683 103.902 45.617C104.172 45.545 104.439 45.509 104.703 45.509ZM104.406 49.487C104.766 49.487 105.06 49.367 105.288 49.127C105.522 48.881 105.639 48.566 105.639 48.182V47.921H105.477C104.949 47.921 104.547 47.945 104.271 47.993C103.995 48.035 103.797 48.11 103.677 48.218C103.563 48.32 103.506 48.473 103.506 48.677C103.506 48.911 103.59 49.106 103.758 49.262C103.932 49.412 104.148 49.487 104.406 49.487ZM109.161 50.063C108.885 50.063 108.621 50.03 108.369 49.964C108.123 49.898 107.904 49.805 107.712 49.685C107.604 49.613 107.526 49.547 107.478 49.487C107.436 49.421 107.415 49.343 107.415 49.253C107.415 49.175 107.436 49.112 107.478 49.064C107.526 49.01 107.586 48.983 107.658 48.983C107.73 48.983 107.835 49.028 107.973 49.118C108.153 49.226 108.33 49.313 108.504 49.379C108.684 49.439 108.906 49.469 109.17 49.469C109.494 49.469 109.746 49.412 109.926 49.298C110.106 49.184 110.196 49.019 110.196 48.803C110.196 48.671 110.163 48.566 110.097 48.488C110.031 48.404 109.917 48.332 109.755 48.272C109.593 48.206 109.356 48.14 109.044 48.074C108.516 47.96 108.138 47.807 107.91 47.615C107.682 47.423 107.568 47.162 107.568 46.832C107.568 46.574 107.64 46.346 107.784 46.148C107.928 45.95 108.126 45.794 108.378 45.68C108.636 45.566 108.927 45.509 109.251 45.509C109.485 45.509 109.71 45.542 109.926 45.608C110.148 45.668 110.343 45.755 110.511 45.869C110.715 46.013 110.817 46.163 110.817 46.319C110.817 46.397 110.793 46.463 110.745 46.517C110.697 46.571 110.64 46.598 110.574 46.598C110.502 46.598 110.394 46.547 110.25 46.445C110.082 46.337 109.923 46.253 109.773 46.193C109.623 46.133 109.437 46.103 109.215 46.103C108.933 46.103 108.705 46.166 108.531 46.292C108.363 46.418 108.279 46.586 108.279 46.796C108.279 46.928 108.309 47.036 108.369 47.12C108.435 47.198 108.54 47.27 108.684 47.336C108.834 47.396 109.047 47.456 109.323 47.516C109.731 47.606 110.046 47.705 110.268 47.813C110.496 47.921 110.658 48.053 110.754 48.209C110.85 48.365 110.898 48.563 110.898 48.803C110.898 49.181 110.739 49.487 110.421 49.721C110.103 49.949 109.683 50.063 109.161 50.063ZM115.805 50.063C115.529 50.063 115.265 50.03 115.013 49.964C114.767 49.898 114.548 49.805 114.356 49.685C114.248 49.613 114.17 49.547 114.122 49.487C114.08 49.421 114.059 49.343 114.059 49.253C114.059 49.175 114.08 49.112 114.122 49.064C114.17 49.01 114.23 48.983 114.302 48.983C114.374 48.983 114.479 49.028 114.617 49.118C114.797 49.226 114.974 49.313 115.148 49.379C115.328 49.439 115.55 49.469 115.814 49.469C116.138 49.469 116.39 49.412 116.57 49.298C116.75 49.184 116.84 49.019 116.84 48.803C116.84 48.671 116.807 48.566 116.741 48.488C116.675 48.404 116.561 48.332 116.399 48.272C116.237 48.206 116 48.14 115.688 48.074C115.16 47.96 114.782 47.807 114.554 47.615C114.326 47.423 114.212 47.162 114.212 46.832C114.212 46.574 114.284 46.346 114.428 46.148C114.572 45.95 114.77 45.794 115.022 45.68C115.28 45.566 115.571 45.509 115.895 45.509C116.129 45.509 116.354 45.542 116.57 45.608C116.792 45.668 116.987 45.755 117.155 45.869C117.359 46.013 117.461 46.163 117.461 46.319C117.461 46.397 117.437 46.463 117.389 46.517C117.341 46.571 117.284 46.598 117.218 46.598C117.146 46.598 117.038 46.547 116.894 46.445C116.726 46.337 116.567 46.253 116.417 46.193C116.267 46.133 116.081 46.103 115.859 46.103C115.577 46.103 115.349 46.166 115.175 46.292C115.007 46.418 114.923 46.586 114.923 46.796C114.923 46.928 114.953 47.036 115.013 47.12C115.079 47.198 115.184 47.27 115.328 47.336C115.478 47.396 115.691 47.456 115.967 47.516C116.375 47.606 116.69 47.705 116.912 47.813C117.14 47.921 117.302 48.053 117.398 48.209C117.494 48.365 117.542 48.563 117.542 48.803C117.542 49.181 117.383 49.487 117.065 49.721C116.747 49.949 116.327 50.063 115.805 50.063ZM121.984 45.527C122.098 45.527 122.185 45.56 122.245 45.626C122.311 45.692 122.344 45.779 122.344 45.887V49.694C122.344 49.796 122.311 49.88 122.245 49.946C122.185 50.012 122.098 50.045 121.984 50.045C121.876 50.045 121.789 50.015 121.723 49.955C121.663 49.889 121.633 49.805 121.633 49.703V49.253C121.495 49.517 121.3 49.718 121.048 49.856C120.802 49.994 120.523 50.063 120.211 50.063C119.689 50.063 119.296 49.919 119.032 49.631C118.768 49.337 118.636 48.905 118.636 48.335V45.887C118.636 45.779 118.669 45.692 118.735 45.626C118.801 45.56 118.891 45.527 119.005 45.527C119.119 45.527 119.206 45.56 119.266 45.626C119.332 45.692 119.365 45.779 119.365 45.887V48.317C119.365 48.707 119.443 48.995 119.599 49.181C119.755 49.361 120.001 49.451 120.337 49.451C120.721 49.451 121.03 49.328 121.264 49.082C121.498 48.83 121.615 48.5 121.615 48.092V45.887C121.615 45.779 121.648 45.692 121.714 45.626C121.78 45.56 121.87 45.527 121.984 45.527ZM125.507 50.063C125.099 50.063 124.736 49.97 124.418 49.784C124.106 49.598 123.863 49.334 123.689 48.992C123.521 48.65 123.437 48.254 123.437 47.804C123.437 47.354 123.524 46.955 123.698 46.607C123.878 46.259 124.127 45.989 124.445 45.797C124.763 45.605 125.129 45.509 125.543 45.509C125.771 45.509 125.996 45.542 126.218 45.608C126.446 45.668 126.644 45.758 126.812 45.878C126.92 45.95 126.995 46.022 127.037 46.094C127.085 46.16 127.109 46.235 127.109 46.319C127.109 46.403 127.085 46.472 127.037 46.526C126.995 46.58 126.938 46.607 126.866 46.607C126.824 46.607 126.779 46.595 126.731 46.571C126.683 46.547 126.641 46.523 126.605 46.499C126.575 46.475 126.554 46.46 126.542 46.454C126.386 46.352 126.236 46.271 126.092 46.211C125.954 46.151 125.783 46.121 125.579 46.121C125.141 46.121 124.799 46.271 124.553 46.571C124.313 46.865 124.193 47.276 124.193 47.804C124.193 48.332 124.313 48.74 124.553 49.028C124.799 49.316 125.141 49.46 125.579 49.46C125.783 49.46 125.957 49.43 126.101 49.37C126.251 49.31 126.401 49.229 126.551 49.127C126.617 49.085 126.68 49.049 126.74 49.019C126.8 48.989 126.851 48.974 126.893 48.974C126.959 48.974 127.013 49.001 127.055 49.055C127.103 49.109 127.127 49.178 127.127 49.262C127.127 49.34 127.106 49.412 127.064 49.478C127.022 49.538 126.944 49.607 126.83 49.685C126.662 49.799 126.458 49.892 126.218 49.964C125.984 50.03 125.747 50.063 125.507 50.063ZM130.219 45.509C130.735 45.509 131.125 45.656 131.389 45.95C131.653 46.238 131.785 46.67 131.785 47.246V49.685C131.785 49.799 131.752 49.889 131.686 49.955C131.62 50.015 131.533 50.045 131.425 50.045C131.311 50.045 131.221 50.015 131.155 49.955C131.089 49.889 131.056 49.799 131.056 49.685V47.264C131.056 46.874 130.975 46.586 130.813 46.4C130.657 46.214 130.405 46.121 130.057 46.121C129.655 46.121 129.334 46.244 129.094 46.49C128.854 46.736 128.734 47.069 128.734 47.489V49.685C128.734 49.799 128.701 49.889 128.635 49.955C128.575 50.015 128.488 50.045 128.374 50.045C128.26 50.045 128.17 50.015 128.104 49.955C128.038 49.889 128.005 49.799 128.005 49.685V43.961C128.005 43.859 128.038 43.775 128.104 43.709C128.176 43.643 128.266 43.61 128.374 43.61C128.488 43.61 128.575 43.643 128.635 43.709C128.701 43.769 128.734 43.853 128.734 43.961V46.319C128.878 46.055 129.079 45.854 129.337 45.716C129.595 45.578 129.889 45.509 130.219 45.509ZM137.232 45.509C138.33 45.509 138.879 46.085 138.879 47.237V49.685C138.879 49.793 138.846 49.88 138.78 49.946C138.72 50.012 138.636 50.045 138.528 50.045C138.42 50.045 138.333 50.012 138.267 49.946C138.201 49.88 138.168 49.793 138.168 49.685V49.253C138.054 49.511 137.88 49.712 137.646 49.856C137.412 49.994 137.142 50.063 136.836 50.063C136.554 50.063 136.293 50.006 136.053 49.892C135.819 49.778 135.633 49.619 135.495 49.415C135.357 49.211 135.288 48.986 135.288 48.74C135.288 48.41 135.372 48.155 135.54 47.975C135.708 47.789 135.984 47.657 136.368 47.579C136.752 47.495 137.286 47.453 137.97 47.453H138.168V47.156C138.168 46.796 138.093 46.532 137.943 46.364C137.799 46.196 137.562 46.112 137.232 46.112C136.824 46.112 136.41 46.223 135.99 46.445C135.828 46.547 135.714 46.598 135.648 46.598C135.576 46.598 135.516 46.571 135.468 46.517C135.42 46.463 135.396 46.394 135.396 46.31C135.396 46.226 135.42 46.154 135.468 46.094C135.522 46.028 135.606 45.962 135.72 45.896C135.93 45.776 136.167 45.683 136.431 45.617C136.701 45.545 136.968 45.509 137.232 45.509ZM136.935 49.487C137.295 49.487 137.589 49.367 137.817 49.127C138.051 48.881 138.168 48.566 138.168 48.182V47.921H138.006C137.478 47.921 137.076 47.945 136.8 47.993C136.524 48.035 136.326 48.11 136.206 48.218C136.092 48.32 136.035 48.473 136.035 48.677C136.035 48.911 136.119 49.106 136.287 49.262C136.461 49.412 136.677 49.487 136.935 49.487ZM144.738 45.509C145.122 45.509 145.461 45.602 145.755 45.788C146.049 45.974 146.277 46.238 146.439 46.58C146.601 46.922 146.682 47.318 146.682 47.768C146.682 48.224 146.601 48.626 146.439 48.974C146.277 49.316 146.049 49.583 145.755 49.775C145.461 49.967 145.122 50.063 144.738 50.063C144.396 50.063 144.096 49.988 143.838 49.838C143.586 49.688 143.394 49.475 143.262 49.199V49.685C143.262 49.793 143.229 49.88 143.163 49.946C143.103 50.012 143.016 50.045 142.902 50.045C142.788 50.045 142.698 50.012 142.632 49.946C142.566 49.88 142.533 49.793 142.533 49.685V43.961C142.533 43.859 142.566 43.775 142.632 43.709C142.698 43.643 142.788 43.61 142.902 43.61C143.016 43.61 143.103 43.643 143.163 43.709C143.229 43.769 143.262 43.853 143.262 43.961V46.373C143.394 46.097 143.586 45.884 143.838 45.734C144.096 45.584 144.396 45.509 144.738 45.509ZM144.594 49.46C145.02 49.46 145.35 49.313 145.584 49.019C145.818 48.719 145.935 48.302 145.935 47.768C145.935 47.246 145.818 46.841 145.584 46.553C145.35 46.265 145.02 46.121 144.594 46.121C144.168 46.121 143.838 46.265 143.604 46.553C143.376 46.841 143.262 47.252 143.262 47.786C143.262 48.32 143.376 48.734 143.604 49.028C143.838 49.316 144.168 49.46 144.594 49.46ZM151.102 45.527C151.216 45.527 151.303 45.56 151.363 45.626C151.429 45.692 151.462 45.779 151.462 45.887V49.694C151.462 49.796 151.429 49.88 151.363 49.946C151.303 50.012 151.216 50.045 151.102 50.045C150.994 50.045 150.907 50.015 150.841 49.955C150.781 49.889 150.751 49.805 150.751 49.703V49.253C150.613 49.517 150.418 49.718 150.166 49.856C149.92 49.994 149.641 50.063 149.329 50.063C148.807 50.063 148.414 49.919 148.15 49.631C147.886 49.337 147.754 48.905 147.754 48.335V45.887C147.754 45.779 147.787 45.692 147.853 45.626C147.919 45.56 148.009 45.527 148.123 45.527C148.237 45.527 148.324 45.56 148.384 45.626C148.45 45.692 148.483 45.779 148.483 45.887V48.317C148.483 48.707 148.561 48.995 148.717 49.181C148.873 49.361 149.119 49.451 149.455 49.451C149.839 49.451 150.148 49.328 150.382 49.082C150.616 48.83 150.733 48.5 150.733 48.092V45.887C150.733 45.779 150.766 45.692 150.832 45.626C150.898 45.56 150.988 45.527 151.102 45.527ZM154.293 50.063C154.017 50.063 153.753 50.03 153.501 49.964C153.255 49.898 153.036 49.805 152.844 49.685C152.736 49.613 152.658 49.547 152.61 49.487C152.568 49.421 152.547 49.343 152.547 49.253C152.547 49.175 152.568 49.112 152.61 49.064C152.658 49.01 152.718 48.983 152.79 48.983C152.862 48.983 152.967 49.028 153.105 49.118C153.285 49.226 153.462 49.313 153.636 49.379C153.816 49.439 154.038 49.469 154.302 49.469C154.626 49.469 154.878 49.412 155.058 49.298C155.238 49.184 155.328 49.019 155.328 48.803C155.328 48.671 155.295 48.566 155.229 48.488C155.163 48.404 155.049 48.332 154.887 48.272C154.725 48.206 154.488 48.14 154.176 48.074C153.648 47.96 153.27 47.807 153.042 47.615C152.814 47.423 152.7 47.162 152.7 46.832C152.7 46.574 152.772 46.346 152.916 46.148C153.06 45.95 153.258 45.794 153.51 45.68C153.768 45.566 154.059 45.509 154.383 45.509C154.617 45.509 154.842 45.542 155.058 45.608C155.28 45.668 155.475 45.755 155.643 45.869C155.847 46.013 155.949 46.163 155.949 46.319C155.949 46.397 155.925 46.463 155.877 46.517C155.829 46.571 155.772 46.598 155.706 46.598C155.634 46.598 155.526 46.547 155.382 46.445C155.214 46.337 155.055 46.253 154.905 46.193C154.755 46.133 154.569 46.103 154.347 46.103C154.065 46.103 153.837 46.166 153.663 46.292C153.495 46.418 153.411 46.586 153.411 46.796C153.411 46.928 153.441 47.036 153.501 47.12C153.567 47.198 153.672 47.27 153.816 47.336C153.966 47.396 154.179 47.456 154.455 47.516C154.863 47.606 155.178 47.705 155.4 47.813C155.628 47.921 155.79 48.053 155.886 48.209C155.982 48.365 156.03 48.563 156.03 48.803C156.03 49.181 155.871 49.487 155.553 49.721C155.235 49.949 154.815 50.063 154.293 50.063ZM160.221 45.752C160.287 45.608 160.392 45.536 160.536 45.536C160.626 45.536 160.707 45.566 160.779 45.626C160.851 45.686 160.887 45.761 160.887 45.851C160.887 45.905 160.875 45.953 160.851 45.995L158.322 51.449C158.292 51.515 158.247 51.566 158.187 51.602C158.133 51.638 158.076 51.656 158.016 51.656C157.926 51.656 157.845 51.626 157.773 51.566C157.707 51.512 157.674 51.44 157.674 51.35C157.674 51.302 157.686 51.254 157.71 51.206L158.34 49.847L156.558 45.995C156.534 45.953 156.522 45.908 156.522 45.86C156.522 45.77 156.561 45.692 156.639 45.626C156.723 45.56 156.813 45.527 156.909 45.527C156.969 45.527 157.026 45.545 157.08 45.581C157.14 45.617 157.185 45.668 157.215 45.734L158.718 49.109L160.221 45.752ZM169.999 45.761C170.059 45.617 170.158 45.545 170.296 45.545C170.386 45.545 170.467 45.575 170.539 45.635C170.611 45.695 170.647 45.77 170.647 45.86C170.647 45.902 170.638 45.947 170.62 45.995L169.126 49.775C169.09 49.853 169.036 49.916 168.964 49.964C168.898 50.006 168.823 50.027 168.739 50.027C168.661 50.027 168.586 50.006 168.514 49.964C168.448 49.916 168.397 49.853 168.361 49.775L167.119 46.616L165.886 49.775C165.856 49.853 165.805 49.916 165.733 49.964C165.661 50.006 165.583 50.027 165.499 50.027C165.421 50.027 165.346 50.006 165.274 49.964C165.202 49.916 165.148 49.853 165.112 49.775L163.618 46.004C163.6 45.956 163.591 45.914 163.591 45.878C163.591 45.782 163.63 45.701 163.708 45.635C163.792 45.569 163.882 45.536 163.978 45.536C164.122 45.536 164.224 45.608 164.284 45.752L165.517 49.073L166.786 45.779C166.822 45.701 166.87 45.641 166.93 45.599C166.996 45.557 167.065 45.536 167.137 45.536C167.215 45.536 167.284 45.557 167.344 45.599C167.41 45.641 167.458 45.701 167.488 45.779L168.757 49.064L169.999 45.761ZM174.922 48.983C174.988 48.983 175.045 49.01 175.093 49.064C175.141 49.118 175.165 49.187 175.165 49.271C175.165 49.421 175.06 49.559 174.85 49.685C174.634 49.811 174.406 49.907 174.166 49.973C173.926 50.033 173.692 50.063 173.464 50.063C172.786 50.063 172.249 49.862 171.853 49.46C171.463 49.058 171.268 48.503 171.268 47.795C171.268 47.345 171.355 46.949 171.529 46.607C171.703 46.259 171.946 45.989 172.258 45.797C172.576 45.605 172.936 45.509 173.338 45.509C173.908 45.509 174.361 45.695 174.697 46.067C175.033 46.439 175.201 46.943 175.201 47.579C175.201 47.699 175.177 47.786 175.129 47.84C175.081 47.894 175.003 47.921 174.895 47.921H171.997C172.051 48.953 172.54 49.469 173.464 49.469C173.698 49.469 173.899 49.439 174.067 49.379C174.235 49.313 174.415 49.226 174.607 49.118C174.763 49.028 174.868 48.983 174.922 48.983ZM173.347 46.076C172.963 46.076 172.654 46.196 172.42 46.436C172.192 46.676 172.057 47.015 172.015 47.453H174.562C174.55 47.009 174.439 46.67 174.229 46.436C174.019 46.196 173.725 46.076 173.347 46.076ZM179.668 48.983C179.734 48.983 179.791 49.01 179.839 49.064C179.887 49.118 179.911 49.187 179.911 49.271C179.911 49.421 179.806 49.559 179.596 49.685C179.38 49.811 179.152 49.907 178.912 49.973C178.672 50.033 178.438 50.063 178.21 50.063C177.532 50.063 176.995 49.862 176.599 49.46C176.209 49.058 176.014 48.503 176.014 47.795C176.014 47.345 176.101 46.949 176.275 46.607C176.449 46.259 176.692 45.989 177.004 45.797C177.322 45.605 177.682 45.509 178.084 45.509C178.654 45.509 179.107 45.695 179.443 46.067C179.779 46.439 179.947 46.943 179.947 47.579C179.947 47.699 179.923 47.786 179.875 47.84C179.827 47.894 179.749 47.921 179.641 47.921H176.743C176.797 48.953 177.286 49.469 178.21 49.469C178.444 49.469 178.645 49.439 178.813 49.379C178.981 49.313 179.161 49.226 179.353 49.118C179.509 49.028 179.614 48.983 179.668 48.983ZM178.093 46.076C177.709 46.076 177.4 46.196 177.166 46.436C176.938 46.676 176.803 47.015 176.761 47.453H179.308C179.296 47.009 179.185 46.67 178.975 46.436C178.765 46.196 178.471 46.076 178.093 46.076ZM184.522 49.424C184.618 49.514 184.666 49.61 184.666 49.712C184.666 49.802 184.633 49.88 184.567 49.946C184.507 50.012 184.432 50.045 184.342 50.045C184.264 50.045 184.183 50.009 184.099 49.937L181.75 47.912V49.685C181.75 49.799 181.714 49.889 181.642 49.955C181.576 50.015 181.492 50.045 181.39 50.045C181.282 50.045 181.192 50.015 181.12 49.955C181.054 49.889 181.021 49.799 181.021 49.685V43.97C181.021 43.856 181.054 43.769 181.12 43.709C181.192 43.643 181.282 43.61 181.39 43.61C181.492 43.61 181.576 43.643 181.642 43.709C181.714 43.769 181.75 43.856 181.75 43.97V47.624L183.901 45.653C183.973 45.581 184.054 45.545 184.144 45.545C184.234 45.545 184.312 45.578 184.378 45.644C184.444 45.71 184.477 45.788 184.477 45.878C184.477 45.98 184.435 46.07 184.351 46.148L182.578 47.732L184.522 49.424ZM185.977 50.045C185.833 50.045 185.713 50 185.617 49.91C185.521 49.814 185.473 49.691 185.473 49.541C185.473 49.391 185.521 49.268 185.617 49.172C185.713 49.076 185.833 49.028 185.977 49.028C186.115 49.028 186.229 49.076 186.319 49.172C186.415 49.268 186.463 49.391 186.463 49.541C186.463 49.691 186.415 49.814 186.319 49.91C186.229 50 186.115 50.045 185.977 50.045ZM190.471 50.045C190.357 50.045 190.267 50.012 190.201 49.946C190.135 49.874 190.102 49.781 190.102 49.667V43.988C190.102 43.874 190.135 43.784 190.201 43.718C190.267 43.646 190.357 43.61 190.471 43.61C190.585 43.61 190.675 43.646 190.741 43.718C190.807 43.784 190.84 43.874 190.84 43.988V49.667C190.84 49.781 190.807 49.874 190.741 49.946C190.675 50.012 190.585 50.045 190.471 50.045ZM196.426 50.063C196.018 50.063 195.655 49.97 195.337 49.784C195.025 49.598 194.782 49.334 194.608 48.992C194.44 48.65 194.356 48.254 194.356 47.804C194.356 47.354 194.443 46.955 194.617 46.607C194.797 46.259 195.046 45.989 195.364 45.797C195.682 45.605 196.048 45.509 196.462 45.509C196.69 45.509 196.915 45.542 197.137 45.608C197.365 45.668 197.563 45.758 197.731 45.878C197.839 45.95 197.914 46.022 197.956 46.094C198.004 46.16 198.028 46.235 198.028 46.319C198.028 46.403 198.004 46.472 197.956 46.526C197.914 46.58 197.857 46.607 197.785 46.607C197.743 46.607 197.698 46.595 197.65 46.571C197.602 46.547 197.56 46.523 197.524 46.499C197.494 46.475 197.473 46.46 197.461 46.454C197.305 46.352 197.155 46.271 197.011 46.211C196.873 46.151 196.702 46.121 196.498 46.121C196.06 46.121 195.718 46.271 195.472 46.571C195.232 46.865 195.112 47.276 195.112 47.804C195.112 48.332 195.232 48.74 195.472 49.028C195.718 49.316 196.06 49.46 196.498 49.46C196.702 49.46 196.876 49.43 197.02 49.37C197.17 49.31 197.32 49.229 197.47 49.127C197.536 49.085 197.599 49.049 197.659 49.019C197.719 48.989 197.77 48.974 197.812 48.974C197.878 48.974 197.932 49.001 197.974 49.055C198.022 49.109 198.046 49.178 198.046 49.262C198.046 49.34 198.025 49.412 197.983 49.478C197.941 49.538 197.863 49.607 197.749 49.685C197.581 49.799 197.377 49.892 197.137 49.964C196.903 50.03 196.666 50.063 196.426 50.063ZM200.715 45.509C201.813 45.509 202.362 46.085 202.362 47.237V49.685C202.362 49.793 202.329 49.88 202.263 49.946C202.203 50.012 202.119 50.045 202.011 50.045C201.903 50.045 201.816 50.012 201.75 49.946C201.684 49.88 201.651 49.793 201.651 49.685V49.253C201.537 49.511 201.363 49.712 201.129 49.856C200.895 49.994 200.625 50.063 200.319 50.063C200.037 50.063 199.776 50.006 199.536 49.892C199.302 49.778 199.116 49.619 198.978 49.415C198.84 49.211 198.771 48.986 198.771 48.74C198.771 48.41 198.855 48.155 199.023 47.975C199.191 47.789 199.467 47.657 199.851 47.579C200.235 47.495 200.769 47.453 201.453 47.453H201.651V47.156C201.651 46.796 201.576 46.532 201.426 46.364C201.282 46.196 201.045 46.112 200.715 46.112C200.307 46.112 199.893 46.223 199.473 46.445C199.311 46.547 199.197 46.598 199.131 46.598C199.059 46.598 198.999 46.571 198.951 46.517C198.903 46.463 198.879 46.394 198.879 46.31C198.879 46.226 198.903 46.154 198.951 46.094C199.005 46.028 199.089 45.962 199.203 45.896C199.413 45.776 199.65 45.683 199.914 45.617C200.184 45.545 200.451 45.509 200.715 45.509ZM200.418 49.487C200.778 49.487 201.072 49.367 201.3 49.127C201.534 48.881 201.651 48.566 201.651 48.182V47.921H201.489C200.961 47.921 200.559 47.945 200.283 47.993C200.007 48.035 199.809 48.11 199.689 48.218C199.575 48.32 199.518 48.473 199.518 48.677C199.518 48.911 199.602 49.106 199.77 49.262C199.944 49.412 200.16 49.487 200.418 49.487ZM205.901 45.509C206.951 45.509 207.476 46.088 207.476 47.246V49.685C207.476 49.799 207.443 49.889 207.377 49.955C207.317 50.015 207.23 50.045 207.116 50.045C207.002 50.045 206.912 50.015 206.846 49.955C206.78 49.889 206.747 49.799 206.747 49.685V47.291C206.747 46.883 206.666 46.586 206.504 46.4C206.348 46.214 206.096 46.121 205.748 46.121C205.346 46.121 205.025 46.244 204.785 46.49C204.545 46.736 204.425 47.069 204.425 47.489V49.685C204.425 49.799 204.392 49.889 204.326 49.955C204.266 50.015 204.179 50.045 204.065 50.045C203.951 50.045 203.861 50.015 203.795 49.955C203.729 49.889 203.696 49.799 203.696 49.685V45.887C203.696 45.779 203.729 45.692 203.795 45.626C203.861 45.56 203.951 45.527 204.065 45.527C204.173 45.527 204.257 45.56 204.317 45.626C204.383 45.692 204.416 45.776 204.416 45.878V46.337C204.56 46.067 204.761 45.863 205.019 45.725C205.277 45.581 205.571 45.509 205.901 45.509ZM209.172 50.045C209.028 50.045 208.908 50 208.812 49.91C208.716 49.814 208.668 49.691 208.668 49.541C208.668 49.391 208.716 49.268 208.812 49.172C208.908 49.076 209.028 49.028 209.172 49.028C209.31 49.028 209.424 49.076 209.514 49.172C209.61 49.268 209.658 49.391 209.658 49.541C209.658 49.691 209.61 49.814 209.514 49.91C209.424 50 209.31 50.045 209.172 50.045ZM211.233 50.045C211.089 50.045 210.969 50 210.873 49.91C210.777 49.814 210.729 49.691 210.729 49.541C210.729 49.391 210.777 49.268 210.873 49.172C210.969 49.076 211.089 49.028 211.233 49.028C211.371 49.028 211.485 49.076 211.575 49.172C211.671 49.268 211.719 49.391 211.719 49.541C211.719 49.691 211.671 49.814 211.575 49.91C211.485 50 211.371 50.045 211.233 50.045ZM213.294 50.045C213.15 50.045 213.03 50 212.934 49.91C212.838 49.814 212.79 49.691 212.79 49.541C212.79 49.391 212.838 49.268 212.934 49.172C213.03 49.076 213.15 49.028 213.294 49.028C213.432 49.028 213.546 49.076 213.636 49.172C213.732 49.268 213.78 49.391 213.78 49.541C213.78 49.691 213.732 49.814 213.636 49.91C213.546 50 213.432 50.045 213.294 50.045Z" fill="#234CAD"/>
<path d="M83.424 24.48C83.648 24.48 83.828 24.552 83.964 24.696C84.1 24.832 84.168 25.016 84.168 25.248V32.352C84.168 32.576 84.104 32.752 83.976 32.88C83.848 33.008 83.68 33.072 83.472 33.072C83.264 33.072 83.1 33.008 82.98 32.88C82.86 32.752 82.8 32.576 82.8 32.352V27.408L80.76 31.272C80.664 31.448 80.56 31.58 80.448 31.668C80.336 31.748 80.204 31.788 80.052 31.788C79.9 31.788 79.768 31.748 79.656 31.668C79.544 31.588 79.44 31.456 79.344 31.272L77.292 27.468V32.352C77.292 32.568 77.228 32.744 77.1 32.88C76.98 33.008 76.816 33.072 76.608 33.072C76.4 33.072 76.236 33.008 76.116 32.88C75.996 32.752 75.936 32.576 75.936 32.352V25.248C75.936 25.016 76 24.832 76.128 24.696C76.264 24.552 76.444 24.48 76.668 24.48C76.98 24.48 77.224 24.652 77.4 24.996L80.064 30.072L82.716 24.996C82.892 24.652 83.128 24.48 83.424 24.48ZM88.4138 26.988C89.2298 26.988 89.8338 27.192 90.2258 27.6C90.6258 28 90.8258 28.612 90.8258 29.436V32.364C90.8258 32.58 90.7618 32.752 90.6338 32.88C90.5058 33 90.3298 33.06 90.1058 33.06C89.8978 33.06 89.7258 32.996 89.5898 32.868C89.4618 32.74 89.3978 32.572 89.3978 32.364V32.1C89.2618 32.412 89.0458 32.656 88.7498 32.832C88.4618 33.008 88.1258 33.096 87.7418 33.096C87.3498 33.096 86.9938 33.016 86.6738 32.856C86.3538 32.696 86.1018 32.476 85.9178 32.196C85.7338 31.916 85.6418 31.604 85.6418 31.26C85.6418 30.828 85.7498 30.488 85.9658 30.24C86.1898 29.992 86.5498 29.812 87.0458 29.7C87.5418 29.588 88.2258 29.532 89.0978 29.532H89.3978V29.256C89.3978 28.864 89.3138 28.58 89.1458 28.404C88.9778 28.22 88.7058 28.128 88.3298 28.128C88.0978 28.128 87.8618 28.164 87.6218 28.236C87.3818 28.3 87.0978 28.396 86.7698 28.524C86.5618 28.628 86.4098 28.68 86.3138 28.68C86.1698 28.68 86.0498 28.628 85.9538 28.524C85.8658 28.42 85.8218 28.284 85.8218 28.116C85.8218 27.98 85.8538 27.864 85.9178 27.768C85.9898 27.664 86.1058 27.568 86.2658 27.48C86.5458 27.328 86.8778 27.208 87.2618 27.12C87.6538 27.032 88.0378 26.988 88.4138 26.988ZM88.0418 32.016C88.4418 32.016 88.7658 31.884 89.0138 31.62C89.2698 31.348 89.3978 31 89.3978 30.576V30.324H89.1818C88.6458 30.324 88.2298 30.348 87.9338 30.396C87.6378 30.444 87.4258 30.528 87.2978 30.648C87.1698 30.768 87.1058 30.932 87.1058 31.14C87.1058 31.396 87.1938 31.608 87.3698 31.776C87.5538 31.936 87.7778 32.016 88.0418 32.016ZM95.6263 27.012C95.8343 26.996 95.9983 27.04 96.1183 27.144C96.2383 27.248 96.2983 27.404 96.2983 27.612C96.2983 27.828 96.2463 27.988 96.1423 28.092C96.0383 28.196 95.8503 28.264 95.5783 28.296L95.2183 28.332C94.7463 28.38 94.3983 28.54 94.1743 28.812C93.9583 29.084 93.8503 29.424 93.8503 29.832V32.352C93.8503 32.584 93.7783 32.764 93.6343 32.892C93.4903 33.012 93.3103 33.072 93.0943 33.072C92.8783 33.072 92.6983 33.012 92.5543 32.892C92.4183 32.764 92.3503 32.584 92.3503 32.352V27.708C92.3503 27.484 92.4183 27.312 92.5543 27.192C92.6983 27.072 92.8743 27.012 93.0823 27.012C93.2903 27.012 93.4583 27.072 93.5863 27.192C93.7143 27.304 93.7783 27.468 93.7783 27.684V28.164C93.9303 27.812 94.1543 27.54 94.4503 27.348C94.7543 27.156 95.0903 27.048 95.4583 27.024L95.6263 27.012ZM102.164 31.836C102.324 31.988 102.404 32.16 102.404 32.352C102.404 32.536 102.336 32.7 102.2 32.844C102.072 32.988 101.92 33.06 101.744 33.06C101.568 33.06 101.404 32.988 101.252 32.844L98.4441 30.3V32.352C98.4441 32.584 98.3721 32.76 98.2281 32.88C98.0841 33 97.9041 33.06 97.6881 33.06C97.4721 33.06 97.2921 33 97.1481 32.88C97.0121 32.76 96.9441 32.584 96.9441 32.352V25.188C96.9441 24.956 97.0121 24.78 97.1481 24.66C97.2921 24.54 97.4721 24.48 97.6881 24.48C97.9041 24.48 98.0841 24.54 98.2281 24.66C98.3721 24.78 98.4441 24.956 98.4441 25.188V29.7L101.012 27.24C101.156 27.096 101.32 27.024 101.504 27.024C101.688 27.024 101.848 27.092 101.984 27.228C102.12 27.364 102.188 27.524 102.188 27.708C102.188 27.892 102.112 28.06 101.96 28.212L100.076 29.964L102.164 31.836ZM110.547 33.108C109.731 33.108 109.015 32.932 108.399 32.58C107.791 32.228 107.323 31.724 106.995 31.068C106.667 30.412 106.503 29.644 106.503 28.764C106.503 27.884 106.667 27.12 106.995 26.472C107.323 25.816 107.791 25.312 108.399 24.96C109.015 24.608 109.731 24.432 110.547 24.432C111.075 24.432 111.571 24.512 112.035 24.672C112.499 24.824 112.911 25.048 113.271 25.344C113.375 25.424 113.447 25.508 113.487 25.596C113.527 25.684 113.547 25.792 113.547 25.92C113.547 26.096 113.499 26.244 113.403 26.364C113.307 26.484 113.191 26.544 113.055 26.544C112.895 26.544 112.731 26.488 112.563 26.376C112.219 26.12 111.899 25.944 111.603 25.848C111.307 25.744 110.979 25.692 110.619 25.692C109.787 25.692 109.155 25.952 108.723 26.472C108.299 26.992 108.087 27.756 108.087 28.764C108.087 29.78 108.299 30.548 108.723 31.068C109.155 31.588 109.787 31.848 110.619 31.848C110.963 31.848 111.279 31.796 111.567 31.692C111.863 31.588 112.195 31.412 112.563 31.164C112.643 31.116 112.723 31.076 112.803 31.044C112.883 31.012 112.967 30.996 113.055 30.996C113.191 30.996 113.307 31.056 113.403 31.176C113.499 31.296 113.547 31.444 113.547 31.62C113.547 31.74 113.527 31.848 113.487 31.944C113.447 32.032 113.375 32.116 113.271 32.196C112.911 32.492 112.499 32.72 112.035 32.88C111.571 33.032 111.075 33.108 110.547 33.108ZM115.512 33.072C115.296 33.072 115.116 33.012 114.972 32.892C114.836 32.764 114.768 32.584 114.768 32.352V25.188C114.768 24.956 114.836 24.78 114.972 24.66C115.116 24.54 115.296 24.48 115.512 24.48C115.728 24.48 115.908 24.54 116.052 24.66C116.196 24.78 116.268 24.956 116.268 25.188V32.352C116.268 32.584 116.196 32.764 116.052 32.892C115.908 33.012 115.728 33.072 115.512 33.072ZM120.359 26.988C121.175 26.988 121.779 27.192 122.171 27.6C122.571 28 122.771 28.612 122.771 29.436V32.364C122.771 32.58 122.707 32.752 122.579 32.88C122.451 33 122.275 33.06 122.051 33.06C121.843 33.06 121.671 32.996 121.535 32.868C121.407 32.74 121.343 32.572 121.343 32.364V32.1C121.207 32.412 120.991 32.656 120.695 32.832C120.407 33.008 120.071 33.096 119.687 33.096C119.295 33.096 118.939 33.016 118.619 32.856C118.299 32.696 118.047 32.476 117.863 32.196C117.679 31.916 117.587 31.604 117.587 31.26C117.587 30.828 117.695 30.488 117.911 30.24C118.135 29.992 118.495 29.812 118.991 29.7C119.487 29.588 120.171 29.532 121.043 29.532H121.343V29.256C121.343 28.864 121.259 28.58 121.091 28.404C120.923 28.22 120.651 28.128 120.275 28.128C120.043 28.128 119.807 28.164 119.567 28.236C119.327 28.3 119.043 28.396 118.715 28.524C118.507 28.628 118.355 28.68 118.259 28.68C118.115 28.68 117.995 28.628 117.899 28.524C117.811 28.42 117.767 28.284 117.767 28.116C117.767 27.98 117.799 27.864 117.863 27.768C117.935 27.664 118.051 27.568 118.211 27.48C118.491 27.328 118.823 27.208 119.207 27.12C119.599 27.032 119.983 26.988 120.359 26.988ZM119.987 32.016C120.387 32.016 120.711 31.884 120.959 31.62C121.215 31.348 121.343 31 121.343 30.576V30.324H121.127C120.591 30.324 120.175 30.348 119.879 30.396C119.583 30.444 119.371 30.528 119.243 30.648C119.115 30.768 119.051 30.932 119.051 31.14C119.051 31.396 119.139 31.608 119.315 31.776C119.499 31.936 119.723 32.016 119.987 32.016ZM127.572 27.012C127.78 26.996 127.944 27.04 128.064 27.144C128.184 27.248 128.244 27.404 128.244 27.612C128.244 27.828 128.192 27.988 128.088 28.092C127.984 28.196 127.796 28.264 127.524 28.296L127.164 28.332C126.692 28.38 126.344 28.54 126.12 28.812C125.904 29.084 125.796 29.424 125.796 29.832V32.352C125.796 32.584 125.724 32.764 125.58 32.892C125.436 33.012 125.256 33.072 125.04 33.072C124.824 33.072 124.644 33.012 124.5 32.892C124.364 32.764 124.296 32.584 124.296 32.352V27.708C124.296 27.484 124.364 27.312 124.5 27.192C124.644 27.072 124.82 27.012 125.028 27.012C125.236 27.012 125.404 27.072 125.532 27.192C125.66 27.304 125.724 27.468 125.724 27.684V28.164C125.876 27.812 126.1 27.54 126.396 27.348C126.7 27.156 127.036 27.048 127.404 27.024L127.572 27.012ZM134.109 31.836C134.269 31.988 134.349 32.16 134.349 32.352C134.349 32.536 134.281 32.7 134.145 32.844C134.017 32.988 133.865 33.06 133.689 33.06C133.513 33.06 133.349 32.988 133.197 32.844L130.389 30.3V32.352C130.389 32.584 130.317 32.76 130.173 32.88C130.029 33 129.849 33.06 129.633 33.06C129.417 33.06 129.237 33 129.093 32.88C128.957 32.76 128.889 32.584 128.889 32.352V25.188C128.889 24.956 128.957 24.78 129.093 24.66C129.237 24.54 129.417 24.48 129.633 24.48C129.849 24.48 130.029 24.54 130.173 24.66C130.317 24.78 130.389 24.956 130.389 25.188V29.7L132.957 27.24C133.101 27.096 133.265 27.024 133.449 27.024C133.633 27.024 133.793 27.092 133.929 27.228C134.065 27.364 134.133 27.524 134.133 27.708C134.133 27.892 134.057 28.06 133.905 28.212L132.021 29.964L134.109 31.836ZM139.885 31.392C140.021 31.392 140.129 31.444 140.209 31.548C140.297 31.652 140.341 31.792 140.341 31.968C140.341 32.216 140.193 32.424 139.897 32.592C139.625 32.744 139.317 32.868 138.973 32.964C138.629 33.052 138.301 33.096 137.989 33.096C137.045 33.096 136.297 32.824 135.745 32.28C135.193 31.736 134.917 30.992 134.917 30.048C134.917 29.448 135.037 28.916 135.277 28.452C135.517 27.988 135.853 27.628 136.285 27.372C136.725 27.116 137.221 26.988 137.773 26.988C138.301 26.988 138.761 27.104 139.153 27.336C139.545 27.568 139.849 27.896 140.065 28.32C140.281 28.744 140.389 29.244 140.389 29.82C140.389 30.164 140.237 30.336 139.933 30.336H136.393C136.441 30.888 136.597 31.296 136.861 31.56C137.125 31.816 137.509 31.944 138.013 31.944C138.269 31.944 138.493 31.912 138.685 31.848C138.885 31.784 139.109 31.696 139.357 31.584C139.597 31.456 139.773 31.392 139.885 31.392ZM137.809 28.044C137.401 28.044 137.073 28.172 136.825 28.428C136.585 28.684 136.441 29.052 136.393 29.532H139.105C139.089 29.044 138.969 28.676 138.745 28.428C138.521 28.172 138.209 28.044 137.809 28.044Z" fill="#234CAD"/>
</g>
</g>
<g clip-path="url(#clip2_1_33)">
<circle cx="37.5" cy="37.5" r="22.5" fill="#F2F6FF"/>
<path d="M37.126 32.77C37.3687 32.77 37.5637 32.848 37.711 33.004C37.8583 33.1513 37.932 33.3507 37.932 33.602V41.298C37.932 41.5407 37.8627 41.7313 37.724 41.87C37.5853 42.0087 37.4033 42.078 37.178 42.078C36.9527 42.078 36.775 42.0087 36.645 41.87C36.515 41.7313 36.45 41.5407 36.45 41.298V35.942L34.24 40.128C34.136 40.3187 34.0233 40.4617 33.902 40.557C33.7807 40.6437 33.6377 40.687 33.473 40.687C33.3083 40.687 33.1653 40.6437 33.044 40.557C32.9227 40.4703 32.81 40.3273 32.706 40.128L30.483 36.007V41.298C30.483 41.532 30.4137 41.7227 30.275 41.87C30.145 42.0087 29.9673 42.078 29.742 42.078C29.5167 42.078 29.339 42.0087 29.209 41.87C29.079 41.7313 29.014 41.5407 29.014 41.298V33.602C29.014 33.3507 29.0833 33.1513 29.222 33.004C29.3693 32.848 29.5643 32.77 29.807 32.77C30.145 32.77 30.4093 32.9563 30.6 33.329L33.486 38.828L36.359 33.329C36.5497 32.9563 36.8053 32.77 37.126 32.77ZM44.0137 42.117C43.1297 42.117 42.354 41.9263 41.6867 41.545C41.028 41.1637 40.521 40.6177 40.1657 39.907C39.8103 39.1963 39.6327 38.3643 39.6327 37.411C39.6327 36.4577 39.8103 35.63 40.1657 34.928C40.521 34.2173 41.028 33.6713 41.6867 33.29C42.354 32.9087 43.1297 32.718 44.0137 32.718C44.5857 32.718 45.123 32.8047 45.6257 32.978C46.1283 33.1427 46.5747 33.3853 46.9647 33.706C47.0773 33.7927 47.1553 33.8837 47.1987 33.979C47.242 34.0743 47.2637 34.1913 47.2637 34.33C47.2637 34.5207 47.2117 34.681 47.1077 34.811C47.0037 34.941 46.878 35.006 46.7307 35.006C46.5573 35.006 46.3797 34.9453 46.1977 34.824C45.825 34.5467 45.4783 34.356 45.1577 34.252C44.837 34.1393 44.4817 34.083 44.0917 34.083C43.1903 34.083 42.5057 34.3647 42.0377 34.928C41.5783 35.4913 41.3487 36.319 41.3487 37.411C41.3487 38.5117 41.5783 39.3437 42.0377 39.907C42.5057 40.4703 43.1903 40.752 44.0917 40.752C44.4643 40.752 44.8067 40.6957 45.1187 40.583C45.4393 40.4703 45.799 40.2797 46.1977 40.011C46.2843 39.959 46.371 39.9157 46.4577 39.881C46.5443 39.8463 46.6353 39.829 46.7307 39.829C46.878 39.829 47.0037 39.894 47.1077 40.024C47.2117 40.154 47.2637 40.3143 47.2637 40.505C47.2637 40.635 47.242 40.752 47.1987 40.856C47.1553 40.9513 47.0773 41.0423 46.9647 41.129C46.5747 41.4497 46.1283 41.6967 45.6257 41.87C45.123 42.0347 44.5857 42.117 44.0137 42.117Z" fill="#234CAD"/>
</g>
<g clip-path="url(#clip3_1_33)">
<circle cx="54" cy="21" r="5.25" fill="#234CAD" stroke="white" stroke-width="1.5"/>
<path d="M55.1 21.048C55.18 21.048 55.24 21.0653 55.28 21.1C55.32 21.1347 55.34 21.184 55.34 21.248C55.34 21.3813 55.26 21.448 55.1 21.448H54.896V21.764C54.896 21.8467 54.872 21.9107 54.824 21.956C54.7787 22.0013 54.7187 22.024 54.644 22.024C54.5693 22.024 54.508 22.0013 54.46 21.956C54.4147 21.9107 54.392 21.8467 54.392 21.764V21.448H53.344C53.272 21.448 53.216 21.428 53.176 21.388C53.136 21.3453 53.116 21.2933 53.116 21.232C53.116 21.168 53.1373 21.1067 53.18 21.048L54.416 19.272C54.4427 19.2347 54.476 19.2067 54.516 19.188C54.556 19.1667 54.5973 19.156 54.64 19.156C54.7093 19.156 54.7693 19.1787 54.82 19.224C54.8707 19.2693 54.896 19.3333 54.896 19.416V21.048H55.1ZM53.648 21.048H54.392V19.972L53.648 21.048Z" fill="#F7FAFC"/>
</g>
</g>
<defs>
<clipPath id="clip0_1_33">
<rect width="171" height="34" fill="white" transform="translate(75 21)"/>
</clipPath>
<clipPath id="clip1_1_33">
<rect width="139" height="34" fill="white" transform="translate(75 21)"/>
</clipPath>
<clipPath id="clip2_1_33">
<rect width="45" height="45" fill="white" transform="translate(15 15)"/>
</clipPath>
<clipPath id="clip3_1_33">
<rect width="12" height="12" fill="white" transform="translate(48 15)"/>
</clipPath>
</defs>
</svg>
