<svg width="553" height="100" viewBox="0 0 553 100" fill="none" xmlns="http://www.w3.org/2000/svg">
<g clip-path="url(#clip0_1_14)">
<path d="M145.268 80.966C145.327 81.0833 145.356 81.208 145.356 81.34C145.356 81.56 145.268 81.7433 145.092 81.89C144.931 82.0367 144.733 82.11 144.498 82.11C144.131 82.11 143.875 81.934 143.728 81.582L142.166 78.018H133.872L132.288 81.582C132.141 81.934 131.885 82.11 131.518 82.11C131.283 82.11 131.078 82.0367 130.902 81.89C130.726 81.7287 130.638 81.538 130.638 81.318C130.638 81.2007 130.667 81.0833 130.726 80.966L137.018 66.974C137.106 66.7687 137.238 66.6147 137.414 66.512C137.59 66.4093 137.781 66.358 137.986 66.358C138.206 66.358 138.404 66.4167 138.58 66.534C138.756 66.6367 138.888 66.7833 138.976 66.974L145.268 80.966ZM134.532 76.522H141.506L138.008 68.624L134.532 76.522ZM148.536 82.11C148.272 82.11 148.052 82.0367 147.876 81.89C147.715 81.7287 147.634 81.5087 147.634 81.23V67.26C147.634 66.9813 147.715 66.7687 147.876 66.622C148.052 66.4607 148.272 66.38 148.536 66.38C148.786 66.38 148.991 66.4607 149.152 66.622C149.328 66.7687 149.416 66.9813 149.416 67.26V81.23C149.416 81.5087 149.328 81.7287 149.152 81.89C148.991 82.0367 148.786 82.11 148.536 82.11ZM153.65 82.11C153.386 82.11 153.166 82.0367 152.99 81.89C152.828 81.7287 152.748 81.5087 152.748 81.23V67.26C152.748 66.9813 152.828 66.7687 152.99 66.622C153.166 66.4607 153.386 66.38 153.65 66.38C153.899 66.38 154.104 66.4607 154.266 66.622C154.442 66.7687 154.53 66.9813 154.53 67.26V81.23C154.53 81.5087 154.442 81.7287 154.266 81.89C154.104 82.0367 153.899 82.11 153.65 82.11ZM171.255 71.616C171.416 71.264 171.673 71.088 172.025 71.088C172.245 71.088 172.443 71.1613 172.619 71.308C172.795 71.4547 172.883 71.638 172.883 71.858C172.883 71.99 172.853 72.1073 172.795 72.21L166.613 85.542C166.539 85.7033 166.429 85.828 166.283 85.916C166.151 86.004 166.011 86.048 165.865 86.048C165.645 86.048 165.447 85.9747 165.271 85.828C165.109 85.696 165.029 85.52 165.029 85.3C165.029 85.1827 165.058 85.0653 165.117 84.948L166.657 81.626L162.301 72.21C162.242 72.1073 162.213 71.9973 162.213 71.88C162.213 71.66 162.308 71.4693 162.499 71.308C162.704 71.1467 162.924 71.066 163.159 71.066C163.305 71.066 163.445 71.11 163.577 71.198C163.723 71.286 163.833 71.4107 163.907 71.572L167.581 79.822L171.255 71.616ZM179.149 82.154C178.137 82.154 177.242 81.9267 176.465 81.472C175.702 81.0173 175.108 80.372 174.683 79.536C174.272 78.6853 174.067 77.7027 174.067 76.588C174.067 75.4733 174.272 74.498 174.683 73.662C175.108 72.8113 175.702 72.1587 176.465 71.704C177.242 71.2493 178.137 71.022 179.149 71.022C180.161 71.022 181.055 71.2493 181.833 71.704C182.61 72.1587 183.204 72.8113 183.615 73.662C184.04 74.498 184.253 75.4733 184.253 76.588C184.253 77.7027 184.04 78.6853 183.615 79.536C183.204 80.372 182.61 81.0173 181.833 81.472C181.055 81.9267 180.161 82.154 179.149 82.154ZM179.149 80.68C180.205 80.68 181.011 80.3353 181.569 79.646C182.141 78.942 182.427 77.9227 182.427 76.588C182.427 75.2827 182.141 74.278 181.569 73.574C180.997 72.8553 180.19 72.496 179.149 72.496C178.107 72.496 177.301 72.8553 176.729 73.574C176.157 74.278 175.871 75.2827 175.871 76.588C175.871 77.908 176.149 78.92 176.707 79.624C177.279 80.328 178.093 80.68 179.149 80.68ZM195.048 71.066C195.326 71.066 195.539 71.1467 195.686 71.308C195.847 71.4693 195.928 71.682 195.928 71.946V81.252C195.928 81.5013 195.847 81.7067 195.686 81.868C195.539 82.0293 195.326 82.11 195.048 82.11C194.784 82.11 194.571 82.0367 194.41 81.89C194.263 81.7287 194.19 81.5233 194.19 81.274V80.174C193.852 80.8193 193.376 81.3107 192.76 81.648C192.158 81.9853 191.476 82.154 190.714 82.154C189.438 82.154 188.477 81.802 187.832 81.098C187.186 80.3793 186.864 79.3233 186.864 77.93V71.946C186.864 71.682 186.944 71.4693 187.106 71.308C187.267 71.1467 187.487 71.066 187.766 71.066C188.044 71.066 188.257 71.1467 188.404 71.308C188.565 71.4693 188.646 71.682 188.646 71.946V77.886C188.646 78.8393 188.836 79.5433 189.218 79.998C189.599 80.438 190.2 80.658 191.022 80.658C191.96 80.658 192.716 80.3573 193.288 79.756C193.86 79.14 194.146 78.3333 194.146 77.336V71.946C194.146 71.682 194.226 71.4693 194.388 71.308C194.549 71.1467 194.769 71.066 195.048 71.066ZM204.542 71.066C205.158 71.022 205.466 71.2713 205.466 71.814C205.466 72.0487 205.4 72.2393 205.268 72.386C205.136 72.518 204.909 72.5987 204.586 72.628L203.926 72.694C202.943 72.782 202.21 73.134 201.726 73.75C201.257 74.3513 201.022 75.0627 201.022 75.884V81.23C201.022 81.5233 200.941 81.7433 200.78 81.89C200.619 82.0367 200.406 82.11 200.142 82.11C199.878 82.11 199.658 82.0367 199.482 81.89C199.321 81.7287 199.24 81.5087 199.24 81.23V71.946C199.24 71.6673 199.328 71.4547 199.504 71.308C199.68 71.1467 199.893 71.066 200.142 71.066C200.377 71.066 200.575 71.1467 200.736 71.308C200.897 71.4547 200.978 71.66 200.978 71.924V73.156C201.286 72.5107 201.719 72.0193 202.276 71.682C202.848 71.3447 203.501 71.1467 204.234 71.088L204.542 71.066ZM224.592 71.022C226.968 71.022 228.156 72.4373 228.156 75.268V81.23C228.156 81.5087 228.075 81.7287 227.914 81.89C227.752 82.0367 227.54 82.11 227.276 82.11C227.012 82.11 226.792 82.0367 226.616 81.89C226.454 81.7287 226.374 81.5087 226.374 81.23V75.312C226.374 74.3293 226.198 73.618 225.846 73.178C225.494 72.738 224.944 72.518 224.196 72.518C223.301 72.518 222.597 72.8187 222.084 73.42C221.57 74.0213 221.314 74.8353 221.314 75.862V81.23C221.314 81.5087 221.226 81.7287 221.05 81.89C220.888 82.0367 220.676 82.11 220.412 82.11C220.148 82.11 219.935 82.0367 219.774 81.89C219.612 81.7287 219.532 81.5087 219.532 81.23V75.312C219.532 74.3293 219.356 73.618 219.004 73.178C218.652 72.738 218.094 72.518 217.332 72.518C216.452 72.518 215.748 72.8187 215.22 73.42C214.706 74.0213 214.45 74.8353 214.45 75.862V81.23C214.45 81.5087 214.369 81.7287 214.208 81.89C214.046 82.0367 213.834 82.11 213.57 82.11C213.306 82.11 213.086 82.0367 212.91 81.89C212.748 81.7287 212.668 81.5087 212.668 81.23V71.946C212.668 71.682 212.748 71.4693 212.91 71.308C213.086 71.1467 213.306 71.066 213.57 71.066C213.819 71.066 214.024 71.1467 214.186 71.308C214.347 71.4547 214.428 71.66 214.428 71.924V72.98C214.75 72.3493 215.198 71.8653 215.77 71.528C216.342 71.1907 217.002 71.022 217.75 71.022C219.422 71.022 220.514 71.726 221.028 73.134C221.336 72.4887 221.805 71.9753 222.436 71.594C223.066 71.2127 223.785 71.022 224.592 71.022ZM239.696 79.514C239.857 79.514 239.997 79.58 240.114 79.712C240.231 79.844 240.29 80.0127 240.29 80.218C240.29 80.5847 240.033 80.922 239.52 81.23C238.992 81.538 238.435 81.7727 237.848 81.934C237.261 82.0807 236.689 82.154 236.132 82.154C234.475 82.154 233.162 81.6627 232.194 80.68C231.241 79.6973 230.764 78.3407 230.764 76.61C230.764 75.51 230.977 74.542 231.402 73.706C231.827 72.8553 232.421 72.1953 233.184 71.726C233.961 71.2567 234.841 71.022 235.824 71.022C237.217 71.022 238.325 71.4767 239.146 72.386C239.967 73.2953 240.378 74.5273 240.378 76.082C240.378 76.3753 240.319 76.588 240.202 76.72C240.085 76.852 239.894 76.918 239.63 76.918H232.546C232.678 79.4407 233.873 80.702 236.132 80.702C236.704 80.702 237.195 80.6287 237.606 80.482C238.017 80.3207 238.457 80.108 238.926 79.844C239.307 79.624 239.564 79.514 239.696 79.514ZM235.846 72.408C234.907 72.408 234.152 72.7013 233.58 73.288C233.023 73.8747 232.693 74.7033 232.59 75.774H238.816C238.787 74.6887 238.515 73.86 238.002 73.288C237.489 72.7013 236.77 72.408 235.846 72.408ZM246.612 82.154C245.937 82.154 245.292 82.0733 244.676 81.912C244.074 81.7507 243.539 81.5233 243.07 81.23C242.806 81.054 242.615 80.8927 242.498 80.746C242.395 80.5847 242.344 80.394 242.344 80.174C242.344 79.9833 242.395 79.8293 242.498 79.712C242.615 79.58 242.762 79.514 242.938 79.514C243.114 79.514 243.37 79.624 243.708 79.844C244.148 80.108 244.58 80.3207 245.006 80.482C245.446 80.6287 245.988 80.702 246.634 80.702C247.426 80.702 248.042 80.5627 248.482 80.284C248.922 80.0053 249.142 79.602 249.142 79.074C249.142 78.7513 249.061 78.4947 248.9 78.304C248.738 78.0987 248.46 77.9227 248.064 77.776C247.668 77.6147 247.088 77.4533 246.326 77.292C245.035 77.0133 244.111 76.6393 243.554 76.17C242.996 75.7007 242.718 75.0627 242.718 74.256C242.718 73.6253 242.894 73.068 243.246 72.584C243.598 72.1 244.082 71.7187 244.698 71.44C245.328 71.1613 246.04 71.022 246.832 71.022C247.404 71.022 247.954 71.1027 248.482 71.264C249.024 71.4107 249.501 71.6233 249.912 71.902C250.41 72.254 250.66 72.6207 250.66 73.002C250.66 73.1927 250.601 73.354 250.484 73.486C250.366 73.618 250.227 73.684 250.066 73.684C249.89 73.684 249.626 73.5593 249.274 73.31C248.863 73.046 248.474 72.8407 248.108 72.694C247.741 72.5473 247.286 72.474 246.744 72.474C246.054 72.474 245.497 72.628 245.072 72.936C244.661 73.244 244.456 73.6547 244.456 74.168C244.456 74.4907 244.529 74.7547 244.676 74.96C244.837 75.1507 245.094 75.3267 245.446 75.488C245.812 75.6347 246.333 75.7813 247.008 75.928C248.005 76.148 248.775 76.39 249.318 76.654C249.875 76.918 250.271 77.2407 250.506 77.622C250.74 78.0033 250.858 78.4873 250.858 79.074C250.858 79.998 250.469 80.746 249.692 81.318C248.914 81.8753 247.888 82.154 246.612 82.154ZM257.182 82.154C256.507 82.154 255.862 82.0733 255.246 81.912C254.644 81.7507 254.109 81.5233 253.64 81.23C253.376 81.054 253.185 80.8927 253.068 80.746C252.965 80.5847 252.914 80.394 252.914 80.174C252.914 79.9833 252.965 79.8293 253.068 79.712C253.185 79.58 253.332 79.514 253.508 79.514C253.684 79.514 253.94 79.624 254.278 79.844C254.718 80.108 255.15 80.3207 255.576 80.482C256.016 80.6287 256.558 80.702 257.204 80.702C257.996 80.702 258.612 80.5627 259.052 80.284C259.492 80.0053 259.712 79.602 259.712 79.074C259.712 78.7513 259.631 78.4947 259.47 78.304C259.308 78.0987 259.03 77.9227 258.634 77.776C258.238 77.6147 257.658 77.4533 256.896 77.292C255.605 77.0133 254.681 76.6393 254.124 76.17C253.566 75.7007 253.288 75.0627 253.288 74.256C253.288 73.6253 253.464 73.068 253.816 72.584C254.168 72.1 254.652 71.7187 255.268 71.44C255.898 71.1613 256.61 71.022 257.402 71.022C257.974 71.022 258.524 71.1027 259.052 71.264C259.594 71.4107 260.071 71.6233 260.482 71.902C260.98 72.254 261.23 72.6207 261.23 73.002C261.23 73.1927 261.171 73.354 261.054 73.486C260.936 73.618 260.797 73.684 260.636 73.684C260.46 73.684 260.196 73.5593 259.844 73.31C259.433 73.046 259.044 72.8407 258.678 72.694C258.311 72.5473 257.856 72.474 257.314 72.474C256.624 72.474 256.067 72.628 255.642 72.936C255.231 73.244 255.026 73.6547 255.026 74.168C255.026 74.4907 255.099 74.7547 255.246 74.96C255.407 75.1507 255.664 75.3267 256.016 75.488C256.382 75.6347 256.903 75.7813 257.578 75.928C258.575 76.148 259.345 76.39 259.888 76.654C260.445 76.918 260.841 77.2407 261.076 77.622C261.31 78.0033 261.428 78.4873 261.428 79.074C261.428 79.998 261.039 80.746 260.262 81.318C259.484 81.8753 258.458 82.154 257.182 82.154ZM268.522 71.022C271.206 71.022 272.548 72.43 272.548 75.246V81.23C272.548 81.494 272.467 81.7067 272.306 81.868C272.159 82.0293 271.954 82.11 271.69 82.11C271.426 82.11 271.213 82.0293 271.052 81.868C270.891 81.7067 270.81 81.494 270.81 81.23V80.174C270.531 80.8047 270.106 81.296 269.534 81.648C268.962 81.9853 268.302 82.154 267.554 82.154C266.865 82.154 266.227 82.0147 265.64 81.736C265.068 81.4573 264.613 81.0687 264.276 80.57C263.939 80.0713 263.77 79.5213 263.77 78.92C263.77 78.1133 263.975 77.49 264.386 77.05C264.797 76.5953 265.471 76.2727 266.41 76.082C267.349 75.8767 268.654 75.774 270.326 75.774H270.81V75.048C270.81 74.168 270.627 73.5227 270.26 73.112C269.908 72.7013 269.329 72.496 268.522 72.496C267.525 72.496 266.513 72.7673 265.486 73.31C265.09 73.5593 264.811 73.684 264.65 73.684C264.474 73.684 264.327 73.618 264.21 73.486C264.093 73.354 264.034 73.1853 264.034 72.98C264.034 72.7747 264.093 72.5987 264.21 72.452C264.342 72.2907 264.547 72.1293 264.826 71.968C265.339 71.6747 265.919 71.4473 266.564 71.286C267.224 71.11 267.877 71.022 268.522 71.022ZM267.796 80.746C268.676 80.746 269.395 80.4527 269.952 79.866C270.524 79.2647 270.81 78.4947 270.81 77.556V76.918H270.414C269.123 76.918 268.141 76.9767 267.466 77.094C266.791 77.1967 266.307 77.38 266.014 77.644C265.735 77.8933 265.596 78.2673 265.596 78.766C265.596 79.338 265.801 79.8147 266.212 80.196C266.637 80.5627 267.165 80.746 267.796 80.746ZM284.5 71.066C284.779 71.066 284.999 71.1467 285.16 71.308C285.321 71.4693 285.402 71.682 285.402 71.946V81.274C285.402 82.8727 284.991 84.0753 284.17 84.882C283.349 85.7033 282.131 86.114 280.518 86.114C278.949 86.114 277.643 85.806 276.602 85.19C276.074 84.8967 275.81 84.5593 275.81 84.178C275.81 83.9727 275.861 83.804 275.964 83.672C276.081 83.54 276.228 83.474 276.404 83.474C276.551 83.474 276.815 83.5767 277.196 83.782C277.709 84.046 278.215 84.2587 278.714 84.42C279.213 84.5813 279.807 84.662 280.496 84.662C281.537 84.662 282.322 84.3833 282.85 83.826C283.378 83.2833 283.642 82.484 283.642 81.428V79.536C283.334 80.2253 282.857 80.7533 282.212 81.12C281.581 81.4867 280.833 81.67 279.968 81.67C279.029 81.67 278.193 81.45 277.46 81.01C276.741 80.57 276.177 79.9467 275.766 79.14C275.37 78.3333 275.172 77.402 275.172 76.346C275.172 75.29 275.37 74.3587 275.766 73.552C276.177 72.7453 276.741 72.122 277.46 71.682C278.193 71.242 279.029 71.022 279.968 71.022C280.819 71.022 281.559 71.2053 282.19 71.572C282.821 71.9387 283.297 72.4593 283.62 73.134V71.946C283.62 71.682 283.693 71.4693 283.84 71.308C284.001 71.1467 284.221 71.066 284.5 71.066ZM280.32 80.196C281.347 80.196 282.153 79.8587 282.74 79.184C283.327 78.4947 283.62 77.5487 283.62 76.346C283.62 75.158 283.327 74.2267 282.74 73.552C282.168 72.8627 281.361 72.518 280.32 72.518C279.279 72.518 278.457 72.8627 277.856 73.552C277.269 74.2267 276.976 75.158 276.976 76.346C276.976 77.5487 277.269 78.4947 277.856 79.184C278.457 79.8587 279.279 80.196 280.32 80.196ZM296.995 79.514C297.156 79.514 297.295 79.58 297.413 79.712C297.53 79.844 297.589 80.0127 297.589 80.218C297.589 80.5847 297.332 80.922 296.819 81.23C296.291 81.538 295.733 81.7727 295.147 81.934C294.56 82.0807 293.988 82.154 293.431 82.154C291.773 82.154 290.461 81.6627 289.493 80.68C288.539 79.6973 288.063 78.3407 288.063 76.61C288.063 75.51 288.275 74.542 288.701 73.706C289.126 72.8553 289.72 72.1953 290.483 71.726C291.26 71.2567 292.14 71.022 293.123 71.022C294.516 71.022 295.623 71.4767 296.445 72.386C297.266 73.2953 297.677 74.5273 297.677 76.082C297.677 76.3753 297.618 76.588 297.501 76.72C297.383 76.852 297.193 76.918 296.929 76.918H289.845C289.977 79.4407 291.172 80.702 293.431 80.702C294.003 80.702 294.494 80.6287 294.905 80.482C295.315 80.3207 295.755 80.108 296.225 79.844C296.606 79.624 296.863 79.514 296.995 79.514ZM293.145 72.408C292.206 72.408 291.451 72.7013 290.879 73.288C290.321 73.8747 289.991 74.7033 289.889 75.774H296.115C296.085 74.6887 295.814 73.86 295.301 73.288C294.787 72.7013 294.069 72.408 293.145 72.408ZM303.91 82.154C303.236 82.154 302.59 82.0733 301.974 81.912C301.373 81.7507 300.838 81.5233 300.368 81.23C300.104 81.054 299.914 80.8927 299.796 80.746C299.694 80.5847 299.642 80.394 299.642 80.174C299.642 79.9833 299.694 79.8293 299.796 79.712C299.914 79.58 300.06 79.514 300.236 79.514C300.412 79.514 300.669 79.624 301.006 79.844C301.446 80.108 301.879 80.3207 302.304 80.482C302.744 80.6287 303.287 80.702 303.932 80.702C304.724 80.702 305.34 80.5627 305.78 80.284C306.22 80.0053 306.44 79.602 306.44 79.074C306.44 78.7513 306.36 78.4947 306.198 78.304C306.037 78.0987 305.758 77.9227 305.362 77.776C304.966 77.6147 304.387 77.4533 303.624 77.292C302.334 77.0133 301.41 76.6393 300.852 76.17C300.295 75.7007 300.016 75.0627 300.016 74.256C300.016 73.6253 300.192 73.068 300.544 72.584C300.896 72.1 301.38 71.7187 301.996 71.44C302.627 71.1613 303.338 71.022 304.13 71.022C304.702 71.022 305.252 71.1027 305.78 71.264C306.323 71.4107 306.8 71.6233 307.21 71.902C307.709 72.254 307.958 72.6207 307.958 73.002C307.958 73.1927 307.9 73.354 307.782 73.486C307.665 73.618 307.526 73.684 307.364 73.684C307.188 73.684 306.924 73.5593 306.572 73.31C306.162 73.046 305.773 72.8407 305.406 72.694C305.04 72.5473 304.585 72.474 304.042 72.474C303.353 72.474 302.796 72.628 302.37 72.936C301.96 73.244 301.754 73.6547 301.754 74.168C301.754 74.4907 301.828 74.7547 301.974 74.96C302.136 75.1507 302.392 75.3267 302.744 75.488C303.111 75.6347 303.632 75.7813 304.306 75.928C305.304 76.148 306.074 76.39 306.616 76.654C307.174 76.918 307.57 77.2407 307.804 77.622C308.039 78.0033 308.156 78.4873 308.156 79.074C308.156 79.998 307.768 80.746 306.99 81.318C306.213 81.8753 305.186 82.154 303.91 82.154ZM320.923 71.022C323.607 71.022 324.949 72.43 324.949 75.246V81.23C324.949 81.494 324.868 81.7067 324.707 81.868C324.56 82.0293 324.355 82.11 324.091 82.11C323.827 82.11 323.614 82.0293 323.453 81.868C323.291 81.7067 323.211 81.494 323.211 81.23V80.174C322.932 80.8047 322.507 81.296 321.935 81.648C321.363 81.9853 320.703 82.154 319.955 82.154C319.265 82.154 318.627 82.0147 318.041 81.736C317.469 81.4573 317.014 81.0687 316.677 80.57C316.339 80.0713 316.171 79.5213 316.171 78.92C316.171 78.1133 316.376 77.49 316.787 77.05C317.197 76.5953 317.872 76.2727 318.811 76.082C319.749 75.8767 321.055 75.774 322.727 75.774H323.211V75.048C323.211 74.168 323.027 73.5227 322.661 73.112C322.309 72.7013 321.729 72.496 320.923 72.496C319.925 72.496 318.913 72.7673 317.887 73.31C317.491 73.5593 317.212 73.684 317.051 73.684C316.875 73.684 316.728 73.618 316.611 73.486C316.493 73.354 316.435 73.1853 316.435 72.98C316.435 72.7747 316.493 72.5987 316.611 72.452C316.743 72.2907 316.948 72.1293 317.227 71.968C317.74 71.6747 318.319 71.4473 318.965 71.286C319.625 71.11 320.277 71.022 320.923 71.022ZM320.197 80.746C321.077 80.746 321.795 80.4527 322.353 79.866C322.925 79.2647 323.211 78.4947 323.211 77.556V76.918H322.815C321.524 76.918 320.541 76.9767 319.867 77.094C319.192 77.1967 318.708 77.38 318.415 77.644C318.136 77.8933 317.997 78.2673 317.997 78.766C317.997 79.338 318.202 79.8147 318.613 80.196C319.038 80.5627 319.566 80.746 320.197 80.746ZM333.513 71.066C334.129 71.022 334.437 71.2713 334.437 71.814C334.437 72.0487 334.371 72.2393 334.239 72.386C334.107 72.518 333.879 72.5987 333.557 72.628L332.897 72.694C331.914 72.782 331.181 73.134 330.697 73.75C330.227 74.3513 329.993 75.0627 329.993 75.884V81.23C329.993 81.5233 329.912 81.7433 329.751 81.89C329.589 82.0367 329.377 82.11 329.113 82.11C328.849 82.11 328.629 82.0367 328.453 81.89C328.291 81.7287 328.211 81.5087 328.211 81.23V71.946C328.211 71.6673 328.299 71.4547 328.475 71.308C328.651 71.1467 328.863 71.066 329.113 71.066C329.347 71.066 329.545 71.1467 329.707 71.308C329.868 71.4547 329.949 71.66 329.949 71.924V73.156C330.257 72.5107 330.689 72.0193 331.247 71.682C331.819 71.3447 332.471 71.1467 333.205 71.088L333.513 71.066ZM344.046 79.514C344.207 79.514 344.346 79.58 344.464 79.712C344.581 79.844 344.64 80.0127 344.64 80.218C344.64 80.5847 344.383 80.922 343.87 81.23C343.342 81.538 342.784 81.7727 342.198 81.934C341.611 82.0807 341.039 82.154 340.482 82.154C338.824 82.154 337.512 81.6627 336.544 80.68C335.59 79.6973 335.114 78.3407 335.114 76.61C335.114 75.51 335.326 74.542 335.752 73.706C336.177 72.8553 336.771 72.1953 337.534 71.726C338.311 71.2567 339.191 71.022 340.174 71.022C341.567 71.022 342.674 71.4767 343.496 72.386C344.317 73.2953 344.728 74.5273 344.728 76.082C344.728 76.3753 344.669 76.588 344.552 76.72C344.434 76.852 344.244 76.918 343.98 76.918H336.896C337.028 79.4407 338.223 80.702 340.482 80.702C341.054 80.702 341.545 80.6287 341.956 80.482C342.366 80.3207 342.806 80.108 343.276 79.844C343.657 79.624 343.914 79.514 344.046 79.514ZM340.196 72.408C339.257 72.408 338.502 72.7013 337.93 73.288C337.372 73.8747 337.042 74.7033 336.94 75.774H343.166C343.136 74.6887 342.865 73.86 342.352 73.288C341.838 72.7013 341.12 72.408 340.196 72.408ZM356.633 82.154C355.958 82.154 355.313 82.0733 354.697 81.912C354.096 81.7507 353.56 81.5233 353.091 81.23C352.827 81.054 352.636 80.8927 352.519 80.746C352.416 80.5847 352.365 80.394 352.365 80.174C352.365 79.9833 352.416 79.8293 352.519 79.712C352.636 79.58 352.783 79.514 352.959 79.514C353.135 79.514 353.392 79.624 353.729 79.844C354.169 80.108 354.602 80.3207 355.027 80.482C355.467 80.6287 356.01 80.702 356.655 80.702C357.447 80.702 358.063 80.5627 358.503 80.284C358.943 80.0053 359.163 79.602 359.163 79.074C359.163 78.7513 359.082 78.4947 358.921 78.304C358.76 78.0987 358.481 77.9227 358.085 77.776C357.689 77.6147 357.11 77.4533 356.347 77.292C355.056 77.0133 354.132 76.6393 353.575 76.17C353.018 75.7007 352.739 75.0627 352.739 74.256C352.739 73.6253 352.915 73.068 353.267 72.584C353.619 72.1 354.103 71.7187 354.719 71.44C355.35 71.1613 356.061 71.022 356.853 71.022C357.425 71.022 357.975 71.1027 358.503 71.264C359.046 71.4107 359.522 71.6233 359.933 71.902C360.432 72.254 360.681 72.6207 360.681 73.002C360.681 73.1927 360.622 73.354 360.505 73.486C360.388 73.618 360.248 73.684 360.087 73.684C359.911 73.684 359.647 73.5593 359.295 73.31C358.884 73.046 358.496 72.8407 358.129 72.694C357.762 72.5473 357.308 72.474 356.765 72.474C356.076 72.474 355.518 72.628 355.093 72.936C354.682 73.244 354.477 73.6547 354.477 74.168C354.477 74.4907 354.55 74.7547 354.697 74.96C354.858 75.1507 355.115 75.3267 355.467 75.488C355.834 75.6347 356.354 75.7813 357.029 75.928C358.026 76.148 358.796 76.39 359.339 76.654C359.896 76.918 360.292 77.2407 360.527 77.622C360.762 78.0033 360.879 78.4873 360.879 79.074C360.879 79.998 360.49 80.746 359.713 81.318C358.936 81.8753 357.909 82.154 356.633 82.154ZM368.438 80.702C368.951 80.746 369.208 80.9807 369.208 81.406C369.208 81.6553 369.113 81.846 368.922 81.978C368.746 82.0953 368.475 82.1393 368.108 82.11L367.514 82.066C366.341 81.978 365.475 81.626 364.918 81.01C364.361 80.394 364.082 79.4627 364.082 78.216V72.694H362.608C362.359 72.694 362.161 72.6353 362.014 72.518C361.882 72.386 361.816 72.2173 361.816 72.012C361.816 71.792 361.882 71.616 362.014 71.484C362.161 71.352 362.359 71.286 362.608 71.286H364.082V68.8C364.082 68.5213 364.163 68.3087 364.324 68.162C364.485 68.0007 364.705 67.92 364.984 67.92C365.248 67.92 365.461 68.0007 365.622 68.162C365.783 68.3087 365.864 68.5213 365.864 68.8V71.286H368.306C368.541 71.286 368.724 71.352 368.856 71.484C369.003 71.616 369.076 71.792 369.076 72.012C369.076 72.2173 369.003 72.386 368.856 72.518C368.724 72.6353 368.541 72.694 368.306 72.694H365.864V78.304C365.864 79.1107 366.025 79.6973 366.348 80.064C366.685 80.416 367.184 80.614 367.844 80.658L368.438 80.702ZM375.408 82.154C374.396 82.154 373.502 81.9267 372.724 81.472C371.962 81.0173 371.368 80.372 370.942 79.536C370.532 78.6853 370.326 77.7027 370.326 76.588C370.326 75.4733 370.532 74.498 370.942 73.662C371.368 72.8113 371.962 72.1587 372.724 71.704C373.502 71.2493 374.396 71.022 375.408 71.022C376.42 71.022 377.315 71.2493 378.092 71.704C378.87 72.1587 379.464 72.8113 379.874 73.662C380.3 74.498 380.512 75.4733 380.512 76.588C380.512 77.7027 380.3 78.6853 379.874 79.536C379.464 80.372 378.87 81.0173 378.092 81.472C377.315 81.9267 376.42 82.154 375.408 82.154ZM375.408 80.68C376.464 80.68 377.271 80.3353 377.828 79.646C378.4 78.942 378.686 77.9227 378.686 76.588C378.686 75.2827 378.4 74.278 377.828 73.574C377.256 72.8553 376.45 72.496 375.408 72.496C374.367 72.496 373.56 72.8553 372.988 73.574C372.416 74.278 372.13 75.2827 372.13 76.588C372.13 77.908 372.409 78.92 372.966 79.624C373.538 80.328 374.352 80.68 375.408 80.68ZM388.47 71.066C389.086 71.022 389.394 71.2713 389.394 71.814C389.394 72.0487 389.328 72.2393 389.196 72.386C389.064 72.518 388.836 72.5987 388.514 72.628L387.854 72.694C386.871 72.782 386.138 73.134 385.654 73.75C385.184 74.3513 384.95 75.0627 384.95 75.884V81.23C384.95 81.5233 384.869 81.7433 384.708 81.89C384.546 82.0367 384.334 82.11 384.07 82.11C383.806 82.11 383.586 82.0367 383.41 81.89C383.248 81.7287 383.168 81.5087 383.168 81.23V71.946C383.168 71.6673 383.256 71.4547 383.432 71.308C383.608 71.1467 383.82 71.066 384.07 71.066C384.304 71.066 384.502 71.1467 384.664 71.308C384.825 71.4547 384.906 71.66 384.906 71.924V73.156C385.214 72.5107 385.646 72.0193 386.204 71.682C386.776 71.3447 387.428 71.1467 388.162 71.088L388.47 71.066ZM399.003 79.514C399.164 79.514 399.303 79.58 399.421 79.712C399.538 79.844 399.597 80.0127 399.597 80.218C399.597 80.5847 399.34 80.922 398.827 81.23C398.299 81.538 397.741 81.7727 397.155 81.934C396.568 82.0807 395.996 82.154 395.439 82.154C393.781 82.154 392.469 81.6627 391.501 80.68C390.547 79.6973 390.071 78.3407 390.071 76.61C390.071 75.51 390.283 74.542 390.709 73.706C391.134 72.8553 391.728 72.1953 392.491 71.726C393.268 71.2567 394.148 71.022 395.131 71.022C396.524 71.022 397.631 71.4767 398.453 72.386C399.274 73.2953 399.685 74.5273 399.685 76.082C399.685 76.3753 399.626 76.588 399.509 76.72C399.391 76.852 399.201 76.918 398.937 76.918H391.853C391.985 79.4407 393.18 80.702 395.439 80.702C396.011 80.702 396.502 80.6287 396.913 80.482C397.323 80.3207 397.763 80.108 398.233 79.844C398.614 79.624 398.871 79.514 399.003 79.514ZM395.153 72.408C394.214 72.408 393.459 72.7013 392.887 73.288C392.329 73.8747 391.999 74.7033 391.897 75.774H398.123C398.093 74.6887 397.822 73.86 397.309 73.288C396.795 72.7013 396.077 72.408 395.153 72.408ZM410.912 66.38C411.191 66.38 411.411 66.4607 411.572 66.622C411.733 66.7833 411.814 66.9887 411.814 67.238V81.23C411.814 81.494 411.733 81.7067 411.572 81.868C411.411 82.0293 411.191 82.11 410.912 82.11C410.633 82.11 410.413 82.0293 410.252 81.868C410.105 81.7067 410.032 81.494 410.032 81.23V80.042C409.709 80.7167 409.233 81.2373 408.602 81.604C407.986 81.9707 407.26 82.154 406.424 82.154C405.485 82.154 404.657 81.9193 403.938 81.45C403.219 80.9807 402.662 80.328 402.266 79.492C401.87 78.6413 401.672 77.6587 401.672 76.544C401.672 75.444 401.87 74.476 402.266 73.64C402.662 72.804 403.219 72.1587 403.938 71.704C404.657 71.2493 405.485 71.022 406.424 71.022C407.26 71.022 407.986 71.2053 408.602 71.572C409.233 71.9387 409.709 72.4593 410.032 73.134V67.238C410.032 66.974 410.105 66.7687 410.252 66.622C410.413 66.4607 410.633 66.38 410.912 66.38ZM406.776 80.68C407.817 80.68 408.617 80.328 409.174 79.624C409.746 78.9053 410.032 77.8933 410.032 76.588C410.032 75.2827 409.746 74.278 409.174 73.574C408.617 72.87 407.817 72.518 406.776 72.518C405.735 72.518 404.921 72.87 404.334 73.574C403.762 74.278 403.476 75.268 403.476 76.544C403.476 77.8493 403.762 78.8687 404.334 79.602C404.921 80.3207 405.735 80.68 406.776 80.68ZM428.509 71.616C428.67 71.264 428.927 71.088 429.279 71.088C429.499 71.088 429.697 71.1613 429.873 71.308C430.049 71.4547 430.137 71.638 430.137 71.858C430.137 71.99 430.107 72.1073 430.049 72.21L425.759 81.45C425.671 81.6407 425.539 81.7947 425.363 81.912C425.187 82.0147 424.996 82.066 424.791 82.066C424.6 82.066 424.417 82.0147 424.241 81.912C424.065 81.7947 423.925 81.6407 423.823 81.45L419.555 72.21C419.496 72.1073 419.467 71.9973 419.467 71.88C419.467 71.66 419.562 71.4693 419.753 71.308C419.958 71.1467 420.178 71.066 420.413 71.066C420.559 71.066 420.699 71.11 420.831 71.198C420.977 71.286 421.087 71.4107 421.161 71.572L424.835 79.822L428.509 71.616ZM440.253 79.514C440.414 79.514 440.553 79.58 440.671 79.712C440.788 79.844 440.847 80.0127 440.847 80.218C440.847 80.5847 440.59 80.922 440.077 81.23C439.549 81.538 438.991 81.7727 438.405 81.934C437.818 82.0807 437.246 82.154 436.689 82.154C435.031 82.154 433.719 81.6627 432.751 80.68C431.797 79.6973 431.321 78.3407 431.321 76.61C431.321 75.51 431.533 74.542 431.959 73.706C432.384 72.8553 432.978 72.1953 433.741 71.726C434.518 71.2567 435.398 71.022 436.381 71.022C437.774 71.022 438.881 71.4767 439.703 72.386C440.524 73.2953 440.935 74.5273 440.935 76.082C440.935 76.3753 440.876 76.588 440.759 76.72C440.641 76.852 440.451 76.918 440.187 76.918H433.103C433.235 79.4407 434.43 80.702 436.689 80.702C437.261 80.702 437.752 80.6287 438.163 80.482C438.573 80.3207 439.013 80.108 439.483 79.844C439.864 79.624 440.121 79.514 440.253 79.514ZM436.403 72.408C435.464 72.408 434.709 72.7013 434.137 73.288C433.579 73.8747 433.249 74.7033 433.147 75.774H439.373C439.343 74.6887 439.072 73.86 438.559 73.288C438.045 72.7013 437.327 72.408 436.403 72.408ZM448.862 71.066C449.478 71.022 449.786 71.2713 449.786 71.814C449.786 72.0487 449.72 72.2393 449.588 72.386C449.456 72.518 449.229 72.5987 448.906 72.628L448.246 72.694C447.263 72.782 446.53 73.134 446.046 73.75C445.577 74.3513 445.342 75.0627 445.342 75.884V81.23C445.342 81.5233 445.261 81.7433 445.1 81.89C444.939 82.0367 444.726 82.11 444.462 82.11C444.198 82.11 443.978 82.0367 443.802 81.89C443.641 81.7287 443.56 81.5087 443.56 81.23V71.946C443.56 71.6673 443.648 71.4547 443.824 71.308C444 71.1467 444.213 71.066 444.462 71.066C444.697 71.066 444.895 71.1467 445.056 71.308C445.217 71.4547 445.298 71.66 445.298 71.924V73.156C445.606 72.5107 446.039 72.0193 446.596 71.682C447.168 71.3447 447.821 71.1467 448.554 71.088L448.862 71.066ZM459.704 71.616C459.865 71.264 460.122 71.088 460.474 71.088C460.694 71.088 460.892 71.1613 461.068 71.308C461.244 71.4547 461.332 71.638 461.332 71.858C461.332 71.99 461.303 72.1073 461.244 72.21L455.062 85.542C454.989 85.7033 454.879 85.828 454.732 85.916C454.6 86.004 454.461 86.048 454.314 86.048C454.094 86.048 453.896 85.9747 453.72 85.828C453.559 85.696 453.478 85.52 453.478 85.3C453.478 85.1827 453.507 85.0653 453.566 84.948L455.106 81.626L450.75 72.21C450.691 72.1073 450.662 71.9973 450.662 71.88C450.662 71.66 450.757 71.4693 450.948 71.308C451.153 71.1467 451.373 71.066 451.608 71.066C451.755 71.066 451.894 71.11 452.026 71.198C452.173 71.286 452.283 71.4107 452.356 71.572L456.03 79.822L459.704 71.616ZM472.563 82.154C471.888 82.154 471.243 82.0733 470.627 81.912C470.025 81.7507 469.49 81.5233 469.021 81.23C468.757 81.054 468.566 80.8927 468.449 80.746C468.346 80.5847 468.295 80.394 468.295 80.174C468.295 79.9833 468.346 79.8293 468.449 79.712C468.566 79.58 468.713 79.514 468.889 79.514C469.065 79.514 469.321 79.624 469.659 79.844C470.099 80.108 470.531 80.3207 470.957 80.482C471.397 80.6287 471.939 80.702 472.585 80.702C473.377 80.702 473.993 80.5627 474.433 80.284C474.873 80.0053 475.093 79.602 475.093 79.074C475.093 78.7513 475.012 78.4947 474.851 78.304C474.689 78.0987 474.411 77.9227 474.015 77.776C473.619 77.6147 473.039 77.4533 472.277 77.292C470.986 77.0133 470.062 76.6393 469.505 76.17C468.947 75.7007 468.669 75.0627 468.669 74.256C468.669 73.6253 468.845 73.068 469.197 72.584C469.549 72.1 470.033 71.7187 470.649 71.44C471.279 71.1613 471.991 71.022 472.783 71.022C473.355 71.022 473.905 71.1027 474.433 71.264C474.975 71.4107 475.452 71.6233 475.863 71.902C476.361 72.254 476.611 72.6207 476.611 73.002C476.611 73.1927 476.552 73.354 476.435 73.486C476.317 73.618 476.178 73.684 476.017 73.684C475.841 73.684 475.577 73.5593 475.225 73.31C474.814 73.046 474.425 72.8407 474.059 72.694C473.692 72.5473 473.237 72.474 472.695 72.474C472.005 72.474 471.448 72.628 471.023 72.936C470.612 73.244 470.407 73.6547 470.407 74.168C470.407 74.4907 470.48 74.7547 470.627 74.96C470.788 75.1507 471.045 75.3267 471.397 75.488C471.763 75.6347 472.284 75.7813 472.959 75.928C473.956 76.148 474.726 76.39 475.269 76.654C475.826 76.918 476.222 77.2407 476.457 77.622C476.691 78.0033 476.809 78.4873 476.809 79.074C476.809 79.998 476.42 80.746 475.643 81.318C474.865 81.8753 473.839 82.154 472.563 82.154ZM487.819 79.514C487.98 79.514 488.12 79.58 488.237 79.712C488.354 79.844 488.413 80.0127 488.413 80.218C488.413 80.5847 488.156 80.922 487.643 81.23C487.115 81.538 486.558 81.7727 485.971 81.934C485.384 82.0807 484.812 82.154 484.255 82.154C482.598 82.154 481.285 81.6627 480.317 80.68C479.364 79.6973 478.887 78.3407 478.887 76.61C478.887 75.51 479.1 74.542 479.525 73.706C479.95 72.8553 480.544 72.1953 481.307 71.726C482.084 71.2567 482.964 71.022 483.947 71.022C485.34 71.022 486.448 71.4767 487.269 72.386C488.09 73.2953 488.501 74.5273 488.501 76.082C488.501 76.3753 488.442 76.588 488.325 76.72C488.208 76.852 488.017 76.918 487.753 76.918H480.669C480.801 79.4407 481.996 80.702 484.255 80.702C484.827 80.702 485.318 80.6287 485.729 80.482C486.14 80.3207 486.58 80.108 487.049 79.844C487.43 79.624 487.687 79.514 487.819 79.514ZM483.969 72.408C483.03 72.408 482.275 72.7013 481.703 73.288C481.146 73.8747 480.816 74.7033 480.713 75.774H486.939C486.91 74.6887 486.638 73.86 486.125 73.288C485.612 72.7013 484.893 72.408 483.969 72.408ZM495.549 82.154C494.551 82.154 493.664 81.9267 492.887 81.472C492.124 81.0173 491.53 80.372 491.105 79.536C490.694 78.7 490.489 77.732 490.489 76.632C490.489 75.532 490.701 74.5567 491.127 73.706C491.567 72.8553 492.175 72.1953 492.953 71.726C493.73 71.2567 494.625 71.022 495.637 71.022C496.194 71.022 496.744 71.1027 497.287 71.264C497.844 71.4107 498.328 71.6307 498.739 71.924C499.003 72.1 499.186 72.276 499.289 72.452C499.406 72.6133 499.465 72.7967 499.465 73.002C499.465 73.2073 499.406 73.376 499.289 73.508C499.186 73.64 499.047 73.706 498.871 73.706C498.768 73.706 498.658 73.6767 498.541 73.618C498.423 73.5593 498.321 73.5007 498.233 73.442C498.159 73.3833 498.108 73.3467 498.079 73.332C497.697 73.0827 497.331 72.8847 496.979 72.738C496.641 72.5913 496.223 72.518 495.725 72.518C494.654 72.518 493.818 72.8847 493.217 73.618C492.63 74.3367 492.337 75.3413 492.337 76.632C492.337 77.9227 492.63 78.92 493.217 79.624C493.818 80.328 494.654 80.68 495.725 80.68C496.223 80.68 496.649 80.6067 497.001 80.46C497.367 80.3133 497.734 80.1153 498.101 79.866C498.262 79.7633 498.416 79.6753 498.563 79.602C498.709 79.5287 498.834 79.492 498.937 79.492C499.098 79.492 499.23 79.558 499.333 79.69C499.45 79.822 499.509 79.9907 499.509 80.196C499.509 80.3867 499.457 80.5627 499.355 80.724C499.252 80.8707 499.061 81.0393 498.783 81.23C498.372 81.5087 497.873 81.736 497.287 81.912C496.715 82.0733 496.135 82.154 495.549 82.154ZM509.794 71.066C510.073 71.066 510.285 71.1467 510.432 71.308C510.593 71.4693 510.674 71.682 510.674 71.946V81.252C510.674 81.5013 510.593 81.7067 510.432 81.868C510.285 82.0293 510.073 82.11 509.794 82.11C509.53 82.11 509.317 82.0367 509.156 81.89C509.009 81.7287 508.936 81.5233 508.936 81.274V80.174C508.599 80.8193 508.122 81.3107 507.506 81.648C506.905 81.9853 506.223 82.154 505.46 82.154C504.184 82.154 503.223 81.802 502.578 81.098C501.933 80.3793 501.61 79.3233 501.61 77.93V71.946C501.61 71.682 501.691 71.4693 501.852 71.308C502.013 71.1467 502.233 71.066 502.512 71.066C502.791 71.066 503.003 71.1467 503.15 71.308C503.311 71.4693 503.392 71.682 503.392 71.946V77.886C503.392 78.8393 503.583 79.5433 503.964 79.998C504.345 80.438 504.947 80.658 505.768 80.658C506.707 80.658 507.462 80.3573 508.034 79.756C508.606 79.14 508.892 78.3333 508.892 77.336V71.946C508.892 71.682 508.973 71.4693 509.134 71.308C509.295 71.1467 509.515 71.066 509.794 71.066ZM519.288 71.066C519.904 71.022 520.212 71.2713 520.212 71.814C520.212 72.0487 520.146 72.2393 520.014 72.386C519.882 72.518 519.655 72.5987 519.332 72.628L518.672 72.694C517.689 72.782 516.956 73.134 516.472 73.75C516.003 74.3513 515.768 75.0627 515.768 75.884V81.23C515.768 81.5233 515.687 81.7433 515.526 81.89C515.365 82.0367 515.152 82.11 514.888 82.11C514.624 82.11 514.404 82.0367 514.228 81.89C514.067 81.7287 513.986 81.5087 513.986 81.23V71.946C513.986 71.6673 514.074 71.4547 514.25 71.308C514.426 71.1467 514.639 71.066 514.888 71.066C515.123 71.066 515.321 71.1467 515.482 71.308C515.643 71.4547 515.724 71.66 515.724 71.924V73.156C516.032 72.5107 516.465 72.0193 517.022 71.682C517.594 71.3447 518.247 71.1467 518.98 71.088L519.288 71.066ZM529.821 79.514C529.982 79.514 530.122 79.58 530.239 79.712C530.356 79.844 530.415 80.0127 530.415 80.218C530.415 80.5847 530.158 80.922 529.645 81.23C529.117 81.538 528.56 81.7727 527.973 81.934C527.386 82.0807 526.814 82.154 526.257 82.154C524.6 82.154 523.287 81.6627 522.319 80.68C521.366 79.6973 520.889 78.3407 520.889 76.61C520.889 75.51 521.102 74.542 521.527 73.706C521.952 72.8553 522.546 72.1953 523.309 71.726C524.086 71.2567 524.966 71.022 525.949 71.022C527.342 71.022 528.45 71.4767 529.271 72.386C530.092 73.2953 530.503 74.5273 530.503 76.082C530.503 76.3753 530.444 76.588 530.327 76.72C530.21 76.852 530.019 76.918 529.755 76.918H522.671C522.803 79.4407 523.998 80.702 526.257 80.702C526.829 80.702 527.32 80.6287 527.731 80.482C528.142 80.3207 528.582 80.108 529.051 79.844C529.432 79.624 529.689 79.514 529.821 79.514ZM525.971 72.408C525.032 72.408 524.277 72.7013 523.705 73.288C523.148 73.8747 522.818 74.7033 522.715 75.774H528.941C528.912 74.6887 528.64 73.86 528.127 73.288C527.614 72.7013 526.895 72.408 525.971 72.408ZM534.031 82.11C533.767 82.11 533.547 82.0367 533.371 81.89C533.209 81.7287 533.129 81.5087 533.129 81.23V67.26C533.129 66.9813 533.209 66.7687 533.371 66.622C533.547 66.4607 533.767 66.38 534.031 66.38C534.28 66.38 534.485 66.4607 534.647 66.622C534.823 66.7687 534.911 66.9813 534.911 67.26V81.23C534.911 81.5087 534.823 81.7287 534.647 81.89C534.485 82.0367 534.28 82.11 534.031 82.11ZM545.964 71.616C546.125 71.264 546.382 71.088 546.734 71.088C546.954 71.088 547.152 71.1613 547.328 71.308C547.504 71.4547 547.592 71.638 547.592 71.858C547.592 71.99 547.562 72.1073 547.504 72.21L541.322 85.542C541.248 85.7033 541.138 85.828 540.992 85.916C540.86 86.004 540.72 86.048 540.574 86.048C540.354 86.048 540.156 85.9747 539.98 85.828C539.818 85.696 539.738 85.52 539.738 85.3C539.738 85.1827 539.767 85.0653 539.826 84.948L541.366 81.626L537.01 72.21C536.951 72.1073 536.922 71.9973 536.922 71.88C536.922 71.66 537.017 71.4693 537.208 71.308C537.413 71.1467 537.633 71.066 537.868 71.066C538.014 71.066 538.154 71.11 538.286 71.198C538.432 71.286 538.542 71.4107 538.616 71.572L542.29 79.822L545.964 71.616ZM549.628 82.11C549.276 82.11 548.982 82 548.748 81.78C548.513 81.5453 548.396 81.2447 548.396 80.878C548.396 80.5113 548.513 80.2107 548.748 79.976C548.982 79.7413 549.276 79.624 549.628 79.624C549.965 79.624 550.244 79.7413 550.464 79.976C550.698 80.2107 550.816 80.5113 550.816 80.878C550.816 81.2447 550.698 81.5453 550.464 81.78C550.244 82 549.965 82.11 549.628 82.11Z" fill="#234CAD"/>
<path d="M139.45 42.24C137.93 42.24 136.48 42.03 135.1 41.61C133.74 41.19 132.65 40.61 131.83 39.87C131.45 39.55 131.26 39.14 131.26 38.64C131.26 38.28 131.36 37.98 131.56 37.74C131.76 37.48 132 37.35 132.28 37.35C132.56 37.35 132.9 37.48 133.3 37.74C135.08 39.06 137.11 39.72 139.39 39.72C140.99 39.72 142.22 39.42 143.08 38.82C143.94 38.22 144.37 37.36 144.37 36.24C144.37 35.36 143.97 34.7 143.17 34.26C142.37 33.82 141.09 33.4 139.33 33C137.65 32.64 136.27 32.23 135.19 31.77C134.11 31.31 133.26 30.69 132.64 29.91C132.04 29.11 131.74 28.1 131.74 26.88C131.74 25.66 132.07 24.58 132.73 23.64C133.41 22.68 134.35 21.94 135.55 21.42C136.75 20.88 138.12 20.61 139.66 20.61C141.08 20.61 142.39 20.81 143.59 21.21C144.79 21.61 145.81 22.2 146.65 22.98C147.05 23.32 147.25 23.73 147.25 24.21C147.25 24.55 147.14 24.85 146.92 25.11C146.72 25.37 146.48 25.5 146.2 25.5C145.94 25.5 145.61 25.37 145.21 25.11C144.29 24.41 143.42 23.91 142.6 23.61C141.8 23.29 140.83 23.13 139.69 23.13C138.15 23.13 136.95 23.45 136.09 24.09C135.23 24.71 134.8 25.58 134.8 26.7C134.8 27.66 135.18 28.39 135.94 28.89C136.7 29.37 137.92 29.81 139.6 30.21C141.36 30.61 142.78 31.03 143.86 31.47C144.96 31.89 145.83 32.48 146.47 33.24C147.13 33.98 147.46 34.94 147.46 36.12C147.46 37.32 147.12 38.39 146.44 39.33C145.78 40.25 144.84 40.97 143.62 41.49C142.42 41.99 141.03 42.24 139.45 42.24ZM162.369 38.31C162.649 38.31 162.879 38.42 163.059 38.64C163.239 38.86 163.329 39.14 163.329 39.48C163.329 40.06 162.969 40.55 162.249 40.95C161.549 41.35 160.779 41.66 159.939 41.88C159.119 42.1 158.329 42.21 157.569 42.21C155.249 42.21 153.419 41.54 152.079 40.2C150.739 38.84 150.069 36.99 150.069 34.65C150.069 33.15 150.359 31.82 150.939 30.66C151.539 29.5 152.369 28.6 153.429 27.96C154.509 27.32 155.729 27 157.089 27C159.049 27 160.599 27.63 161.739 28.89C162.879 30.15 163.449 31.85 163.449 33.99C163.449 34.79 163.089 35.19 162.369 35.19H153.099C153.299 38.29 154.789 39.84 157.569 39.84C158.309 39.84 158.949 39.74 159.489 39.54C160.029 39.34 160.599 39.08 161.199 38.76C161.259 38.72 161.419 38.64 161.679 38.52C161.959 38.38 162.189 38.31 162.369 38.31ZM157.149 29.22C155.989 29.22 155.059 29.59 154.359 30.33C153.659 31.07 153.239 32.11 153.099 33.45H160.839C160.779 32.09 160.429 31.05 159.789 30.33C159.169 29.59 158.289 29.22 157.149 29.22ZM173.058 42.21C171.638 42.21 170.388 41.9 169.308 41.28C168.248 40.66 167.418 39.78 166.818 38.64C166.238 37.5 165.948 36.18 165.948 34.68C165.948 33.16 166.248 31.82 166.848 30.66C167.468 29.5 168.328 28.6 169.428 27.96C170.528 27.32 171.788 27 173.208 27C173.968 27 174.728 27.11 175.488 27.33C176.268 27.55 176.958 27.85 177.558 28.23C178.198 28.67 178.518 29.18 178.518 29.76C178.518 30.1 178.428 30.39 178.248 30.63C178.068 30.85 177.838 30.96 177.558 30.96C177.378 30.96 177.198 30.92 177.018 30.84C176.838 30.74 176.608 30.6 176.328 30.42C175.828 30.1 175.358 29.86 174.918 29.7C174.498 29.52 173.988 29.43 173.388 29.43C172.028 29.43 170.968 29.89 170.208 30.81C169.468 31.73 169.097 33.01 169.097 34.65C169.097 36.29 169.468 37.56 170.208 38.46C170.948 39.34 171.998 39.78 173.358 39.78C173.958 39.78 174.488 39.69 174.948 39.51C175.408 39.33 175.878 39.09 176.358 38.79C176.578 38.65 176.798 38.53 177.018 38.43C177.238 38.33 177.438 38.28 177.618 38.28C177.898 38.28 178.128 38.4 178.308 38.64C178.488 38.86 178.578 39.14 178.578 39.48C178.578 39.76 178.498 40.02 178.338 40.26C178.198 40.48 177.948 40.71 177.588 40.95C176.988 41.35 176.288 41.66 175.488 41.88C174.688 42.1 173.878 42.21 173.058 42.21ZM192.629 27.06C193.089 27.06 193.449 27.19 193.709 27.45C193.989 27.71 194.129 28.07 194.129 28.53V40.74C194.129 41.16 193.989 41.5 193.709 41.76C193.429 42.02 193.059 42.15 192.599 42.15C192.179 42.15 191.839 42.03 191.579 41.79C191.319 41.53 191.189 41.19 191.189 40.77V39.63C190.729 40.47 190.089 41.11 189.269 41.55C188.469 41.99 187.569 42.21 186.569 42.21C183.009 42.21 181.229 40.25 181.229 36.33V28.53C181.229 28.07 181.359 27.71 181.619 27.45C181.899 27.19 182.279 27.06 182.759 27.06C183.219 27.06 183.579 27.19 183.839 27.45C184.119 27.71 184.259 28.07 184.259 28.53V36.3C184.259 37.48 184.499 38.35 184.979 38.91C185.459 39.47 186.199 39.75 187.199 39.75C188.379 39.75 189.319 39.37 190.019 38.61C190.739 37.85 191.099 36.84 191.099 35.58V28.53C191.099 28.09 191.239 27.74 191.519 27.48C191.799 27.2 192.169 27.06 192.629 27.06ZM206.05 27.06C207.01 27 207.49 27.41 207.49 28.29C207.49 28.73 207.38 29.06 207.16 29.28C206.94 29.5 206.56 29.63 206.02 29.67L205.12 29.76C203.86 29.88 202.92 30.32 202.3 31.08C201.7 31.84 201.4 32.76 201.4 33.84V40.71C201.4 41.19 201.26 41.55 200.98 41.79C200.7 42.03 200.34 42.15 199.9 42.15C199.46 42.15 199.09 42.03 198.79 41.79C198.51 41.55 198.37 41.19 198.37 40.71V28.5C198.37 28.04 198.51 27.69 198.79 27.45C199.09 27.19 199.46 27.06 199.9 27.06C200.3 27.06 200.63 27.19 200.89 27.45C201.17 27.69 201.31 28.03 201.31 28.47V29.91C201.71 29.03 202.29 28.36 203.05 27.9C203.81 27.44 204.67 27.17 205.63 27.09L206.05 27.06ZM220.523 38.31C220.803 38.31 221.033 38.42 221.213 38.64C221.393 38.86 221.483 39.14 221.483 39.48C221.483 40.06 221.123 40.55 220.403 40.95C219.703 41.35 218.933 41.66 218.093 41.88C217.273 42.1 216.483 42.21 215.723 42.21C213.403 42.21 211.573 41.54 210.233 40.2C208.893 38.84 208.223 36.99 208.223 34.65C208.223 33.15 208.513 31.82 209.093 30.66C209.693 29.5 210.523 28.6 211.583 27.96C212.663 27.32 213.883 27 215.243 27C217.203 27 218.753 27.63 219.893 28.89C221.033 30.15 221.603 31.85 221.603 33.99C221.603 34.79 221.243 35.19 220.523 35.19H211.253C211.453 38.29 212.943 39.84 215.723 39.84C216.463 39.84 217.103 39.74 217.643 39.54C218.183 39.34 218.753 39.08 219.353 38.76C219.413 38.72 219.573 38.64 219.833 38.52C220.113 38.38 220.343 38.31 220.523 38.31ZM215.303 29.22C214.143 29.22 213.213 29.59 212.513 30.33C211.813 31.07 211.393 32.11 211.253 33.45H218.993C218.933 32.09 218.583 31.05 217.943 30.33C217.323 29.59 216.443 29.22 215.303 29.22ZM236.912 20.7C237.372 20.7 237.742 20.83 238.022 21.09C238.302 21.35 238.442 21.7 238.442 22.14V40.68C238.442 41.14 238.302 41.5 238.022 41.76C237.762 42.02 237.402 42.15 236.942 42.15C236.482 42.15 236.112 42.02 235.832 41.76C235.572 41.5 235.442 41.14 235.442 40.68V39.48C235.002 40.36 234.362 41.04 233.522 41.52C232.682 41.98 231.712 42.21 230.612 42.21C229.352 42.21 228.222 41.89 227.222 41.25C226.242 40.61 225.472 39.71 224.912 38.55C224.372 37.39 224.102 36.06 224.102 34.56C224.102 33.04 224.372 31.71 224.912 30.57C225.472 29.43 226.242 28.55 227.222 27.93C228.202 27.31 229.332 27 230.612 27C231.712 27 232.672 27.24 233.492 27.72C234.332 28.18 234.972 28.84 235.412 29.7V22.08C235.412 21.66 235.542 21.33 235.802 21.09C236.082 20.83 236.452 20.7 236.912 20.7ZM231.332 39.81C232.632 39.81 233.642 39.36 234.362 38.46C235.082 37.56 235.442 36.28 235.442 34.62C235.442 32.96 235.082 31.68 234.362 30.78C233.662 29.88 232.652 29.43 231.332 29.43C230.012 29.43 228.982 29.88 228.242 30.78C227.522 31.66 227.162 32.92 227.162 34.56C227.162 36.2 227.532 37.49 228.272 38.43C229.012 39.35 230.032 39.81 231.332 39.81Z" fill="#234CAD"/>
</g>
<circle cx="50" cy="50" r="50" fill="#F2F6FF"/>
<path d="M40.5 47C40.5 47.8284 41.1716 48.5 42 48.5C42.8284 48.5 43.5 47.8284 43.5 47H40.5ZM56.5 47C56.5 47.8284 57.1716 48.5 58 48.5C58.8284 48.5 59.5 47.8284 59.5 47H56.5ZM42 48.5C42.8284 48.5 43.5 47.8284 43.5 47C43.5 46.1716 42.8284 45.5 42 45.5V48.5ZM58 45.5C57.1716 45.5 56.5 46.1716 56.5 47C56.5 47.8284 57.1716 48.5 58 48.5V45.5ZM42 45.5C41.1716 45.5 40.5 46.1716 40.5 47C40.5 47.8284 41.1716 48.5 42 48.5V45.5ZM58 48.5C58.8284 48.5 59.5 47.8284 59.5 47C59.5 46.1716 58.8284 45.5 58 45.5V48.5ZM43.5 47V37H40.5V47H43.5ZM43.5 37C43.5 33.4101 46.4101 30.5 50 30.5V27.5C44.7533 27.5 40.5 31.7533 40.5 37H43.5ZM50 30.5C53.5898 30.5 56.5 33.4102 56.5 37H59.5C59.5 31.7533 55.2466 27.5 50 27.5V30.5ZM56.5 37V47H59.5V37H56.5ZM42 45.5H40V48.5H42V45.5ZM40 45.5C36.9624 45.5 34.5 47.9624 34.5 51H37.5C37.5 49.6192 38.6193 48.5 40 48.5V45.5ZM34.5 51V63H37.5V51H34.5ZM34.5 63C34.5 68.2466 38.7533 72.5 44 72.5V69.5C40.4102 69.5 37.5 66.5898 37.5 63H34.5ZM44 72.5H56V69.5H44V72.5ZM56 72.5C61.2466 72.5 65.5 68.2466 65.5 63H62.5C62.5 66.5898 59.5898 69.5 56 69.5V72.5ZM65.5 63V51H62.5V63H65.5ZM65.5 51C65.5 47.9624 63.0376 45.5 60 45.5V48.5C61.3808 48.5 62.5 49.6192 62.5 51H65.5ZM60 45.5H58V48.5H60V45.5ZM42 48.5H58V45.5H42V48.5ZM49.5 59C49.5 58.7239 49.7239 58.5 50 58.5V61.5C51.3807 61.5 52.5 60.3807 52.5 59H49.5ZM50 58.5C50.2761 58.5 50.5 58.7239 50.5 59H47.5C47.5 60.3807 48.6193 61.5 50 61.5V58.5ZM50.5 59C50.5 59.2761 50.2761 59.5 50 59.5V56.5C48.6193 56.5 47.5 57.6193 47.5 59H50.5ZM50 59.5C49.7239 59.5 49.5 59.2761 49.5 59H52.5C52.5 57.6193 51.3807 56.5 50 56.5V59.5Z" fill="#234CAD"/>
<defs>
<clipPath id="clip0_1_14">
<rect width="423" height="85" fill="white" transform="translate(130 8)"/>
</clipPath>
</defs>
</svg>
