<svg width="532" height="100" viewBox="0 0 532 100" fill="none" xmlns="http://www.w3.org/2000/svg">
<g clip-path="url(#clip0_0_1)">
<path d="M145.268 80.966C145.327 81.0833 145.356 81.208 145.356 81.34C145.356 81.56 145.268 81.7433 145.092 81.89C144.931 82.0367 144.733 82.11 144.498 82.11C144.131 82.11 143.875 81.934 143.728 81.582L142.166 78.018H133.872L132.288 81.582C132.141 81.934 131.885 82.11 131.518 82.11C131.283 82.11 131.078 82.0367 130.902 81.89C130.726 81.7287 130.638 81.538 130.638 81.318C130.638 81.2007 130.667 81.0833 130.726 80.966L137.018 66.974C137.106 66.7687 137.238 66.6147 137.414 66.512C137.59 66.4093 137.781 66.358 137.986 66.358C138.206 66.358 138.404 66.4167 138.58 66.534C138.756 66.6367 138.888 66.7833 138.976 66.974L145.268 80.966ZM134.532 76.522H141.506L138.008 68.624L134.532 76.522ZM148.536 82.11C148.272 82.11 148.052 82.0367 147.876 81.89C147.715 81.7287 147.634 81.5087 147.634 81.23V67.26C147.634 66.9813 147.715 66.7687 147.876 66.622C148.052 66.4607 148.272 66.38 148.536 66.38C148.786 66.38 148.991 66.4607 149.152 66.622C149.328 66.7687 149.416 66.9813 149.416 67.26V81.23C149.416 81.5087 149.328 81.7287 149.152 81.89C148.991 82.0367 148.786 82.11 148.536 82.11ZM153.65 82.11C153.386 82.11 153.166 82.0367 152.99 81.89C152.828 81.7287 152.748 81.5087 152.748 81.23V67.26C152.748 66.9813 152.828 66.7687 152.99 66.622C153.166 66.4607 153.386 66.38 153.65 66.38C153.899 66.38 154.104 66.4607 154.266 66.622C154.442 66.7687 154.53 66.9813 154.53 67.26V81.23C154.53 81.5087 154.442 81.7287 154.266 81.89C154.104 82.0367 153.899 82.11 153.65 82.11ZM171.255 71.616C171.416 71.264 171.673 71.088 172.025 71.088C172.245 71.088 172.443 71.1613 172.619 71.308C172.795 71.4547 172.883 71.638 172.883 71.858C172.883 71.99 172.853 72.1073 172.795 72.21L166.613 85.542C166.539 85.7033 166.429 85.828 166.283 85.916C166.151 86.004 166.011 86.048 165.865 86.048C165.645 86.048 165.447 85.9747 165.271 85.828C165.109 85.696 165.029 85.52 165.029 85.3C165.029 85.1827 165.058 85.0653 165.117 84.948L166.657 81.626L162.301 72.21C162.242 72.1073 162.213 71.9973 162.213 71.88C162.213 71.66 162.308 71.4693 162.499 71.308C162.704 71.1467 162.924 71.066 163.159 71.066C163.305 71.066 163.445 71.11 163.577 71.198C163.723 71.286 163.833 71.4107 163.907 71.572L167.581 79.822L171.255 71.616ZM179.149 82.154C178.137 82.154 177.242 81.9267 176.465 81.472C175.702 81.0173 175.108 80.372 174.683 79.536C174.272 78.6853 174.067 77.7027 174.067 76.588C174.067 75.4733 174.272 74.498 174.683 73.662C175.108 72.8113 175.702 72.1587 176.465 71.704C177.242 71.2493 178.137 71.022 179.149 71.022C180.161 71.022 181.055 71.2493 181.833 71.704C182.61 72.1587 183.204 72.8113 183.615 73.662C184.04 74.498 184.253 75.4733 184.253 76.588C184.253 77.7027 184.04 78.6853 183.615 79.536C183.204 80.372 182.61 81.0173 181.833 81.472C181.055 81.9267 180.161 82.154 179.149 82.154ZM179.149 80.68C180.205 80.68 181.011 80.3353 181.569 79.646C182.141 78.942 182.427 77.9227 182.427 76.588C182.427 75.2827 182.141 74.278 181.569 73.574C180.997 72.8553 180.19 72.496 179.149 72.496C178.107 72.496 177.301 72.8553 176.729 73.574C176.157 74.278 175.871 75.2827 175.871 76.588C175.871 77.908 176.149 78.92 176.707 79.624C177.279 80.328 178.093 80.68 179.149 80.68ZM195.048 71.066C195.326 71.066 195.539 71.1467 195.686 71.308C195.847 71.4693 195.928 71.682 195.928 71.946V81.252C195.928 81.5013 195.847 81.7067 195.686 81.868C195.539 82.0293 195.326 82.11 195.048 82.11C194.784 82.11 194.571 82.0367 194.41 81.89C194.263 81.7287 194.19 81.5233 194.19 81.274V80.174C193.852 80.8193 193.376 81.3107 192.76 81.648C192.158 81.9853 191.476 82.154 190.714 82.154C189.438 82.154 188.477 81.802 187.832 81.098C187.186 80.3793 186.864 79.3233 186.864 77.93V71.946C186.864 71.682 186.944 71.4693 187.106 71.308C187.267 71.1467 187.487 71.066 187.766 71.066C188.044 71.066 188.257 71.1467 188.404 71.308C188.565 71.4693 188.646 71.682 188.646 71.946V77.886C188.646 78.8393 188.836 79.5433 189.218 79.998C189.599 80.438 190.2 80.658 191.022 80.658C191.96 80.658 192.716 80.3573 193.288 79.756C193.86 79.14 194.146 78.3333 194.146 77.336V71.946C194.146 71.682 194.226 71.4693 194.388 71.308C194.549 71.1467 194.769 71.066 195.048 71.066ZM204.542 71.066C205.158 71.022 205.466 71.2713 205.466 71.814C205.466 72.0487 205.4 72.2393 205.268 72.386C205.136 72.518 204.909 72.5987 204.586 72.628L203.926 72.694C202.943 72.782 202.21 73.134 201.726 73.75C201.257 74.3513 201.022 75.0627 201.022 75.884V81.23C201.022 81.5233 200.941 81.7433 200.78 81.89C200.619 82.0367 200.406 82.11 200.142 82.11C199.878 82.11 199.658 82.0367 199.482 81.89C199.321 81.7287 199.24 81.5087 199.24 81.23V71.946C199.24 71.6673 199.328 71.4547 199.504 71.308C199.68 71.1467 199.893 71.066 200.142 71.066C200.377 71.066 200.575 71.1467 200.736 71.308C200.897 71.4547 200.978 71.66 200.978 71.924V73.156C201.286 72.5107 201.719 72.0193 202.276 71.682C202.848 71.3447 203.501 71.1467 204.234 71.088L204.542 71.066ZM224.592 71.022C226.968 71.022 228.156 72.4373 228.156 75.268V81.23C228.156 81.5087 228.075 81.7287 227.914 81.89C227.752 82.0367 227.54 82.11 227.276 82.11C227.012 82.11 226.792 82.0367 226.616 81.89C226.454 81.7287 226.374 81.5087 226.374 81.23V75.312C226.374 74.3293 226.198 73.618 225.846 73.178C225.494 72.738 224.944 72.518 224.196 72.518C223.301 72.518 222.597 72.8187 222.084 73.42C221.57 74.0213 221.314 74.8353 221.314 75.862V81.23C221.314 81.5087 221.226 81.7287 221.05 81.89C220.888 82.0367 220.676 82.11 220.412 82.11C220.148 82.11 219.935 82.0367 219.774 81.89C219.612 81.7287 219.532 81.5087 219.532 81.23V75.312C219.532 74.3293 219.356 73.618 219.004 73.178C218.652 72.738 218.094 72.518 217.332 72.518C216.452 72.518 215.748 72.8187 215.22 73.42C214.706 74.0213 214.45 74.8353 214.45 75.862V81.23C214.45 81.5087 214.369 81.7287 214.208 81.89C214.046 82.0367 213.834 82.11 213.57 82.11C213.306 82.11 213.086 82.0367 212.91 81.89C212.748 81.7287 212.668 81.5087 212.668 81.23V71.946C212.668 71.682 212.748 71.4693 212.91 71.308C213.086 71.1467 213.306 71.066 213.57 71.066C213.819 71.066 214.024 71.1467 214.186 71.308C214.347 71.4547 214.428 71.66 214.428 71.924V72.98C214.75 72.3493 215.198 71.8653 215.77 71.528C216.342 71.1907 217.002 71.022 217.75 71.022C219.422 71.022 220.514 71.726 221.028 73.134C221.336 72.4887 221.805 71.9753 222.436 71.594C223.066 71.2127 223.785 71.022 224.592 71.022ZM239.696 79.514C239.857 79.514 239.997 79.58 240.114 79.712C240.231 79.844 240.29 80.0127 240.29 80.218C240.29 80.5847 240.033 80.922 239.52 81.23C238.992 81.538 238.435 81.7727 237.848 81.934C237.261 82.0807 236.689 82.154 236.132 82.154C234.475 82.154 233.162 81.6627 232.194 80.68C231.241 79.6973 230.764 78.3407 230.764 76.61C230.764 75.51 230.977 74.542 231.402 73.706C231.827 72.8553 232.421 72.1953 233.184 71.726C233.961 71.2567 234.841 71.022 235.824 71.022C237.217 71.022 238.325 71.4767 239.146 72.386C239.967 73.2953 240.378 74.5273 240.378 76.082C240.378 76.3753 240.319 76.588 240.202 76.72C240.085 76.852 239.894 76.918 239.63 76.918H232.546C232.678 79.4407 233.873 80.702 236.132 80.702C236.704 80.702 237.195 80.6287 237.606 80.482C238.017 80.3207 238.457 80.108 238.926 79.844C239.307 79.624 239.564 79.514 239.696 79.514ZM235.846 72.408C234.907 72.408 234.152 72.7013 233.58 73.288C233.023 73.8747 232.693 74.7033 232.59 75.774H238.816C238.787 74.6887 238.515 73.86 238.002 73.288C237.489 72.7013 236.77 72.408 235.846 72.408ZM246.612 82.154C245.937 82.154 245.292 82.0733 244.676 81.912C244.074 81.7507 243.539 81.5233 243.07 81.23C242.806 81.054 242.615 80.8927 242.498 80.746C242.395 80.5847 242.344 80.394 242.344 80.174C242.344 79.9833 242.395 79.8293 242.498 79.712C242.615 79.58 242.762 79.514 242.938 79.514C243.114 79.514 243.37 79.624 243.708 79.844C244.148 80.108 244.58 80.3207 245.006 80.482C245.446 80.6287 245.988 80.702 246.634 80.702C247.426 80.702 248.042 80.5627 248.482 80.284C248.922 80.0053 249.142 79.602 249.142 79.074C249.142 78.7513 249.061 78.4947 248.9 78.304C248.738 78.0987 248.46 77.9227 248.064 77.776C247.668 77.6147 247.088 77.4533 246.326 77.292C245.035 77.0133 244.111 76.6393 243.554 76.17C242.996 75.7007 242.718 75.0627 242.718 74.256C242.718 73.6253 242.894 73.068 243.246 72.584C243.598 72.1 244.082 71.7187 244.698 71.44C245.328 71.1613 246.04 71.022 246.832 71.022C247.404 71.022 247.954 71.1027 248.482 71.264C249.024 71.4107 249.501 71.6233 249.912 71.902C250.41 72.254 250.66 72.6207 250.66 73.002C250.66 73.1927 250.601 73.354 250.484 73.486C250.366 73.618 250.227 73.684 250.066 73.684C249.89 73.684 249.626 73.5593 249.274 73.31C248.863 73.046 248.474 72.8407 248.108 72.694C247.741 72.5473 247.286 72.474 246.744 72.474C246.054 72.474 245.497 72.628 245.072 72.936C244.661 73.244 244.456 73.6547 244.456 74.168C244.456 74.4907 244.529 74.7547 244.676 74.96C244.837 75.1507 245.094 75.3267 245.446 75.488C245.812 75.6347 246.333 75.7813 247.008 75.928C248.005 76.148 248.775 76.39 249.318 76.654C249.875 76.918 250.271 77.2407 250.506 77.622C250.74 78.0033 250.858 78.4873 250.858 79.074C250.858 79.998 250.469 80.746 249.692 81.318C248.914 81.8753 247.888 82.154 246.612 82.154ZM257.182 82.154C256.507 82.154 255.862 82.0733 255.246 81.912C254.644 81.7507 254.109 81.5233 253.64 81.23C253.376 81.054 253.185 80.8927 253.068 80.746C252.965 80.5847 252.914 80.394 252.914 80.174C252.914 79.9833 252.965 79.8293 253.068 79.712C253.185 79.58 253.332 79.514 253.508 79.514C253.684 79.514 253.94 79.624 254.278 79.844C254.718 80.108 255.15 80.3207 255.576 80.482C256.016 80.6287 256.558 80.702 257.204 80.702C257.996 80.702 258.612 80.5627 259.052 80.284C259.492 80.0053 259.712 79.602 259.712 79.074C259.712 78.7513 259.631 78.4947 259.47 78.304C259.308 78.0987 259.03 77.9227 258.634 77.776C258.238 77.6147 257.658 77.4533 256.896 77.292C255.605 77.0133 254.681 76.6393 254.124 76.17C253.566 75.7007 253.288 75.0627 253.288 74.256C253.288 73.6253 253.464 73.068 253.816 72.584C254.168 72.1 254.652 71.7187 255.268 71.44C255.898 71.1613 256.61 71.022 257.402 71.022C257.974 71.022 258.524 71.1027 259.052 71.264C259.594 71.4107 260.071 71.6233 260.482 71.902C260.98 72.254 261.23 72.6207 261.23 73.002C261.23 73.1927 261.171 73.354 261.054 73.486C260.936 73.618 260.797 73.684 260.636 73.684C260.46 73.684 260.196 73.5593 259.844 73.31C259.433 73.046 259.044 72.8407 258.678 72.694C258.311 72.5473 257.856 72.474 257.314 72.474C256.624 72.474 256.067 72.628 255.642 72.936C255.231 73.244 255.026 73.6547 255.026 74.168C255.026 74.4907 255.099 74.7547 255.246 74.96C255.407 75.1507 255.664 75.3267 256.016 75.488C256.382 75.6347 256.903 75.7813 257.578 75.928C258.575 76.148 259.345 76.39 259.888 76.654C260.445 76.918 260.841 77.2407 261.076 77.622C261.31 78.0033 261.428 78.4873 261.428 79.074C261.428 79.998 261.039 80.746 260.262 81.318C259.484 81.8753 258.458 82.154 257.182 82.154ZM268.522 71.022C271.206 71.022 272.548 72.43 272.548 75.246V81.23C272.548 81.494 272.467 81.7067 272.306 81.868C272.159 82.0293 271.954 82.11 271.69 82.11C271.426 82.11 271.213 82.0293 271.052 81.868C270.891 81.7067 270.81 81.494 270.81 81.23V80.174C270.531 80.8047 270.106 81.296 269.534 81.648C268.962 81.9853 268.302 82.154 267.554 82.154C266.865 82.154 266.227 82.0147 265.64 81.736C265.068 81.4573 264.613 81.0687 264.276 80.57C263.939 80.0713 263.77 79.5213 263.77 78.92C263.77 78.1133 263.975 77.49 264.386 77.05C264.797 76.5953 265.471 76.2727 266.41 76.082C267.349 75.8767 268.654 75.774 270.326 75.774H270.81V75.048C270.81 74.168 270.627 73.5227 270.26 73.112C269.908 72.7013 269.329 72.496 268.522 72.496C267.525 72.496 266.513 72.7673 265.486 73.31C265.09 73.5593 264.811 73.684 264.65 73.684C264.474 73.684 264.327 73.618 264.21 73.486C264.093 73.354 264.034 73.1853 264.034 72.98C264.034 72.7747 264.093 72.5987 264.21 72.452C264.342 72.2907 264.547 72.1293 264.826 71.968C265.339 71.6747 265.919 71.4473 266.564 71.286C267.224 71.11 267.877 71.022 268.522 71.022ZM267.796 80.746C268.676 80.746 269.395 80.4527 269.952 79.866C270.524 79.2647 270.81 78.4947 270.81 77.556V76.918H270.414C269.123 76.918 268.141 76.9767 267.466 77.094C266.791 77.1967 266.307 77.38 266.014 77.644C265.735 77.8933 265.596 78.2673 265.596 78.766C265.596 79.338 265.801 79.8147 266.212 80.196C266.637 80.5627 267.165 80.746 267.796 80.746ZM284.5 71.066C284.779 71.066 284.999 71.1467 285.16 71.308C285.321 71.4693 285.402 71.682 285.402 71.946V81.274C285.402 82.8727 284.991 84.0753 284.17 84.882C283.349 85.7033 282.131 86.114 280.518 86.114C278.949 86.114 277.643 85.806 276.602 85.19C276.074 84.8967 275.81 84.5593 275.81 84.178C275.81 83.9727 275.861 83.804 275.964 83.672C276.081 83.54 276.228 83.474 276.404 83.474C276.551 83.474 276.815 83.5767 277.196 83.782C277.709 84.046 278.215 84.2587 278.714 84.42C279.213 84.5813 279.807 84.662 280.496 84.662C281.537 84.662 282.322 84.3833 282.85 83.826C283.378 83.2833 283.642 82.484 283.642 81.428V79.536C283.334 80.2253 282.857 80.7533 282.212 81.12C281.581 81.4867 280.833 81.67 279.968 81.67C279.029 81.67 278.193 81.45 277.46 81.01C276.741 80.57 276.177 79.9467 275.766 79.14C275.37 78.3333 275.172 77.402 275.172 76.346C275.172 75.29 275.37 74.3587 275.766 73.552C276.177 72.7453 276.741 72.122 277.46 71.682C278.193 71.242 279.029 71.022 279.968 71.022C280.819 71.022 281.559 71.2053 282.19 71.572C282.821 71.9387 283.297 72.4593 283.62 73.134V71.946C283.62 71.682 283.693 71.4693 283.84 71.308C284.001 71.1467 284.221 71.066 284.5 71.066ZM280.32 80.196C281.347 80.196 282.153 79.8587 282.74 79.184C283.327 78.4947 283.62 77.5487 283.62 76.346C283.62 75.158 283.327 74.2267 282.74 73.552C282.168 72.8627 281.361 72.518 280.32 72.518C279.279 72.518 278.457 72.8627 277.856 73.552C277.269 74.2267 276.976 75.158 276.976 76.346C276.976 77.5487 277.269 78.4947 277.856 79.184C278.457 79.8587 279.279 80.196 280.32 80.196ZM296.995 79.514C297.156 79.514 297.295 79.58 297.413 79.712C297.53 79.844 297.589 80.0127 297.589 80.218C297.589 80.5847 297.332 80.922 296.819 81.23C296.291 81.538 295.733 81.7727 295.147 81.934C294.56 82.0807 293.988 82.154 293.431 82.154C291.773 82.154 290.461 81.6627 289.493 80.68C288.539 79.6973 288.063 78.3407 288.063 76.61C288.063 75.51 288.275 74.542 288.701 73.706C289.126 72.8553 289.72 72.1953 290.483 71.726C291.26 71.2567 292.14 71.022 293.123 71.022C294.516 71.022 295.623 71.4767 296.445 72.386C297.266 73.2953 297.677 74.5273 297.677 76.082C297.677 76.3753 297.618 76.588 297.501 76.72C297.383 76.852 297.193 76.918 296.929 76.918H289.845C289.977 79.4407 291.172 80.702 293.431 80.702C294.003 80.702 294.494 80.6287 294.905 80.482C295.315 80.3207 295.755 80.108 296.225 79.844C296.606 79.624 296.863 79.514 296.995 79.514ZM293.145 72.408C292.206 72.408 291.451 72.7013 290.879 73.288C290.321 73.8747 289.991 74.7033 289.889 75.774H296.115C296.085 74.6887 295.814 73.86 295.301 73.288C294.787 72.7013 294.069 72.408 293.145 72.408ZM303.91 82.154C303.236 82.154 302.59 82.0733 301.974 81.912C301.373 81.7507 300.838 81.5233 300.368 81.23C300.104 81.054 299.914 80.8927 299.796 80.746C299.694 80.5847 299.642 80.394 299.642 80.174C299.642 79.9833 299.694 79.8293 299.796 79.712C299.914 79.58 300.06 79.514 300.236 79.514C300.412 79.514 300.669 79.624 301.006 79.844C301.446 80.108 301.879 80.3207 302.304 80.482C302.744 80.6287 303.287 80.702 303.932 80.702C304.724 80.702 305.34 80.5627 305.78 80.284C306.22 80.0053 306.44 79.602 306.44 79.074C306.44 78.7513 306.36 78.4947 306.198 78.304C306.037 78.0987 305.758 77.9227 305.362 77.776C304.966 77.6147 304.387 77.4533 303.624 77.292C302.334 77.0133 301.41 76.6393 300.852 76.17C300.295 75.7007 300.016 75.0627 300.016 74.256C300.016 73.6253 300.192 73.068 300.544 72.584C300.896 72.1 301.38 71.7187 301.996 71.44C302.627 71.1613 303.338 71.022 304.13 71.022C304.702 71.022 305.252 71.1027 305.78 71.264C306.323 71.4107 306.8 71.6233 307.21 71.902C307.709 72.254 307.958 72.6207 307.958 73.002C307.958 73.1927 307.9 73.354 307.782 73.486C307.665 73.618 307.526 73.684 307.364 73.684C307.188 73.684 306.924 73.5593 306.572 73.31C306.162 73.046 305.773 72.8407 305.406 72.694C305.04 72.5473 304.585 72.474 304.042 72.474C303.353 72.474 302.796 72.628 302.37 72.936C301.96 73.244 301.754 73.6547 301.754 74.168C301.754 74.4907 301.828 74.7547 301.974 74.96C302.136 75.1507 302.392 75.3267 302.744 75.488C303.111 75.6347 303.632 75.7813 304.306 75.928C305.304 76.148 306.074 76.39 306.616 76.654C307.174 76.918 307.57 77.2407 307.804 77.622C308.039 78.0033 308.156 78.4873 308.156 79.074C308.156 79.998 307.768 80.746 306.99 81.318C306.213 81.8753 305.186 82.154 303.91 82.154ZM320.923 71.022C323.607 71.022 324.949 72.43 324.949 75.246V81.23C324.949 81.494 324.868 81.7067 324.707 81.868C324.56 82.0293 324.355 82.11 324.091 82.11C323.827 82.11 323.614 82.0293 323.453 81.868C323.291 81.7067 323.211 81.494 323.211 81.23V80.174C322.932 80.8047 322.507 81.296 321.935 81.648C321.363 81.9853 320.703 82.154 319.955 82.154C319.265 82.154 318.627 82.0147 318.041 81.736C317.469 81.4573 317.014 81.0687 316.677 80.57C316.339 80.0713 316.171 79.5213 316.171 78.92C316.171 78.1133 316.376 77.49 316.787 77.05C317.197 76.5953 317.872 76.2727 318.811 76.082C319.749 75.8767 321.055 75.774 322.727 75.774H323.211V75.048C323.211 74.168 323.027 73.5227 322.661 73.112C322.309 72.7013 321.729 72.496 320.923 72.496C319.925 72.496 318.913 72.7673 317.887 73.31C317.491 73.5593 317.212 73.684 317.051 73.684C316.875 73.684 316.728 73.618 316.611 73.486C316.493 73.354 316.435 73.1853 316.435 72.98C316.435 72.7747 316.493 72.5987 316.611 72.452C316.743 72.2907 316.948 72.1293 317.227 71.968C317.74 71.6747 318.319 71.4473 318.965 71.286C319.625 71.11 320.277 71.022 320.923 71.022ZM320.197 80.746C321.077 80.746 321.795 80.4527 322.353 79.866C322.925 79.2647 323.211 78.4947 323.211 77.556V76.918H322.815C321.524 76.918 320.541 76.9767 319.867 77.094C319.192 77.1967 318.708 77.38 318.415 77.644C318.136 77.8933 317.997 78.2673 317.997 78.766C317.997 79.338 318.202 79.8147 318.613 80.196C319.038 80.5627 319.566 80.746 320.197 80.746ZM333.513 71.066C334.129 71.022 334.437 71.2713 334.437 71.814C334.437 72.0487 334.371 72.2393 334.239 72.386C334.107 72.518 333.879 72.5987 333.557 72.628L332.897 72.694C331.914 72.782 331.181 73.134 330.697 73.75C330.227 74.3513 329.993 75.0627 329.993 75.884V81.23C329.993 81.5233 329.912 81.7433 329.751 81.89C329.589 82.0367 329.377 82.11 329.113 82.11C328.849 82.11 328.629 82.0367 328.453 81.89C328.291 81.7287 328.211 81.5087 328.211 81.23V71.946C328.211 71.6673 328.299 71.4547 328.475 71.308C328.651 71.1467 328.863 71.066 329.113 71.066C329.347 71.066 329.545 71.1467 329.707 71.308C329.868 71.4547 329.949 71.66 329.949 71.924V73.156C330.257 72.5107 330.689 72.0193 331.247 71.682C331.819 71.3447 332.471 71.1467 333.205 71.088L333.513 71.066ZM344.046 79.514C344.207 79.514 344.346 79.58 344.464 79.712C344.581 79.844 344.64 80.0127 344.64 80.218C344.64 80.5847 344.383 80.922 343.87 81.23C343.342 81.538 342.784 81.7727 342.198 81.934C341.611 82.0807 341.039 82.154 340.482 82.154C338.824 82.154 337.512 81.6627 336.544 80.68C335.59 79.6973 335.114 78.3407 335.114 76.61C335.114 75.51 335.326 74.542 335.752 73.706C336.177 72.8553 336.771 72.1953 337.534 71.726C338.311 71.2567 339.191 71.022 340.174 71.022C341.567 71.022 342.674 71.4767 343.496 72.386C344.317 73.2953 344.728 74.5273 344.728 76.082C344.728 76.3753 344.669 76.588 344.552 76.72C344.434 76.852 344.244 76.918 343.98 76.918H336.896C337.028 79.4407 338.223 80.702 340.482 80.702C341.054 80.702 341.545 80.6287 341.956 80.482C342.366 80.3207 342.806 80.108 343.276 79.844C343.657 79.624 343.914 79.514 344.046 79.514ZM340.196 72.408C339.257 72.408 338.502 72.7013 337.93 73.288C337.372 73.8747 337.042 74.7033 336.94 75.774H343.166C343.136 74.6887 342.865 73.86 342.352 73.288C341.838 72.7013 341.12 72.408 340.196 72.408ZM357.403 71.022C360.087 71.022 361.429 72.43 361.429 75.246V81.23C361.429 81.494 361.348 81.7067 361.187 81.868C361.04 82.0293 360.835 82.11 360.571 82.11C360.307 82.11 360.094 82.0293 359.933 81.868C359.772 81.7067 359.691 81.494 359.691 81.23V80.174C359.412 80.8047 358.987 81.296 358.415 81.648C357.843 81.9853 357.183 82.154 356.435 82.154C355.746 82.154 355.108 82.0147 354.521 81.736C353.949 81.4573 353.494 81.0687 353.157 80.57C352.82 80.0713 352.651 79.5213 352.651 78.92C352.651 78.1133 352.856 77.49 353.267 77.05C353.678 76.5953 354.352 76.2727 355.291 76.082C356.23 75.8767 357.535 75.774 359.207 75.774H359.691V75.048C359.691 74.168 359.508 73.5227 359.141 73.112C358.789 72.7013 358.21 72.496 357.403 72.496C356.406 72.496 355.394 72.7673 354.367 73.31C353.971 73.5593 353.692 73.684 353.531 73.684C353.355 73.684 353.208 73.618 353.091 73.486C352.974 73.354 352.915 73.1853 352.915 72.98C352.915 72.7747 352.974 72.5987 353.091 72.452C353.223 72.2907 353.428 72.1293 353.707 71.968C354.22 71.6747 354.8 71.4473 355.445 71.286C356.105 71.11 356.758 71.022 357.403 71.022ZM356.677 80.746C357.557 80.746 358.276 80.4527 358.833 79.866C359.405 79.2647 359.691 78.4947 359.691 77.556V76.918H359.295C358.004 76.918 357.022 76.9767 356.347 77.094C355.672 77.1967 355.188 77.38 354.895 77.644C354.616 77.8933 354.477 78.2673 354.477 78.766C354.477 79.338 354.682 79.8147 355.093 80.196C355.518 80.5627 356.046 80.746 356.677 80.746ZM365.593 82.11C365.329 82.11 365.109 82.0367 364.933 81.89C364.772 81.7287 364.691 81.5087 364.691 81.23V67.26C364.691 66.9813 364.772 66.7687 364.933 66.622C365.109 66.4607 365.329 66.38 365.593 66.38C365.842 66.38 366.048 66.4607 366.209 66.622C366.385 66.7687 366.473 66.9813 366.473 67.26V81.23C366.473 81.5087 366.385 81.7287 366.209 81.89C366.048 82.0367 365.842 82.11 365.593 82.11ZM384.456 71.638C384.603 71.286 384.845 71.11 385.182 71.11C385.402 71.11 385.6 71.1833 385.776 71.33C385.952 71.4767 386.04 71.66 386.04 71.88C386.04 71.9827 386.018 72.0927 385.974 72.21L382.322 81.45C382.234 81.6407 382.102 81.7947 381.926 81.912C381.765 82.0147 381.582 82.066 381.376 82.066C381.186 82.066 381.002 82.0147 380.826 81.912C380.665 81.7947 380.54 81.6407 380.452 81.45L377.416 73.728L374.402 81.45C374.329 81.6407 374.204 81.7947 374.028 81.912C373.852 82.0147 373.662 82.066 373.456 82.066C373.266 82.066 373.082 82.0147 372.906 81.912C372.73 81.7947 372.598 81.6407 372.51 81.45L368.858 72.232C368.814 72.1147 368.792 72.012 368.792 71.924C368.792 71.6893 368.888 71.4913 369.078 71.33C369.284 71.1687 369.504 71.088 369.738 71.088C370.09 71.088 370.34 71.264 370.486 71.616L373.5 79.734L376.602 71.682C376.69 71.4913 376.808 71.3447 376.954 71.242C377.116 71.1393 377.284 71.088 377.46 71.088C377.651 71.088 377.82 71.1393 377.966 71.242C378.128 71.3447 378.245 71.4913 378.318 71.682L381.42 79.712L384.456 71.638ZM392.508 71.022C395.192 71.022 396.534 72.43 396.534 75.246V81.23C396.534 81.494 396.454 81.7067 396.292 81.868C396.146 82.0293 395.94 82.11 395.676 82.11C395.412 82.11 395.2 82.0293 395.038 81.868C394.877 81.7067 394.796 81.494 394.796 81.23V80.174C394.518 80.8047 394.092 81.296 393.52 81.648C392.948 81.9853 392.288 82.154 391.54 82.154C390.851 82.154 390.213 82.0147 389.626 81.736C389.054 81.4573 388.6 81.0687 388.262 80.57C387.925 80.0713 387.756 79.5213 387.756 78.92C387.756 78.1133 387.962 77.49 388.372 77.05C388.783 76.5953 389.458 76.2727 390.396 76.082C391.335 75.8767 392.64 75.774 394.312 75.774H394.796V75.048C394.796 74.168 394.613 73.5227 394.246 73.112C393.894 72.7013 393.315 72.496 392.508 72.496C391.511 72.496 390.499 72.7673 389.472 73.31C389.076 73.5593 388.798 73.684 388.636 73.684C388.46 73.684 388.314 73.618 388.196 73.486C388.079 73.354 388.02 73.1853 388.02 72.98C388.02 72.7747 388.079 72.5987 388.196 72.452C388.328 72.2907 388.534 72.1293 388.812 71.968C389.326 71.6747 389.905 71.4473 390.55 71.286C391.21 71.11 391.863 71.022 392.508 71.022ZM391.782 80.746C392.662 80.746 393.381 80.4527 393.938 79.866C394.51 79.2647 394.796 78.4947 394.796 77.556V76.918H394.4C393.11 76.918 392.127 76.9767 391.452 77.094C390.778 77.1967 390.294 77.38 390 77.644C389.722 77.8933 389.582 78.2673 389.582 78.766C389.582 79.338 389.788 79.8147 390.198 80.196C390.624 80.5627 391.152 80.746 391.782 80.746ZM407.518 71.616C407.68 71.264 407.936 71.088 408.288 71.088C408.508 71.088 408.706 71.1613 408.882 71.308C409.058 71.4547 409.146 71.638 409.146 71.858C409.146 71.99 409.117 72.1073 409.058 72.21L402.876 85.542C402.803 85.7033 402.693 85.828 402.546 85.916C402.414 86.004 402.275 86.048 402.128 86.048C401.908 86.048 401.71 85.9747 401.534 85.828C401.373 85.696 401.292 85.52 401.292 85.3C401.292 85.1827 401.322 85.0653 401.38 84.948L402.92 81.626L398.564 72.21C398.506 72.1073 398.476 71.9973 398.476 71.88C398.476 71.66 398.572 71.4693 398.762 71.308C398.968 71.1467 399.188 71.066 399.422 71.066C399.569 71.066 399.708 71.11 399.84 71.198C399.987 71.286 400.097 71.4107 400.17 71.572L403.844 79.822L407.518 71.616ZM414.512 82.154C413.837 82.154 413.192 82.0733 412.576 81.912C411.975 81.7507 411.439 81.5233 410.97 81.23C410.706 81.054 410.515 80.8927 410.398 80.746C410.295 80.5847 410.244 80.394 410.244 80.174C410.244 79.9833 410.295 79.8293 410.398 79.712C410.515 79.58 410.662 79.514 410.838 79.514C411.014 79.514 411.271 79.624 411.608 79.844C412.048 80.108 412.481 80.3207 412.906 80.482C413.346 80.6287 413.889 80.702 414.534 80.702C415.326 80.702 415.942 80.5627 416.382 80.284C416.822 80.0053 417.042 79.602 417.042 79.074C417.042 78.7513 416.961 78.4947 416.8 78.304C416.639 78.0987 416.36 77.9227 415.964 77.776C415.568 77.6147 414.989 77.4533 414.226 77.292C412.935 77.0133 412.011 76.6393 411.454 76.17C410.897 75.7007 410.618 75.0627 410.618 74.256C410.618 73.6253 410.794 73.068 411.146 72.584C411.498 72.1 411.982 71.7187 412.598 71.44C413.229 71.1613 413.94 71.022 414.732 71.022C415.304 71.022 415.854 71.1027 416.382 71.264C416.925 71.4107 417.401 71.6233 417.812 71.902C418.311 72.254 418.56 72.6207 418.56 73.002C418.56 73.1927 418.501 73.354 418.384 73.486C418.267 73.618 418.127 73.684 417.966 73.684C417.79 73.684 417.526 73.5593 417.174 73.31C416.763 73.046 416.375 72.8407 416.008 72.694C415.641 72.5473 415.187 72.474 414.644 72.474C413.955 72.474 413.397 72.628 412.972 72.936C412.561 73.244 412.356 73.6547 412.356 74.168C412.356 74.4907 412.429 74.7547 412.576 74.96C412.737 75.1507 412.994 75.3267 413.346 75.488C413.713 75.6347 414.233 75.7813 414.908 75.928C415.905 76.148 416.675 76.39 417.218 76.654C417.775 76.918 418.171 77.2407 418.406 77.622C418.641 78.0033 418.758 78.4873 418.758 79.074C418.758 79.998 418.369 80.746 417.592 81.318C416.815 81.8753 415.788 82.154 414.512 82.154ZM432.536 71.022C433.475 71.022 434.303 71.2493 435.022 71.704C435.741 72.1587 436.298 72.804 436.694 73.64C437.09 74.476 437.288 75.444 437.288 76.544C437.288 77.6587 437.09 78.6413 436.694 79.492C436.298 80.328 435.741 80.9807 435.022 81.45C434.303 81.9193 433.475 82.154 432.536 82.154C431.7 82.154 430.967 81.9707 430.336 81.604C429.72 81.2373 429.251 80.7167 428.928 80.042V81.23C428.928 81.494 428.847 81.7067 428.686 81.868C428.539 82.0293 428.327 82.11 428.048 82.11C427.769 82.11 427.549 82.0293 427.388 81.868C427.227 81.7067 427.146 81.494 427.146 81.23V67.238C427.146 66.9887 427.227 66.7833 427.388 66.622C427.549 66.4607 427.769 66.38 428.048 66.38C428.327 66.38 428.539 66.4607 428.686 66.622C428.847 66.7687 428.928 66.974 428.928 67.238V73.134C429.251 72.4593 429.72 71.9387 430.336 71.572C430.967 71.2053 431.7 71.022 432.536 71.022ZM432.184 80.68C433.225 80.68 434.032 80.3207 434.604 79.602C435.176 78.8687 435.462 77.8493 435.462 76.544C435.462 75.268 435.176 74.278 434.604 73.574C434.032 72.87 433.225 72.518 432.184 72.518C431.143 72.518 430.336 72.87 429.764 73.574C429.207 74.278 428.928 75.2827 428.928 76.588C428.928 77.8933 429.207 78.9053 429.764 79.624C430.336 80.328 431.143 80.68 432.184 80.68ZM444.329 71.022C447.013 71.022 448.355 72.43 448.355 75.246V81.23C448.355 81.494 448.274 81.7067 448.113 81.868C447.966 82.0293 447.761 82.11 447.497 82.11C447.233 82.11 447.02 82.0293 446.859 81.868C446.697 81.7067 446.617 81.494 446.617 81.23V80.174C446.338 80.8047 445.913 81.296 445.341 81.648C444.769 81.9853 444.109 82.154 443.361 82.154C442.671 82.154 442.033 82.0147 441.447 81.736C440.875 81.4573 440.42 81.0687 440.083 80.57C439.745 80.0713 439.577 79.5213 439.577 78.92C439.577 78.1133 439.782 77.49 440.193 77.05C440.603 76.5953 441.278 76.2727 442.217 76.082C443.155 75.8767 444.461 75.774 446.133 75.774H446.617V75.048C446.617 74.168 446.433 73.5227 446.067 73.112C445.715 72.7013 445.135 72.496 444.329 72.496C443.331 72.496 442.319 72.7673 441.293 73.31C440.897 73.5593 440.618 73.684 440.457 73.684C440.281 73.684 440.134 73.618 440.017 73.486C439.899 73.354 439.841 73.1853 439.841 72.98C439.841 72.7747 439.899 72.5987 440.017 72.452C440.149 72.2907 440.354 72.1293 440.633 71.968C441.146 71.6747 441.725 71.4473 442.371 71.286C443.031 71.11 443.683 71.022 444.329 71.022ZM443.603 80.746C444.483 80.746 445.201 80.4527 445.759 79.866C446.331 79.2647 446.617 78.4947 446.617 77.556V76.918H446.221C444.93 76.918 443.947 76.9767 443.273 77.094C442.598 77.1967 442.114 77.38 441.821 77.644C441.542 77.8933 441.403 78.2673 441.403 78.766C441.403 79.338 441.608 79.8147 442.019 80.196C442.444 80.5627 442.972 80.746 443.603 80.746ZM456.039 82.154C455.041 82.154 454.154 81.9267 453.377 81.472C452.614 81.0173 452.02 80.372 451.595 79.536C451.184 78.7 450.979 77.732 450.979 76.632C450.979 75.532 451.191 74.5567 451.617 73.706C452.057 72.8553 452.665 72.1953 453.443 71.726C454.22 71.2567 455.115 71.022 456.127 71.022C456.684 71.022 457.234 71.1027 457.777 71.264C458.334 71.4107 458.818 71.6307 459.229 71.924C459.493 72.1 459.676 72.276 459.779 72.452C459.896 72.6133 459.955 72.7967 459.955 73.002C459.955 73.2073 459.896 73.376 459.779 73.508C459.676 73.64 459.537 73.706 459.361 73.706C459.258 73.706 459.148 73.6767 459.031 73.618C458.913 73.5593 458.811 73.5007 458.723 73.442C458.649 73.3833 458.598 73.3467 458.569 73.332C458.187 73.0827 457.821 72.8847 457.469 72.738C457.131 72.5913 456.713 72.518 456.215 72.518C455.144 72.518 454.308 72.8847 453.707 73.618C453.12 74.3367 452.827 75.3413 452.827 76.632C452.827 77.9227 453.12 78.92 453.707 79.624C454.308 80.328 455.144 80.68 456.215 80.68C456.713 80.68 457.139 80.6067 457.491 80.46C457.857 80.3133 458.224 80.1153 458.591 79.866C458.752 79.7633 458.906 79.6753 459.053 79.602C459.199 79.5287 459.324 79.492 459.427 79.492C459.588 79.492 459.72 79.558 459.823 79.69C459.94 79.822 459.999 79.9907 459.999 80.196C459.999 80.3867 459.947 80.5627 459.845 80.724C459.742 80.8707 459.551 81.0393 459.273 81.23C458.862 81.5087 458.363 81.736 457.777 81.912C457.205 82.0733 456.625 82.154 456.039 82.154ZM470.702 80.592C470.937 80.812 471.054 81.0467 471.054 81.296C471.054 81.516 470.973 81.7067 470.812 81.868C470.665 82.0293 470.482 82.11 470.262 82.11C470.071 82.11 469.873 82.022 469.668 81.846L463.926 76.896V81.23C463.926 81.5087 463.838 81.7287 463.662 81.89C463.501 82.0367 463.295 82.11 463.046 82.11C462.782 82.11 462.562 82.0367 462.386 81.89C462.225 81.7287 462.144 81.5087 462.144 81.23V67.26C462.144 66.9813 462.225 66.7687 462.386 66.622C462.562 66.4607 462.782 66.38 463.046 66.38C463.295 66.38 463.501 66.4607 463.662 66.622C463.838 66.7687 463.926 66.9813 463.926 67.26V76.192L469.184 71.374C469.36 71.198 469.558 71.11 469.778 71.11C469.998 71.11 470.189 71.1907 470.35 71.352C470.511 71.5133 470.592 71.704 470.592 71.924C470.592 72.1733 470.489 72.3933 470.284 72.584L465.95 76.456L470.702 80.592ZM481.245 79.514C481.406 79.514 481.545 79.58 481.663 79.712C481.78 79.844 481.839 80.0127 481.839 80.218C481.839 80.5847 481.582 80.922 481.069 81.23C480.541 81.538 479.983 81.7727 479.397 81.934C478.81 82.0807 478.238 82.154 477.681 82.154C476.023 82.154 474.711 81.6627 473.743 80.68C472.789 79.6973 472.313 78.3407 472.313 76.61C472.313 75.51 472.525 74.542 472.951 73.706C473.376 72.8553 473.97 72.1953 474.733 71.726C475.51 71.2567 476.39 71.022 477.373 71.022C478.766 71.022 479.873 71.4767 480.695 72.386C481.516 73.2953 481.927 74.5273 481.927 76.082C481.927 76.3753 481.868 76.588 481.751 76.72C481.633 76.852 481.443 76.918 481.179 76.918H474.095C474.227 79.4407 475.422 80.702 477.681 80.702C478.253 80.702 478.744 80.6287 479.155 80.482C479.565 80.3207 480.005 80.108 480.475 79.844C480.856 79.624 481.113 79.514 481.245 79.514ZM477.395 72.408C476.456 72.408 475.701 72.7013 475.129 73.288C474.571 73.8747 474.241 74.7033 474.139 75.774H480.365C480.335 74.6887 480.064 73.86 479.551 73.288C479.037 72.7013 478.319 72.408 477.395 72.408ZM493.154 66.38C493.433 66.38 493.653 66.4607 493.814 66.622C493.976 66.7833 494.056 66.9887 494.056 67.238V81.23C494.056 81.494 493.976 81.7067 493.814 81.868C493.653 82.0293 493.433 82.11 493.154 82.11C492.876 82.11 492.656 82.0293 492.494 81.868C492.348 81.7067 492.274 81.494 492.274 81.23V80.042C491.952 80.7167 491.475 81.2373 490.844 81.604C490.228 81.9707 489.502 82.154 488.666 82.154C487.728 82.154 486.899 81.9193 486.18 81.45C485.462 80.9807 484.904 80.328 484.508 79.492C484.112 78.6413 483.914 77.6587 483.914 76.544C483.914 75.444 484.112 74.476 484.508 73.64C484.904 72.804 485.462 72.1587 486.18 71.704C486.899 71.2493 487.728 71.022 488.666 71.022C489.502 71.022 490.228 71.2053 490.844 71.572C491.475 71.9387 491.952 72.4593 492.274 73.134V67.238C492.274 66.974 492.348 66.7687 492.494 66.622C492.656 66.4607 492.876 66.38 493.154 66.38ZM489.018 80.68C490.06 80.68 490.859 80.328 491.416 79.624C491.988 78.9053 492.274 77.8933 492.274 76.588C492.274 75.2827 491.988 74.278 491.416 73.574C490.859 72.87 490.06 72.518 489.018 72.518C487.977 72.518 487.163 72.87 486.576 73.574C486.004 74.278 485.718 75.268 485.718 76.544C485.718 77.8493 486.004 78.8687 486.576 79.602C487.163 80.3207 487.977 80.68 489.018 80.68ZM511.169 71.066C511.448 71.066 511.66 71.1467 511.807 71.308C511.968 71.4693 512.049 71.682 512.049 71.946V81.252C512.049 81.5013 511.968 81.7067 511.807 81.868C511.66 82.0293 511.448 82.11 511.169 82.11C510.905 82.11 510.692 82.0367 510.531 81.89C510.384 81.7287 510.311 81.5233 510.311 81.274V80.174C509.974 80.8193 509.497 81.3107 508.881 81.648C508.28 81.9853 507.598 82.154 506.835 82.154C505.559 82.154 504.598 81.802 503.953 81.098C503.308 80.3793 502.985 79.3233 502.985 77.93V71.946C502.985 71.682 503.066 71.4693 503.227 71.308C503.388 71.1467 503.608 71.066 503.887 71.066C504.166 71.066 504.378 71.1467 504.525 71.308C504.686 71.4693 504.767 71.682 504.767 71.946V77.886C504.767 78.8393 504.958 79.5433 505.339 79.998C505.72 80.438 506.322 80.658 507.143 80.658C508.082 80.658 508.837 80.3573 509.409 79.756C509.981 79.14 510.267 78.3333 510.267 77.336V71.946C510.267 71.682 510.348 71.4693 510.509 71.308C510.67 71.1467 510.89 71.066 511.169 71.066ZM520.751 71.022C521.69 71.022 522.518 71.2567 523.237 71.726C523.956 72.1953 524.513 72.8553 524.909 73.706C525.305 74.542 525.503 75.5173 525.503 76.632C525.503 77.7467 525.305 78.722 524.909 79.558C524.513 80.3793 523.956 81.0173 523.237 81.472C522.533 81.9267 521.704 82.154 520.751 82.154C519.915 82.154 519.182 81.9707 518.551 81.604C517.935 81.2373 517.466 80.7167 517.143 80.042V85.212C517.143 85.476 517.062 85.6813 516.901 85.828C516.754 85.9893 516.542 86.07 516.263 86.07C515.984 86.07 515.764 85.9893 515.603 85.828C515.442 85.6667 515.361 85.4613 515.361 85.212V71.946C515.361 71.682 515.442 71.4693 515.603 71.308C515.764 71.1467 515.984 71.066 516.263 71.066C516.542 71.066 516.754 71.1467 516.901 71.308C517.062 71.4693 517.143 71.682 517.143 71.946V73.134C517.466 72.4593 517.935 71.9387 518.551 71.572C519.182 71.2053 519.915 71.022 520.751 71.022ZM520.399 80.68C521.44 80.68 522.247 80.328 522.819 79.624C523.391 78.92 523.677 77.9227 523.677 76.632C523.677 75.3413 523.391 74.3367 522.819 73.618C522.247 72.8847 521.44 72.518 520.399 72.518C519.358 72.518 518.551 72.87 517.979 73.574C517.422 74.278 517.143 75.2827 517.143 76.588C517.143 77.8933 517.422 78.9053 517.979 79.624C518.551 80.328 519.358 80.68 520.399 80.68ZM528.68 82.11C528.328 82.11 528.035 82 527.8 81.78C527.566 81.5453 527.448 81.2447 527.448 80.878C527.448 80.5113 527.566 80.2107 527.8 79.976C528.035 79.7413 528.328 79.624 528.68 79.624C529.018 79.624 529.296 79.7413 529.516 79.976C529.751 80.2107 529.868 80.5113 529.868 80.878C529.868 81.2447 529.751 81.5453 529.516 81.78C529.296 82 529.018 82.11 528.68 82.11Z" fill="#234CAD"/>
<path d="M141.67 42.24C139.65 42.24 137.89 41.81 136.39 40.95C134.89 40.07 133.74 38.82 132.94 37.2C132.14 35.56 131.74 33.63 131.74 31.41C131.74 29.21 132.14 27.3 132.94 25.68C133.74 24.04 134.89 22.79 136.39 21.93C137.89 21.05 139.65 20.61 141.67 20.61C142.99 20.61 144.24 20.82 145.42 21.24C146.6 21.64 147.63 22.23 148.51 23.01C148.89 23.31 149.08 23.71 149.08 24.21C149.08 24.57 148.98 24.88 148.78 25.14C148.58 25.38 148.34 25.5 148.06 25.5C147.72 25.5 147.39 25.37 147.07 25.11C146.11 24.39 145.23 23.89 144.43 23.61C143.65 23.31 142.76 23.16 141.76 23.16C139.56 23.16 137.87 23.87 136.69 25.29C135.51 26.71 134.92 28.75 134.92 31.41C134.92 34.09 135.51 36.14 136.69 37.56C137.87 38.98 139.56 39.69 141.76 39.69C142.72 39.69 143.59 39.54 144.37 39.24C145.17 38.94 146.07 38.44 147.07 37.74C147.47 37.48 147.8 37.35 148.06 37.35C148.34 37.35 148.58 37.48 148.78 37.74C148.98 37.98 149.08 38.28 149.08 38.64C149.08 39.14 148.89 39.54 148.51 39.84C147.63 40.62 146.6 41.22 145.42 41.64C144.24 42.04 142.99 42.24 141.67 42.24ZM153.933 42.15C153.493 42.15 153.123 42.03 152.823 41.79C152.543 41.55 152.403 41.19 152.403 40.71V22.17C152.403 21.69 152.543 21.33 152.823 21.09C153.123 20.83 153.493 20.7 153.933 20.7C154.373 20.7 154.733 20.83 155.013 21.09C155.293 21.33 155.433 21.69 155.433 22.17V40.71C155.433 41.19 155.293 41.55 155.013 41.79C154.733 42.03 154.373 42.15 153.933 42.15ZM166.028 42.21C164.588 42.21 163.318 41.9 162.218 41.28C161.138 40.66 160.298 39.78 159.698 38.64C159.118 37.48 158.828 36.14 158.828 34.62C158.828 33.08 159.118 31.74 159.698 30.6C160.298 29.44 161.138 28.55 162.218 27.93C163.318 27.31 164.588 27 166.028 27C167.468 27 168.728 27.31 169.808 27.93C170.908 28.55 171.748 29.44 172.328 30.6C172.928 31.74 173.228 33.08 173.228 34.62C173.228 36.14 172.928 37.48 172.328 38.64C171.748 39.78 170.908 40.66 169.808 41.28C168.728 41.9 167.468 42.21 166.028 42.21ZM166.028 39.81C167.368 39.81 168.388 39.37 169.088 38.49C169.808 37.61 170.168 36.32 170.168 34.62C170.168 32.94 169.808 31.66 169.088 30.78C168.368 29.88 167.348 29.43 166.028 29.43C164.708 29.43 163.688 29.88 162.968 30.78C162.248 31.66 161.888 32.94 161.888 34.62C161.888 36.32 162.238 37.61 162.938 38.49C163.658 39.37 164.688 39.81 166.028 39.81ZM187.942 27.06C188.402 27.06 188.762 27.19 189.022 27.45C189.302 27.71 189.442 28.07 189.442 28.53V40.74C189.442 41.16 189.302 41.5 189.022 41.76C188.742 42.02 188.372 42.15 187.912 42.15C187.492 42.15 187.152 42.03 186.892 41.79C186.632 41.53 186.502 41.19 186.502 40.77V39.63C186.042 40.47 185.402 41.11 184.582 41.55C183.782 41.99 182.882 42.21 181.882 42.21C178.322 42.21 176.542 40.25 176.542 36.33V28.53C176.542 28.07 176.672 27.71 176.932 27.45C177.212 27.19 177.592 27.06 178.072 27.06C178.532 27.06 178.892 27.19 179.152 27.45C179.432 27.71 179.572 28.07 179.572 28.53V36.3C179.572 37.48 179.812 38.35 180.292 38.91C180.772 39.47 181.512 39.75 182.512 39.75C183.692 39.75 184.632 39.37 185.332 38.61C186.052 37.85 186.412 36.84 186.412 35.58V28.53C186.412 28.09 186.552 27.74 186.832 27.48C187.112 27.2 187.482 27.06 187.942 27.06ZM205.652 20.7C206.112 20.7 206.482 20.83 206.762 21.09C207.042 21.35 207.182 21.7 207.182 22.14V40.68C207.182 41.14 207.042 41.5 206.762 41.76C206.502 42.02 206.142 42.15 205.682 42.15C205.222 42.15 204.852 42.02 204.572 41.76C204.312 41.5 204.182 41.14 204.182 40.68V39.48C203.742 40.36 203.102 41.04 202.262 41.52C201.422 41.98 200.452 42.21 199.352 42.21C198.092 42.21 196.962 41.89 195.962 41.25C194.982 40.61 194.212 39.71 193.652 38.55C193.112 37.39 192.842 36.06 192.842 34.56C192.842 33.04 193.112 31.71 193.652 30.57C194.212 29.43 194.982 28.55 195.962 27.93C196.942 27.31 198.072 27 199.352 27C200.452 27 201.412 27.24 202.232 27.72C203.072 28.18 203.712 28.84 204.152 29.7V22.08C204.152 21.66 204.282 21.33 204.542 21.09C204.822 20.83 205.192 20.7 205.652 20.7ZM200.072 39.81C201.372 39.81 202.382 39.36 203.102 38.46C203.822 37.56 204.182 36.28 204.182 34.62C204.182 32.96 203.822 31.68 203.102 30.78C202.402 29.88 201.392 29.43 200.072 29.43C198.752 29.43 197.722 29.88 196.982 30.78C196.262 31.66 195.902 32.92 195.902 34.56C195.902 36.2 196.272 37.49 197.012 38.43C197.752 39.35 198.772 39.81 200.072 39.81ZM227.177 27C228.457 27 229.587 27.31 230.567 27.93C231.547 28.55 232.307 29.43 232.847 30.57C233.407 31.71 233.687 33.04 233.687 34.56C233.687 36.06 233.407 37.39 232.847 38.55C232.307 39.71 231.537 40.61 230.537 41.25C229.557 41.89 228.437 42.21 227.177 42.21C226.077 42.21 225.107 41.98 224.267 41.52C223.427 41.04 222.787 40.36 222.347 39.48V40.68C222.347 41.12 222.207 41.48 221.927 41.76C221.667 42.02 221.307 42.15 220.847 42.15C220.387 42.15 220.017 42.02 219.737 41.76C219.457 41.48 219.317 41.12 219.317 40.68V22.14C219.317 21.7 219.457 21.35 219.737 21.09C220.037 20.83 220.417 20.7 220.877 20.7C221.317 20.7 221.667 20.83 221.927 21.09C222.207 21.33 222.347 21.66 222.347 22.08V29.76C222.787 28.88 223.427 28.2 224.267 27.72C225.107 27.24 226.077 27 227.177 27ZM226.457 39.81C227.757 39.81 228.767 39.35 229.487 38.43C230.227 37.51 230.597 36.22 230.597 34.56C230.597 32.92 230.237 31.66 229.517 30.78C228.797 29.88 227.777 29.43 226.457 29.43C225.137 29.43 224.117 29.88 223.397 30.78C222.697 31.68 222.347 32.96 222.347 34.62C222.347 36.28 222.697 37.56 223.397 38.46C224.117 39.36 225.137 39.81 226.457 39.81ZM243.191 27C245.131 27 246.571 27.49 247.511 28.47C248.471 29.45 248.951 30.94 248.951 32.94V40.71C248.951 41.17 248.821 41.53 248.561 41.79C248.301 42.03 247.941 42.15 247.481 42.15C247.041 42.15 246.691 42.02 246.431 41.76C246.171 41.5 246.041 41.15 246.041 40.71V39.6C245.661 40.44 245.091 41.09 244.331 41.55C243.591 41.99 242.721 42.21 241.721 42.21C240.761 42.21 239.881 42.02 239.081 41.64C238.301 41.24 237.681 40.7 237.221 40.02C236.761 39.34 236.531 38.57 236.531 37.71C236.511 36.63 236.781 35.79 237.341 35.19C237.901 34.57 238.811 34.13 240.071 33.87C241.331 33.59 243.081 33.45 245.321 33.45H246.011V32.58C246.011 31.46 245.781 30.65 245.321 30.15C244.861 29.65 244.121 29.4 243.101 29.4C242.401 29.4 241.741 29.49 241.121 29.67C240.501 29.85 239.821 30.11 239.081 30.45C238.541 30.75 238.161 30.9 237.941 30.9C237.641 30.9 237.391 30.79 237.191 30.57C237.011 30.35 236.921 30.07 236.921 29.73C236.921 29.43 237.001 29.17 237.161 28.95C237.341 28.71 237.621 28.48 238.001 28.26C238.701 27.88 239.521 27.58 240.461 27.36C241.401 27.12 242.311 27 243.191 27ZM242.261 39.96C243.361 39.96 244.261 39.59 244.961 38.85C245.661 38.09 246.011 37.12 246.011 35.94V35.16H245.471C243.911 35.16 242.711 35.23 241.871 35.37C241.031 35.51 240.431 35.75 240.071 36.09C239.711 36.41 239.531 36.88 239.531 37.5C239.531 38.22 239.791 38.81 240.311 39.27C240.831 39.73 241.481 39.96 242.261 39.96ZM258.196 42.21C256.156 42.21 254.486 41.79 253.186 40.95C252.826 40.73 252.566 40.5 252.406 40.26C252.266 40.02 252.196 39.75 252.196 39.45C252.196 39.13 252.286 38.86 252.466 38.64C252.646 38.42 252.876 38.31 253.156 38.31C253.416 38.31 253.826 38.47 254.386 38.79C254.986 39.11 255.566 39.37 256.126 39.57C256.706 39.77 257.426 39.87 258.286 39.87C259.246 39.87 259.996 39.7 260.536 39.36C261.076 39.02 261.346 38.54 261.346 37.92C261.346 37.52 261.236 37.2 261.016 36.96C260.816 36.72 260.456 36.51 259.936 36.33C259.416 36.13 258.646 35.92 257.626 35.7C255.866 35.32 254.596 34.81 253.816 34.17C253.056 33.51 252.676 32.62 252.676 31.5C252.676 30.64 252.926 29.87 253.426 29.19C253.926 28.49 254.616 27.95 255.496 27.57C256.376 27.19 257.376 27 258.496 27C259.296 27 260.076 27.11 260.836 27.33C261.596 27.53 262.266 27.83 262.846 28.23C263.506 28.67 263.836 29.18 263.836 29.76C263.836 30.08 263.736 30.35 263.536 30.57C263.356 30.79 263.136 30.9 262.876 30.9C262.696 30.9 262.516 30.86 262.336 30.78C262.156 30.7 261.916 30.57 261.616 30.39C261.076 30.07 260.566 29.82 260.086 29.64C259.626 29.46 259.046 29.37 258.346 29.37C257.506 29.37 256.826 29.55 256.306 29.91C255.806 30.27 255.556 30.76 255.556 31.38C255.556 31.94 255.786 32.38 256.246 32.7C256.726 33 257.616 33.29 258.916 33.57C260.256 33.85 261.306 34.17 262.066 34.53C262.826 34.89 263.366 35.34 263.686 35.88C264.026 36.4 264.196 37.07 264.196 37.89C264.196 39.19 263.646 40.24 262.546 41.04C261.466 41.82 260.016 42.21 258.196 42.21ZM279.029 38.31C279.309 38.31 279.539 38.42 279.719 38.64C279.899 38.86 279.989 39.14 279.989 39.48C279.989 40.06 279.629 40.55 278.909 40.95C278.209 41.35 277.439 41.66 276.599 41.88C275.779 42.1 274.989 42.21 274.229 42.21C271.909 42.21 270.079 41.54 268.739 40.2C267.399 38.84 266.729 36.99 266.729 34.65C266.729 33.15 267.019 31.82 267.599 30.66C268.199 29.5 269.029 28.6 270.089 27.96C271.169 27.32 272.389 27 273.749 27C275.709 27 277.259 27.63 278.399 28.89C279.539 30.15 280.109 31.85 280.109 33.99C280.109 34.79 279.749 35.19 279.029 35.19H269.759C269.959 38.29 271.449 39.84 274.229 39.84C274.969 39.84 275.609 39.74 276.149 39.54C276.689 39.34 277.259 39.08 277.859 38.76C277.919 38.72 278.079 38.64 278.339 38.52C278.619 38.38 278.849 38.31 279.029 38.31ZM273.809 29.22C272.649 29.22 271.719 29.59 271.019 30.33C270.319 31.07 269.899 32.11 269.759 33.45H277.499C277.439 32.09 277.089 31.05 276.449 30.33C275.829 29.59 274.949 29.22 273.809 29.22ZM295.418 20.7C295.878 20.7 296.248 20.83 296.528 21.09C296.808 21.35 296.948 21.7 296.948 22.14V40.68C296.948 41.14 296.808 41.5 296.528 41.76C296.268 42.02 295.908 42.15 295.448 42.15C294.988 42.15 294.618 42.02 294.338 41.76C294.078 41.5 293.948 41.14 293.948 40.68V39.48C293.508 40.36 292.868 41.04 292.028 41.52C291.188 41.98 290.218 42.21 289.118 42.21C287.858 42.21 286.728 41.89 285.728 41.25C284.748 40.61 283.978 39.71 283.418 38.55C282.878 37.39 282.608 36.06 282.608 34.56C282.608 33.04 282.878 31.71 283.418 30.57C283.978 29.43 284.748 28.55 285.728 27.93C286.708 27.31 287.838 27 289.118 27C290.218 27 291.178 27.24 291.998 27.72C292.838 28.18 293.478 28.84 293.918 29.7V22.08C293.918 21.66 294.048 21.33 294.308 21.09C294.588 20.83 294.958 20.7 295.418 20.7ZM289.838 39.81C291.138 39.81 292.148 39.36 292.868 38.46C293.588 37.56 293.948 36.28 293.948 34.62C293.948 32.96 293.588 31.68 292.868 30.78C292.168 29.88 291.158 29.43 289.838 29.43C288.518 29.43 287.488 29.88 286.748 30.78C286.028 31.66 285.668 32.92 285.668 34.56C285.668 36.2 286.038 37.49 286.778 38.43C287.518 39.35 288.538 39.81 289.838 39.81Z" fill="#234CAD"/>
</g>
<circle cx="50" cy="50" r="50" fill="#F2F6FF"/>
<path fill-rule="evenodd" clip-rule="evenodd" d="M37 66H63C67.9706 66 72 61.9706 72 57C72 52.0294 67.9706 48 63 48H62V46C62 39.3726 56.6274 34 50 34C43.3726 34 38 39.3726 38 46V48H37C32.0294 48 28 52.0294 28 57C28 61.9706 32.0294 66 37 66Z" stroke="#234CAD" stroke-width="3" stroke-linecap="round"/>
<defs>
<clipPath id="clip0_0_1">
<rect width="402" height="85" fill="white" transform="translate(130 8)"/>
</clipPath>
</defs>
</svg>
